STARTFONT 2.2
FONT -FontForge-SimSun-Book-R-Normal--13-120-75-75-P-129-ISO10646-1
SIZE 12 75 75
FONTBOUNDINGBOX 13 14 0 -3
METRICSSET 2
SWIDTH 3906 0
DWIDTH 13 0
SWIDTH1 3906 0
DWIDTH1 13 0
VVECTOR 6,10
COMMENT "Generated by fontforge, http://fontforge.sourceforge.net"
COMMENT "© Copyright ZHONGYI Electronic Co. 2001"
STARTPROPERTIES 38
FOUNDRY "FontForge"
FAMILY_NAME "SimSun"
WEIGHT_NAME "Book"
SLANT "R"
SETWIDTH_NAME "Normal"
ADD_STYLE_NAME ""
PIXEL_SIZE 13
POINT_SIZE 120
RESOLUTION_X 75
RESOLUTION_Y 75
SPACING "P"
AVERAGE_WIDTH 129
CHARSET_REGISTRY "ISO10646"
CHARSET_ENCODING "1"
FONTNAME_REGISTRY ""
CHARSET_COLLECTIONS "ASCII ISOLatin1Encoding ISO8859-5 JISX0208.1997 GB2312.1980 BIG5 ISO10646-1"
FONT_NAME "SimSun"
FACE_NAME "SimSun"
FONT_VERSION "5.00"
FONT_ASCENT 10
FONT_DESCENT 3
UNDERLINE_POSITION -1
UNDERLINE_THICKNESS 1
X_HEIGHT 6
CAP_HEIGHT 8
RAW_ASCENT 859
RAW_DESCENT 140
RELATIVE_WEIGHT 40
RELATIVE_SETWIDTH 50
SUPERSCRIPT_X 0
SUPERSCRIPT_Y 6
SUPERSCRIPT_SIZE 6
SUBSCRIPT_X 0
SUBSCRIPT_Y 0
SUBSCRIPT_SIZE 6
FIGURE_WIDTH 6
AVG_LOWERCASE_WIDTH 95
AVG_UPPERCASE_WIDTH 100
ENDPROPERTIES
CHARS 22038
STARTCHAR exclam
ENCODING 33
SWIDTH 500 0
DWIDTH 6 0
SWIDTH1 1000 0
BBX 1 9 3 0
BITMAP
80
80
80
80
80
80
00
80
80
ENDCHAR
STARTCHAR quotedbl
ENCODING 34
SWIDTH 500 0
DWIDTH 6 0
SWIDTH1 1000 0
BBX 3 2 2 7
BITMAP
A0
A0
ENDCHAR
STARTCHAR numbersign
ENCODING 35
SWIDTH 500 0
DWIDTH 6 0
SWIDTH1 1000 0
BBX 6 9 0 0
BITMAP
14
14
7C
28
28
28
FC
50
50
ENDCHAR
STARTCHAR dollar
ENCODING 36
SWIDTH 500 0
DWIDTH 6 0
SWIDTH1 1000 0
BBX 5 11 1 -1
BITMAP
20
70
A8
A0
60
20
30
28
A8
70
20
ENDCHAR
STARTCHAR percent
ENCODING 37
SWIDTH 500 0
DWIDTH 6 0
SWIDTH1 1000 0
BBX 6 9 0 0
BITMAP
44
A8
A8
B0
68
34
54
54
88
ENDCHAR
STARTCHAR ampersand
ENCODING 38
SWIDTH 500 0
DWIDTH 6 0
SWIDTH1 1000 0
BBX 5 9 1 0
BITMAP
60
90
90
60
40
A8
A8
90
68
ENDCHAR
STARTCHAR quotesingle
ENCODING 39
SWIDTH 500 0
DWIDTH 6 0
SWIDTH1 1000 0
BBX 1 2 3 7
BITMAP
80
80
ENDCHAR
STARTCHAR parenleft
ENCODING 40
SWIDTH 500 0
DWIDTH 6 0
SWIDTH1 1000 0
BBX 3 11 1 -1
BITMAP
20
40
40
80
80
80
80
80
40
40
20
ENDCHAR
STARTCHAR parenright
ENCODING 41
SWIDTH 500 0
DWIDTH 6 0
SWIDTH1 1000 0
BBX 3 11 3 -1
BITMAP
80
40
40
20
20
20
20
20
40
40
80
ENDCHAR
STARTCHAR asterisk
ENCODING 42
SWIDTH 500 0
DWIDTH 6 0
SWIDTH1 1000 0
BBX 5 5 1 2
BITMAP
20
20
F8
20
50
ENDCHAR
STARTCHAR plus
ENCODING 43
SWIDTH 500 0
DWIDTH 6 0
SWIDTH1 1000 0
BBX 5 5 1 2
BITMAP
20
20
F8
20
20
ENDCHAR
STARTCHAR comma
ENCODING 44
SWIDTH 500 0
DWIDTH 6 0
SWIDTH1 1000 0
BBX 3 4 0 -2
BITMAP
60
20
20
C0
ENDCHAR
STARTCHAR hyphen
ENCODING 45
SWIDTH 500 0
DWIDTH 6 0
SWIDTH1 1000 0
BBX 5 1 1 4
BITMAP
F8
ENDCHAR
STARTCHAR period
ENCODING 46
SWIDTH 500 0
DWIDTH 6 0
SWIDTH1 1000 0
BBX 1 2 3 0
BITMAP
80
80
ENDCHAR
STARTCHAR slash
ENCODING 47
SWIDTH 500 0
DWIDTH 6 0
SWIDTH1 1000 0
BBX 5 10 1 0
BITMAP
08
08
10
10
20
20
40
40
80
80
ENDCHAR
STARTCHAR zero
ENCODING 48
SWIDTH 500 0
DWIDTH 6 0
SWIDTH1 1000 0
BBX 5 9 1 0
BITMAP
70
88
88
88
88
88
88
88
70
ENDCHAR
STARTCHAR one
ENCODING 49
SWIDTH 500 0
DWIDTH 6 0
SWIDTH1 1000 0
BBX 2 9 2 0
BITMAP
40
C0
40
40
40
40
40
40
40
ENDCHAR
STARTCHAR two
ENCODING 50
SWIDTH 500 0
DWIDTH 6 0
SWIDTH1 1000 0
BBX 5 9 1 0
BITMAP
70
88
88
08
10
20
40
80
F8
ENDCHAR
STARTCHAR three
ENCODING 51
SWIDTH 500 0
DWIDTH 6 0
SWIDTH1 1000 0
BBX 5 9 1 0
BITMAP
70
88
88
08
30
08
88
88
70
ENDCHAR
STARTCHAR four
ENCODING 52
SWIDTH 500 0
DWIDTH 6 0
SWIDTH1 1000 0
BBX 5 9 1 0
BITMAP
10
30
30
50
50
90
F8
10
10
ENDCHAR
STARTCHAR five
ENCODING 53
SWIDTH 500 0
DWIDTH 6 0
SWIDTH1 1000 0
BBX 5 9 1 0
BITMAP
F8
80
80
F0
88
08
08
88
70
ENDCHAR
STARTCHAR six
ENCODING 54
SWIDTH 500 0
DWIDTH 6 0
SWIDTH1 1000 0
BBX 5 9 1 0
BITMAP
70
88
80
F0
88
88
88
88
70
ENDCHAR
STARTCHAR seven
ENCODING 55
SWIDTH 500 0
DWIDTH 6 0
SWIDTH1 1000 0
BBX 5 9 1 0
BITMAP
F8
88
08
10
10
20
20
20
20
ENDCHAR
STARTCHAR eight
ENCODING 56
SWIDTH 500 0
DWIDTH 6 0
SWIDTH1 1000 0
BBX 5 9 1 0
BITMAP
70
88
88
88
70
88
88
88
70
ENDCHAR
STARTCHAR nine
ENCODING 57
SWIDTH 500 0
DWIDTH 6 0
SWIDTH1 1000 0
BBX 5 9 1 0
BITMAP
70
88
88
88
88
78
08
88
70
ENDCHAR
STARTCHAR colon
ENCODING 58
SWIDTH 500 0
DWIDTH 6 0
SWIDTH1 1000 0
BBX 1 7 2 1
BITMAP
80
80
00
00
00
80
80
ENDCHAR
STARTCHAR semicolon
ENCODING 59
SWIDTH 500 0
DWIDTH 6 0
SWIDTH1 1000 0
BBX 2 8 1 0
BITMAP
40
40
00
00
00
40
40
80
ENDCHAR
STARTCHAR less
ENCODING 60
SWIDTH 500 0
DWIDTH 6 0
SWIDTH1 1000 0
BBX 5 5 1 2
BITMAP
18
60
80
60
18
ENDCHAR
STARTCHAR equal
ENCODING 61
SWIDTH 500 0
DWIDTH 6 0
SWIDTH1 1000 0
BBX 5 3 1 3
BITMAP
F8
00
F8
ENDCHAR
STARTCHAR greater
ENCODING 62
SWIDTH 500 0
DWIDTH 6 0
SWIDTH1 1000 0
BBX 5 5 1 2
BITMAP
C0
30
08
30
C0
ENDCHAR
STARTCHAR question
ENCODING 63
SWIDTH 500 0
DWIDTH 6 0
SWIDTH1 1000 0
BBX 5 9 1 0
BITMAP
70
88
08
10
20
20
00
20
20
ENDCHAR
STARTCHAR at
ENCODING 64
SWIDTH 500 0
DWIDTH 6 0
SWIDTH1 1000 0
BBX 5 9 1 0
BITMAP
70
88
98
A8
A8
A8
B8
80
70
ENDCHAR
STARTCHAR A
ENCODING 65
SWIDTH 500 0
DWIDTH 6 0
SWIDTH1 1000 0
BBX 5 9 1 0
BITMAP
20
20
20
50
50
70
88
88
88
ENDCHAR
STARTCHAR B
ENCODING 66
SWIDTH 500 0
DWIDTH 6 0
SWIDTH1 1000 0
BBX 5 9 1 0
BITMAP
F0
88
88
88
F0
88
88
88
F0
ENDCHAR
STARTCHAR C
ENCODING 67
SWIDTH 500 0
DWIDTH 6 0
SWIDTH1 1000 0
BBX 5 9 1 0
BITMAP
70
88
88
80
80
80
88
88
70
ENDCHAR
STARTCHAR D
ENCODING 68
SWIDTH 500 0
DWIDTH 6 0
SWIDTH1 1000 0
BBX 5 9 1 0
BITMAP
F0
88
88
88
88
88
88
88
F0
ENDCHAR
STARTCHAR E
ENCODING 69
SWIDTH 500 0
DWIDTH 6 0
SWIDTH1 1000 0
BBX 5 9 1 0
BITMAP
F8
80
80
80
F8
80
80
80
F8
ENDCHAR
STARTCHAR F
ENCODING 70
SWIDTH 500 0
DWIDTH 6 0
SWIDTH1 1000 0
BBX 5 9 1 0
BITMAP
F8
80
80
80
F0
80
80
80
80
ENDCHAR
STARTCHAR G
ENCODING 71
SWIDTH 500 0
DWIDTH 6 0
SWIDTH1 1000 0
BBX 5 9 1 0
BITMAP
70
88
88
80
B8
88
88
98
68
ENDCHAR
STARTCHAR H
ENCODING 72
SWIDTH 500 0
DWIDTH 6 0
SWIDTH1 1000 0
BBX 5 9 1 0
BITMAP
88
88
88
88
F8
88
88
88
88
ENDCHAR
STARTCHAR I
ENCODING 73
SWIDTH 500 0
DWIDTH 6 0
SWIDTH1 1000 0
BBX 5 9 1 0
BITMAP
F8
20
20
20
20
20
20
20
F8
ENDCHAR
STARTCHAR J
ENCODING 74
SWIDTH 500 0
DWIDTH 6 0
SWIDTH1 1000 0
BBX 5 9 1 0
BITMAP
08
08
08
08
08
08
88
88
70
ENDCHAR
STARTCHAR K
ENCODING 75
SWIDTH 500 0
DWIDTH 6 0
SWIDTH1 1000 0
BBX 5 9 1 0
BITMAP
88
90
90
A0
C0
A0
90
90
88
ENDCHAR
STARTCHAR L
ENCODING 76
SWIDTH 500 0
DWIDTH 6 0
SWIDTH1 1000 0
BBX 5 9 1 0
BITMAP
80
80
80
80
80
80
80
80
F8
ENDCHAR
STARTCHAR M
ENCODING 77
SWIDTH 500 0
DWIDTH 6 0
SWIDTH1 1000 0
BBX 5 9 1 0
BITMAP
88
88
D8
D8
A8
A8
88
88
88
ENDCHAR
STARTCHAR N
ENCODING 78
SWIDTH 500 0
DWIDTH 6 0
SWIDTH1 1000 0
BBX 5 9 1 0
BITMAP
88
C8
C8
A8
A8
98
98
88
88
ENDCHAR
STARTCHAR O
ENCODING 79
SWIDTH 500 0
DWIDTH 6 0
SWIDTH1 1000 0
BBX 5 9 1 0
BITMAP
70
88
88
88
88
88
88
88
70
ENDCHAR
STARTCHAR P
ENCODING 80
SWIDTH 500 0
DWIDTH 6 0
SWIDTH1 1000 0
BBX 5 9 1 0
BITMAP
F0
88
88
88
F0
80
80
80
80
ENDCHAR
STARTCHAR Q
ENCODING 81
SWIDTH 500 0
DWIDTH 6 0
SWIDTH1 1000 0
BBX 5 10 1 -1
BITMAP
70
88
88
88
88
88
88
A8
70
08
ENDCHAR
STARTCHAR R
ENCODING 82
SWIDTH 500 0
DWIDTH 6 0
SWIDTH1 1000 0
BBX 5 9 1 0
BITMAP
F0
88
88
88
F0
90
88
88
88
ENDCHAR
STARTCHAR S
ENCODING 83
SWIDTH 500 0
DWIDTH 6 0
SWIDTH1 1000 0
BBX 5 9 1 0
BITMAP
70
88
88
40
20
10
88
88
70
ENDCHAR
STARTCHAR T
ENCODING 84
SWIDTH 500 0
DWIDTH 6 0
SWIDTH1 1000 0
BBX 5 9 1 0
BITMAP
F8
20
20
20
20
20
20
20
20
ENDCHAR
STARTCHAR U
ENCODING 85
SWIDTH 500 0
DWIDTH 6 0
SWIDTH1 1000 0
BBX 5 9 1 0
BITMAP
88
88
88
88
88
88
88
88
70
ENDCHAR
STARTCHAR V
ENCODING 86
SWIDTH 500 0
DWIDTH 6 0
SWIDTH1 1000 0
BBX 5 9 1 0
BITMAP
88
88
88
50
50
50
20
20
20
ENDCHAR
STARTCHAR W
ENCODING 87
SWIDTH 500 0
DWIDTH 6 0
SWIDTH1 1000 0
BBX 5 9 1 0
BITMAP
A8
A8
A8
A8
A8
A8
50
50
50
ENDCHAR
STARTCHAR X
ENCODING 88
SWIDTH 500 0
DWIDTH 6 0
SWIDTH1 1000 0
BBX 5 9 1 0
BITMAP
88
88
50
50
20
50
50
88
88
ENDCHAR
STARTCHAR Y
ENCODING 89
SWIDTH 500 0
DWIDTH 6 0
SWIDTH1 1000 0
BBX 5 9 1 0
BITMAP
88
88
88
50
50
20
20
20
20
ENDCHAR
STARTCHAR Z
ENCODING 90
SWIDTH 500 0
DWIDTH 6 0
SWIDTH1 1000 0
BBX 5 9 1 0
BITMAP
F8
08
10
10
20
40
40
80
F8
ENDCHAR
STARTCHAR bracketleft
ENCODING 91
SWIDTH 500 0
DWIDTH 6 0
SWIDTH1 1000 0
BBX 2 11 2 -1
BITMAP
C0
80
80
80
80
80
80
80
80
80
C0
ENDCHAR
STARTCHAR backslash
ENCODING 92
SWIDTH 500 0
DWIDTH 6 0
SWIDTH1 1000 0
BBX 5 10 1 0
BITMAP
80
80
40
40
20
20
10
10
08
08
ENDCHAR
STARTCHAR bracketright
ENCODING 93
SWIDTH 500 0
DWIDTH 6 0
SWIDTH1 1000 0
BBX 2 11 2 -1
BITMAP
C0
40
40
40
40
40
40
40
40
40
C0
ENDCHAR
STARTCHAR asciicircum
ENCODING 94
SWIDTH 500 0
DWIDTH 6 0
SWIDTH1 1000 0
BBX 4 2 1 7
BITMAP
60
90
ENDCHAR
STARTCHAR underscore
ENCODING 95
SWIDTH 500 0
DWIDTH 6 0
SWIDTH1 1000 0
BBX 6 1 0 -2
BITMAP
FC
ENDCHAR
STARTCHAR grave
ENCODING 96
SWIDTH 500 0
DWIDTH 6 0
SWIDTH1 1000 0
BBX 2 2 1 7
BITMAP
80
40
ENDCHAR
STARTCHAR a
ENCODING 97
SWIDTH 500 0
DWIDTH 6 0
SWIDTH1 1000 0
BBX 6 7 1 0
BITMAP
70
88
08
78
88
88
74
ENDCHAR
STARTCHAR b
ENCODING 98
SWIDTH 500 0
DWIDTH 6 0
SWIDTH1 1000 0
BBX 5 9 1 0
BITMAP
80
80
F0
88
88
88
88
88
F0
ENDCHAR
STARTCHAR c
ENCODING 99
SWIDTH 500 0
DWIDTH 6 0
SWIDTH1 1000 0
BBX 5 7 1 0
BITMAP
70
88
80
80
80
88
70
ENDCHAR
STARTCHAR d
ENCODING 100
SWIDTH 500 0
DWIDTH 6 0
SWIDTH1 1000 0
BBX 5 9 1 0
BITMAP
08
08
78
88
88
88
88
88
78
ENDCHAR
STARTCHAR e
ENCODING 101
SWIDTH 500 0
DWIDTH 6 0
SWIDTH1 1000 0
BBX 5 7 1 0
BITMAP
70
88
88
F8
80
88
70
ENDCHAR
STARTCHAR f
ENCODING 102
SWIDTH 500 0
DWIDTH 6 0
SWIDTH1 1000 0
BBX 4 9 1 0
BITMAP
30
40
40
F0
40
40
40
40
40
ENDCHAR
STARTCHAR g
ENCODING 103
SWIDTH 500 0
DWIDTH 6 0
SWIDTH1 1000 0
BBX 5 8 1 -1
BITMAP
78
88
88
88
78
08
88
70
ENDCHAR
STARTCHAR h
ENCODING 104
SWIDTH 500 0
DWIDTH 6 0
SWIDTH1 1000 0
BBX 5 9 1 0
BITMAP
80
80
F0
88
88
88
88
88
88
ENDCHAR
STARTCHAR i
ENCODING 105
SWIDTH 500 0
DWIDTH 6 0
SWIDTH1 1000 0
BBX 3 9 2 0
BITMAP
40
00
C0
40
40
40
40
40
E0
ENDCHAR
STARTCHAR j
ENCODING 106
SWIDTH 500 0
DWIDTH 6 0
SWIDTH1 1000 0
BBX 3 10 1 -1
BITMAP
20
00
60
20
20
20
20
20
20
C0
ENDCHAR
STARTCHAR k
ENCODING 107
SWIDTH 500 0
DWIDTH 6 0
SWIDTH1 1000 0
BBX 5 9 1 0
BITMAP
80
80
88
90
A0
C0
A0
90
88
ENDCHAR
STARTCHAR l
ENCODING 108
SWIDTH 500 0
DWIDTH 6 0
SWIDTH1 1000 0
BBX 3 9 2 0
BITMAP
C0
40
40
40
40
40
40
40
E0
ENDCHAR
STARTCHAR m
ENCODING 109
SWIDTH 500 0
DWIDTH 6 0
SWIDTH1 1000 0
BBX 5 7 1 0
BITMAP
D0
A8
A8
A8
A8
A8
A8
ENDCHAR
STARTCHAR n
ENCODING 110
SWIDTH 500 0
DWIDTH 6 0
SWIDTH1 1000 0
BBX 5 7 1 0
BITMAP
F0
88
88
88
88
88
88
ENDCHAR
STARTCHAR o
ENCODING 111
SWIDTH 500 0
DWIDTH 6 0
SWIDTH1 1000 0
BBX 5 7 1 0
BITMAP
70
88
88
88
88
88
70
ENDCHAR
STARTCHAR p
ENCODING 112
SWIDTH 500 0
DWIDTH 6 0
SWIDTH1 1000 0
BBX 5 8 1 -1
BITMAP
F0
88
88
88
88
F0
80
80
ENDCHAR
STARTCHAR q
ENCODING 113
SWIDTH 500 0
DWIDTH 6 0
SWIDTH1 1000 0
BBX 5 8 1 -1
BITMAP
78
88
88
88
88
78
08
08
ENDCHAR
STARTCHAR r
ENCODING 114
SWIDTH 500 0
DWIDTH 6 0
SWIDTH1 1000 0
BBX 4 7 2 0
BITMAP
B0
C0
80
80
80
80
80
ENDCHAR
STARTCHAR s
ENCODING 115
SWIDTH 500 0
DWIDTH 6 0
SWIDTH1 1000 0
BBX 5 7 1 0
BITMAP
70
88
80
70
08
88
70
ENDCHAR
STARTCHAR t
ENCODING 116
SWIDTH 500 0
DWIDTH 6 0
SWIDTH1 1000 0
BBX 4 9 1 0
BITMAP
40
40
F0
40
40
40
40
40
30
ENDCHAR
STARTCHAR u
ENCODING 117
SWIDTH 500 0
DWIDTH 6 0
SWIDTH1 1000 0
BBX 5 7 1 0
BITMAP
88
88
88
88
88
88
78
ENDCHAR
STARTCHAR v
ENCODING 118
SWIDTH 500 0
DWIDTH 6 0
SWIDTH1 1000 0
BBX 5 7 1 0
BITMAP
88
88
88
50
50
20
20
ENDCHAR
STARTCHAR w
ENCODING 119
SWIDTH 500 0
DWIDTH 6 0
SWIDTH1 1000 0
BBX 5 7 1 0
BITMAP
A8
A8
A8
A8
70
50
50
ENDCHAR
STARTCHAR x
ENCODING 120
SWIDTH 500 0
DWIDTH 6 0
SWIDTH1 1000 0
BBX 5 7 1 0
BITMAP
88
88
50
20
50
88
88
ENDCHAR
STARTCHAR y
ENCODING 121
SWIDTH 500 0
DWIDTH 6 0
SWIDTH1 1000 0
BBX 5 8 1 -1
BITMAP
88
88
88
50
50
20
20
C0
ENDCHAR
STARTCHAR z
ENCODING 122
SWIDTH 500 0
DWIDTH 6 0
SWIDTH1 1000 0
BBX 5 7 1 0
BITMAP
F8
08
10
20
40
80
F8
ENDCHAR
STARTCHAR braceleft
ENCODING 123
SWIDTH 500 0
DWIDTH 6 0
SWIDTH1 1000 0
BBX 3 11 1 -1
BITMAP
20
40
40
40
40
80
40
40
40
40
20
ENDCHAR
STARTCHAR bar
ENCODING 124
SWIDTH 500 0
DWIDTH 6 0
SWIDTH1 1000 0
BBX 1 13 3 -2
BITMAP
80
80
80
80
80
80
80
80
80
80
80
80
80
ENDCHAR
STARTCHAR braceright
ENCODING 125
SWIDTH 500 0
DWIDTH 6 0
SWIDTH1 1000 0
BBX 3 11 2 -1
BITMAP
80
40
40
40
40
20
40
40
40
40
80
ENDCHAR
STARTCHAR asciitilde
ENCODING 126
SWIDTH 500 0
DWIDTH 6 0
SWIDTH1 1000 0
BBX 6 3 1 8
BITMAP
40
A4
18
ENDCHAR
STARTCHAR exclamdown
ENCODING 161
SWIDTH 500 0
DWIDTH 6 0
SWIDTH1 1000 0
BBX 1 10 2 -1
BITMAP
80
80
00
00
80
80
80
80
80
80
ENDCHAR
STARTCHAR cent
ENCODING 162
SWIDTH 500 0
DWIDTH 6 0
SWIDTH1 1000 0
BBX 5 9 0 -1
BITMAP
08
70
98
A8
A0
A0
C8
70
80
ENDCHAR
STARTCHAR sterling
ENCODING 163
SWIDTH 500 0
DWIDTH 6 0
SWIDTH1 1000 0
BBX 6 10 0 0
BITMAP
30
48
40
F0
20
20
60
A4
B4
48
ENDCHAR
STARTCHAR currency
ENCODING 164
SWIDTH 1000 0
SWIDTH1 1000 0
BBX 9 9 2 0
BITMAP
BE80
4100
8080
8080
8080
8080
8080
4100
BE80
ENDCHAR
STARTCHAR yen
ENCODING 165
SWIDTH 500 0
DWIDTH 6 0
SWIDTH1 1000 0
BBX 5 10 0 0
BITMAP
88
88
88
50
50
F8
20
F8
20
20
ENDCHAR
STARTCHAR brokenbar
ENCODING 166
SWIDTH 500 0
DWIDTH 6 0
SWIDTH1 1000 0
BBX 1 13 3 -2
BITMAP
80
80
80
80
80
00
00
00
80
80
80
80
80
ENDCHAR
STARTCHAR section
ENCODING 167
SWIDTH 1000 0
SWIDTH1 1000 0
BBX 5 12 4 -1
BITMAP
70
88
88
60
90
88
88
48
30
88
88
70
ENDCHAR
STARTCHAR dieresis
ENCODING 168
SWIDTH 1000 0
SWIDTH1 1000 0
BBX 6 2 3 6
BITMAP
CC
CC
ENDCHAR
STARTCHAR copyright
ENCODING 169
SWIDTH 500 0
DWIDTH 6 0
SWIDTH1 1000 0
BBX 6 9 0 0
BITMAP
30
48
B4
A4
A4
A4
B4
48
30
ENDCHAR
STARTCHAR ordfeminine
ENCODING 170
SWIDTH 500 0
DWIDTH 6 0
SWIDTH1 1000 0
BBX 5 5 0 5
BITMAP
60
90
70
90
68
ENDCHAR
STARTCHAR guillemotleft
ENCODING 171
SWIDTH 500 0
DWIDTH 6 0
SWIDTH1 1000 0
BBX 6 7 0 1
BITMAP
24
48
48
90
48
48
24
ENDCHAR
STARTCHAR logicalnot
ENCODING 172
SWIDTH 500 0
DWIDTH 6 0
SWIDTH1 1000 0
BBX 6 3 0 3
BITMAP
FC
04
04
ENDCHAR
STARTCHAR uni00AD
ENCODING 173
SWIDTH 500 0
DWIDTH 6 0
SWIDTH1 1000 0
BBX 3 1 1 4
BITMAP
E0
ENDCHAR
STARTCHAR registered
ENCODING 174
SWIDTH 500 0
DWIDTH 6 0
SWIDTH1 1000 0
BBX 6 9 0 0
BITMAP
30
48
B4
AC
B4
AC
AC
48
30
ENDCHAR
STARTCHAR macron
ENCODING 175
SWIDTH 500 0
DWIDTH 6 0
SWIDTH1 1000 0
BBX 5 1 1 9
BITMAP
F8
ENDCHAR
STARTCHAR degree
ENCODING 176
SWIDTH 1000 0
SWIDTH1 1000 0
BBX 4 4 0 7
BITMAP
60
90
90
60
ENDCHAR
STARTCHAR plusminus
ENCODING 177
SWIDTH 1000 0
SWIDTH1 1000 0
BBX 9 11 2 0
BITMAP
0800
0800
0800
0800
FF80
0800
0800
0800
0800
0000
FF80
ENDCHAR
STARTCHAR uni00B2
ENCODING 178
SWIDTH 500 0
DWIDTH 6 0
SWIDTH1 1000 0
BBX 3 5 1 5
BITMAP
C0
20
40
80
E0
ENDCHAR
STARTCHAR uni00B3
ENCODING 179
SWIDTH 500 0
DWIDTH 6 0
SWIDTH1 1000 0
BBX 3 5 1 5
BITMAP
C0
20
40
20
E0
ENDCHAR
STARTCHAR acute
ENCODING 180
SWIDTH 500 0
DWIDTH 6 0
SWIDTH1 1000 0
BBX 2 2 2 9
BITMAP
40
80
ENDCHAR
STARTCHAR mu
ENCODING 181
SWIDTH 500 0
DWIDTH 6 0
SWIDTH1 1000 0
BBX 5 8 0 -1
BITMAP
88
88
88
88
88
98
E8
80
ENDCHAR
STARTCHAR paragraph
ENCODING 182
SWIDTH 500 0
DWIDTH 6 0
SWIDTH1 1000 0
BBX 5 12 0 -1
BITMAP
78
E8
E8
E8
E8
68
28
28
28
28
28
28
ENDCHAR
STARTCHAR periodcentered
ENCODING 183
SWIDTH 1000 0
SWIDTH1 1000 0
BBX 3 3 4 3
BITMAP
E0
E0
E0
ENDCHAR
STARTCHAR cedilla
ENCODING 184
SWIDTH 500 0
DWIDTH 6 0
SWIDTH1 1000 0
BBX 2 4 3 -1
BITMAP
80
C0
40
80
ENDCHAR
STARTCHAR uni00B9
ENCODING 185
SWIDTH 500 0
DWIDTH 6 0
SWIDTH1 1000 0
BBX 2 5 1 5
BITMAP
40
C0
40
40
40
ENDCHAR
STARTCHAR ordmasculine
ENCODING 186
SWIDTH 500 0
DWIDTH 6 0
SWIDTH1 1000 0
BBX 4 5 0 5
BITMAP
60
90
90
90
60
ENDCHAR
STARTCHAR guillemotright
ENCODING 187
SWIDTH 500 0
DWIDTH 6 0
SWIDTH1 1000 0
BBX 6 7 0 1
BITMAP
90
48
48
24
48
48
90
ENDCHAR
STARTCHAR onequarter
ENCODING 188
SWIDTH 500 0
DWIDTH 6 0
SWIDTH1 1000 0
BBX 6 10 0 0
BITMAP
44
C4
48
48
50
24
2C
54
9C
84
ENDCHAR
STARTCHAR onehalf
ENCODING 189
SWIDTH 500 0
DWIDTH 6 0
SWIDTH1 1000 0
BBX 6 10 0 0
BITMAP
44
C4
48
48
50
38
24
48
90
9C
ENDCHAR
STARTCHAR threequarters
ENCODING 190
SWIDTH 500 0
DWIDTH 6 0
SWIDTH1 1000 0
BBX 6 10 0 0
BITMAP
C4
24
E8
28
D0
24
2C
54
9C
84
ENDCHAR
STARTCHAR questiondown
ENCODING 191
SWIDTH 500 0
DWIDTH 6 0
SWIDTH1 1000 0
BBX 5 10 0 -1
BITMAP
20
20
00
20
20
40
80
88
88
70
ENDCHAR
STARTCHAR Agrave
ENCODING 192
SWIDTH 500 0
DWIDTH 6 0
SWIDTH1 1000 0
BBX 5 11 0 0
BITMAP
40
20
00
20
20
50
50
88
F8
88
88
ENDCHAR
STARTCHAR Aacute
ENCODING 193
SWIDTH 500 0
DWIDTH 6 0
SWIDTH1 1000 0
BBX 5 11 0 0
BITMAP
10
20
00
20
20
50
50
88
F8
88
88
ENDCHAR
STARTCHAR Acircumflex
ENCODING 194
SWIDTH 500 0
DWIDTH 6 0
SWIDTH1 1000 0
BBX 5 11 0 0
BITMAP
20
50
00
20
20
50
50
88
F8
88
88
ENDCHAR
STARTCHAR Atilde
ENCODING 195
SWIDTH 500 0
DWIDTH 6 0
SWIDTH1 1000 0
BBX 5 11 0 0
BITMAP
68
90
00
20
20
50
50
88
F8
88
88
ENDCHAR
STARTCHAR Adieresis
ENCODING 196
SWIDTH 500 0
DWIDTH 6 0
SWIDTH1 1000 0
BBX 5 10 0 0
BITMAP
50
00
20
20
50
50
88
F8
88
88
ENDCHAR
STARTCHAR Aring
ENCODING 197
SWIDTH 500 0
DWIDTH 6 0
SWIDTH1 1000 0
BBX 5 11 0 0
BITMAP
20
50
50
20
20
50
50
88
F8
88
88
ENDCHAR
STARTCHAR AE
ENCODING 198
SWIDTH 500 0
DWIDTH 6 0
SWIDTH1 1000 0
BBX 6 10 0 0
BITMAP
3C
30
50
50
5C
50
90
F0
90
9C
ENDCHAR
STARTCHAR Ccedilla
ENCODING 199
SWIDTH 500 0
DWIDTH 6 0
SWIDTH1 1000 0
BBX 6 12 0 -2
BITMAP
30
48
84
80
80
84
84
48
30
30
10
20
ENDCHAR
STARTCHAR Egrave
ENCODING 200
SWIDTH 500 0
DWIDTH 6 0
SWIDTH1 1000 0
BBX 5 11 0 0
BITMAP
40
20
00
F8
80
80
F0
80
80
80
F8
ENDCHAR
STARTCHAR Eacute
ENCODING 201
SWIDTH 500 0
DWIDTH 6 0
SWIDTH1 1000 0
BBX 5 11 0 0
BITMAP
10
20
00
F8
80
80
F0
80
80
80
F8
ENDCHAR
STARTCHAR Ecircumflex
ENCODING 202
SWIDTH 500 0
DWIDTH 6 0
SWIDTH1 1000 0
BBX 5 11 0 0
BITMAP
20
50
00
F8
80
80
F0
80
80
80
F8
ENDCHAR
STARTCHAR Edieresis
ENCODING 203
SWIDTH 500 0
DWIDTH 6 0
SWIDTH1 1000 0
BBX 5 10 0 0
BITMAP
50
00
F8
80
80
F0
80
80
80
F8
ENDCHAR
STARTCHAR Igrave
ENCODING 204
SWIDTH 500 0
DWIDTH 6 0
SWIDTH1 1000 0
BBX 3 11 1 0
BITMAP
80
40
00
E0
40
40
40
40
40
40
E0
ENDCHAR
STARTCHAR Iacute
ENCODING 205
SWIDTH 500 0
DWIDTH 6 0
SWIDTH1 1000 0
BBX 3 11 1 0
BITMAP
20
40
00
E0
40
40
40
40
40
40
E0
ENDCHAR
STARTCHAR Icircumflex
ENCODING 206
SWIDTH 500 0
DWIDTH 6 0
SWIDTH1 1000 0
BBX 3 11 1 0
BITMAP
40
A0
00
E0
40
40
40
40
40
40
E0
ENDCHAR
STARTCHAR Idieresis
ENCODING 207
SWIDTH 500 0
DWIDTH 6 0
SWIDTH1 1000 0
BBX 3 10 1 0
BITMAP
A0
00
E0
40
40
40
40
40
40
E0
ENDCHAR
STARTCHAR Eth
ENCODING 208
SWIDTH 500 0
DWIDTH 6 0
SWIDTH1 1000 0
BBX 6 10 0 0
BITMAP
70
48
44
44
F4
44
44
44
48
70
ENDCHAR
STARTCHAR Ntilde
ENCODING 209
SWIDTH 500 0
DWIDTH 6 0
SWIDTH1 1000 0
BBX 5 11 0 0
BITMAP
68
90
00
88
C8
C8
A8
A8
98
98
88
ENDCHAR
STARTCHAR Ograve
ENCODING 210
SWIDTH 500 0
DWIDTH 6 0
SWIDTH1 1000 0
BBX 6 11 0 0
BITMAP
40
20
00
30
48
84
84
84
84
48
30
ENDCHAR
STARTCHAR Oacute
ENCODING 211
SWIDTH 500 0
DWIDTH 6 0
SWIDTH1 1000 0
BBX 6 11 0 0
BITMAP
10
20
00
30
48
84
84
84
84
48
30
ENDCHAR
STARTCHAR Ocircumflex
ENCODING 212
SWIDTH 500 0
DWIDTH 6 0
SWIDTH1 1000 0
BBX 6 11 0 0
BITMAP
20
50
00
30
48
84
84
84
84
48
30
ENDCHAR
STARTCHAR Otilde
ENCODING 213
SWIDTH 500 0
DWIDTH 6 0
SWIDTH1 1000 0
BBX 6 11 0 0
BITMAP
68
90
00
30
48
84
84
84
84
48
30
ENDCHAR
STARTCHAR Odieresis
ENCODING 214
SWIDTH 500 0
DWIDTH 6 0
SWIDTH1 1000 0
BBX 6 10 0 0
BITMAP
50
00
30
48
84
84
84
84
48
30
ENDCHAR
STARTCHAR multiply
ENCODING 215
SWIDTH 1000 0
SWIDTH1 1000 0
BBX 9 9 2 0
BITMAP
8080
4100
2200
1400
0800
1400
2200
4100
8080
ENDCHAR
STARTCHAR Oslash
ENCODING 216
SWIDTH 500 0
DWIDTH 6 0
SWIDTH1 1000 0
BBX 6 10 0 0
BITMAP
34
48
8C
94
94
A4
A4
C4
48
B0
ENDCHAR
STARTCHAR Ugrave
ENCODING 217
SWIDTH 500 0
DWIDTH 6 0
SWIDTH1 1000 0
BBX 5 11 0 0
BITMAP
40
20
00
88
88
88
88
88
88
88
70
ENDCHAR
STARTCHAR Uacute
ENCODING 218
SWIDTH 500 0
DWIDTH 6 0
SWIDTH1 1000 0
BBX 5 11 0 0
BITMAP
10
20
00
88
88
88
88
88
88
88
70
ENDCHAR
STARTCHAR Ucircumflex
ENCODING 219
SWIDTH 500 0
DWIDTH 6 0
SWIDTH1 1000 0
BBX 5 11 0 0
BITMAP
20
50
00
88
88
88
88
88
88
88
70
ENDCHAR
STARTCHAR Udieresis
ENCODING 220
SWIDTH 500 0
DWIDTH 6 0
SWIDTH1 1000 0
BBX 5 10 0 0
BITMAP
50
00
88
88
88
88
88
88
88
70
ENDCHAR
STARTCHAR Yacute
ENCODING 221
SWIDTH 500 0
DWIDTH 6 0
SWIDTH1 1000 0
BBX 5 11 0 0
BITMAP
10
20
00
88
88
50
50
20
20
20
20
ENDCHAR
STARTCHAR Thorn
ENCODING 222
SWIDTH 500 0
DWIDTH 6 0
SWIDTH1 1000 0
BBX 5 10 1 0
BITMAP
80
80
80
F0
88
88
88
F0
80
80
ENDCHAR
STARTCHAR germandbls
ENCODING 223
SWIDTH 500 0
DWIDTH 6 0
SWIDTH1 1000 0
BBX 5 10 1 0
BITMAP
60
90
90
90
A0
90
88
88
A8
90
ENDCHAR
STARTCHAR agrave
ENCODING 224
SWIDTH 500 0
DWIDTH 6 0
SWIDTH1 1000 0
BBX 6 10 1 0
BITMAP
20
10
00
70
88
08
78
88
88
74
ENDCHAR
STARTCHAR aacute
ENCODING 225
SWIDTH 500 0
DWIDTH 6 0
SWIDTH1 1000 0
BBX 6 10 1 0
BITMAP
10
20
00
70
88
08
78
88
88
74
ENDCHAR
STARTCHAR acircumflex
ENCODING 226
SWIDTH 500 0
DWIDTH 6 0
SWIDTH1 1000 0
BBX 6 10 0 0
BITMAP
20
50
00
70
88
08
78
88
88
74
ENDCHAR
STARTCHAR atilde
ENCODING 227
SWIDTH 500 0
DWIDTH 6 0
SWIDTH1 1000 0
BBX 6 10 0 0
BITMAP
68
90
00
70
88
08
78
88
88
74
ENDCHAR
STARTCHAR adieresis
ENCODING 228
SWIDTH 500 0
DWIDTH 6 0
SWIDTH1 1000 0
BBX 6 9 0 0
BITMAP
50
00
70
88
08
78
88
88
74
ENDCHAR
STARTCHAR aring
ENCODING 229
SWIDTH 500 0
DWIDTH 6 0
SWIDTH1 1000 0
BBX 6 10 0 0
BITMAP
30
48
48
70
88
08
78
88
88
74
ENDCHAR
STARTCHAR ae
ENCODING 230
SWIDTH 500 0
DWIDTH 6 0
SWIDTH1 1000 0
BBX 6 7 0 0
BITMAP
68
94
14
7C
90
94
68
ENDCHAR
STARTCHAR ccedilla
ENCODING 231
SWIDTH 500 0
DWIDTH 6 0
SWIDTH1 1000 0
BBX 6 10 0 -2
BITMAP
38
44
80
80
80
44
38
30
10
20
ENDCHAR
STARTCHAR egrave
ENCODING 232
SWIDTH 500 0
DWIDTH 6 0
SWIDTH1 1000 0
BBX 5 10 0 0
BITMAP
40
20
00
70
88
88
F8
80
88
70
ENDCHAR
STARTCHAR eacute
ENCODING 233
SWIDTH 500 0
DWIDTH 6 0
SWIDTH1 1000 0
BBX 5 10 0 0
BITMAP
10
20
00
70
88
88
F8
80
88
70
ENDCHAR
STARTCHAR ecircumflex
ENCODING 234
SWIDTH 500 0
DWIDTH 6 0
SWIDTH1 1000 0
BBX 5 10 0 0
BITMAP
20
50
00
70
88
88
F8
80
88
70
ENDCHAR
STARTCHAR edieresis
ENCODING 235
SWIDTH 500 0
DWIDTH 6 0
SWIDTH1 1000 0
BBX 5 9 0 0
BITMAP
50
00
70
88
88
F8
80
88
70
ENDCHAR
STARTCHAR igrave
ENCODING 236
SWIDTH 500 0
DWIDTH 6 0
SWIDTH1 1000 0
BBX 2 10 1 0
BITMAP
80
40
00
40
40
40
40
40
40
40
ENDCHAR
STARTCHAR iacute
ENCODING 237
SWIDTH 500 0
DWIDTH 6 0
SWIDTH1 1000 0
BBX 2 10 2 0
BITMAP
40
80
00
80
80
80
80
80
80
80
ENDCHAR
STARTCHAR icircumflex
ENCODING 238
SWIDTH 500 0
DWIDTH 6 0
SWIDTH1 1000 0
BBX 3 10 1 0
BITMAP
40
A0
00
40
40
40
40
40
40
40
ENDCHAR
STARTCHAR idieresis
ENCODING 239
SWIDTH 500 0
DWIDTH 6 0
SWIDTH1 1000 0
BBX 3 9 1 0
BITMAP
A0
00
40
40
40
40
40
40
40
ENDCHAR
STARTCHAR eth
ENCODING 240
SWIDTH 500 0
DWIDTH 6 0
SWIDTH1 1000 0
BBX 6 10 0 0
BITMAP
6C
10
68
08
34
4C
84
84
48
30
ENDCHAR
STARTCHAR ntilde
ENCODING 241
SWIDTH 500 0
DWIDTH 6 0
SWIDTH1 1000 0
BBX 5 10 0 0
BITMAP
68
90
00
B0
C8
88
88
88
88
88
ENDCHAR
STARTCHAR ograve
ENCODING 242
SWIDTH 500 0
DWIDTH 6 0
SWIDTH1 1000 0
BBX 5 10 0 0
BITMAP
40
20
00
70
88
88
88
88
88
70
ENDCHAR
STARTCHAR oacute
ENCODING 243
SWIDTH 500 0
DWIDTH 6 0
SWIDTH1 1000 0
BBX 5 10 0 0
BITMAP
10
20
00
70
88
88
88
88
88
70
ENDCHAR
STARTCHAR ocircumflex
ENCODING 244
SWIDTH 500 0
DWIDTH 6 0
SWIDTH1 1000 0
BBX 5 10 0 0
BITMAP
20
50
00
70
88
88
88
88
88
70
ENDCHAR
STARTCHAR otilde
ENCODING 245
SWIDTH 500 0
DWIDTH 6 0
SWIDTH1 1000 0
BBX 5 10 0 0
BITMAP
68
90
00
70
88
88
88
88
88
70
ENDCHAR
STARTCHAR odieresis
ENCODING 246
SWIDTH 500 0
DWIDTH 6 0
SWIDTH1 1000 0
BBX 5 9 0 0
BITMAP
50
00
70
88
88
88
88
88
70
ENDCHAR
STARTCHAR divide
ENCODING 247
SWIDTH 1000 0
SWIDTH1 1000 0
BBX 10 9 1 1
BITMAP
0C00
0C00
0000
0000
FFC0
0000
0000
0C00
0C00
ENDCHAR
STARTCHAR oslash
ENCODING 248
SWIDTH 500 0
DWIDTH 6 0
SWIDTH1 1000 0
BBX 5 9 0 -1
BITMAP
08
70
98
A8
A8
A8
C8
70
80
ENDCHAR
STARTCHAR ugrave
ENCODING 249
SWIDTH 500 0
DWIDTH 6 0
SWIDTH1 1000 0
BBX 5 10 0 0
BITMAP
40
20
00
88
88
88
88
88
98
68
ENDCHAR
STARTCHAR uacute
ENCODING 250
SWIDTH 500 0
DWIDTH 6 0
SWIDTH1 1000 0
BBX 5 10 0 0
BITMAP
10
20
00
88
88
88
88
88
98
68
ENDCHAR
STARTCHAR ucircumflex
ENCODING 251
SWIDTH 500 0
DWIDTH 6 0
SWIDTH1 1000 0
BBX 5 10 0 0
BITMAP
20
50
00
88
88
88
88
88
98
68
ENDCHAR
STARTCHAR udieresis
ENCODING 252
SWIDTH 500 0
DWIDTH 6 0
SWIDTH1 1000 0
BBX 5 9 0 0
BITMAP
50
00
88
88
88
88
88
98
68
ENDCHAR
STARTCHAR yacute
ENCODING 253
SWIDTH 500 0
DWIDTH 6 0
SWIDTH1 1000 0
BBX 5 11 0 -1
BITMAP
10
20
00
88
88
50
50
20
20
40
80
ENDCHAR
STARTCHAR thorn
ENCODING 254
SWIDTH 500 0
DWIDTH 6 0
SWIDTH1 1000 0
BBX 4 11 1 -1
BITMAP
80
80
80
E0
90
90
90
E0
80
80
80
ENDCHAR
STARTCHAR ydieresis
ENCODING 255
SWIDTH 500 0
DWIDTH 6 0
SWIDTH1 1000 0
BBX 5 10 0 -1
BITMAP
50
00
88
88
50
50
20
20
40
80
ENDCHAR
STARTCHAR amacron
ENCODING 257
SWIDTH 500 0
DWIDTH 6 0
SWIDTH1 1000 0
BBX 6 9 0 0
BITMAP
70
00
70
88
08
78
88
88
74
ENDCHAR
STARTCHAR emacron
ENCODING 275
SWIDTH 500 0
DWIDTH 6 0
SWIDTH1 1000 0
BBX 5 9 0 0
BITMAP
70
00
70
88
88
F8
80
88
70
ENDCHAR
STARTCHAR ecaron
ENCODING 283
SWIDTH 500 0
DWIDTH 6 0
SWIDTH1 1000 0
BBX 5 10 0 0
BITMAP
50
20
00
70
88
88
F8
80
88
70
ENDCHAR
STARTCHAR imacron
ENCODING 299
SWIDTH 500 0
DWIDTH 6 0
SWIDTH1 1000 0
BBX 3 9 1 0
BITMAP
E0
00
40
40
40
40
40
40
40
ENDCHAR
STARTCHAR nacute
ENCODING 324
SWIDTH 500 0
DWIDTH 6 0
SWIDTH1 1000 0
BBX 5 10 0 0
BITMAP
20
40
00
B0
C8
88
88
88
88
88
ENDCHAR
STARTCHAR ncaron
ENCODING 328
SWIDTH 500 0
DWIDTH 6 0
SWIDTH1 1000 0
BBX 5 10 0 0
BITMAP
50
20
00
B0
C8
88
88
88
88
88
ENDCHAR
STARTCHAR omacron
ENCODING 333
SWIDTH 500 0
DWIDTH 6 0
SWIDTH1 1000 0
BBX 5 9 0 0
BITMAP
70
00
70
88
88
88
88
88
70
ENDCHAR
STARTCHAR OE
ENCODING 338
SWIDTH 500 0
DWIDTH 6 0
SWIDTH1 1000 0
BBX 6 10 0 0
BITMAP
7C
90
90
90
9C
90
90
90
90
7C
ENDCHAR
STARTCHAR oe
ENCODING 339
SWIDTH 500 0
DWIDTH 6 0
SWIDTH1 1000 0
BBX 6 7 0 0
BITMAP
68
94
94
9C
90
94
68
ENDCHAR
STARTCHAR Scaron
ENCODING 352
SWIDTH 500 0
DWIDTH 6 0
SWIDTH1 1000 0
BBX 5 11 0 0
BITMAP
50
20
00
70
88
88
60
10
88
88
70
ENDCHAR
STARTCHAR scaron
ENCODING 353
SWIDTH 500 0
DWIDTH 6 0
SWIDTH1 1000 0
BBX 5 10 0 0
BITMAP
50
20
00
70
88
80
70
08
88
70
ENDCHAR
STARTCHAR umacron
ENCODING 363
SWIDTH 500 0
DWIDTH 6 0
SWIDTH1 1000 0
BBX 5 9 0 0
BITMAP
70
00
88
88
88
88
88
98
68
ENDCHAR
STARTCHAR Ydieresis
ENCODING 376
SWIDTH 500 0
DWIDTH 6 0
SWIDTH1 1000 0
BBX 5 10 0 0
BITMAP
50
00
88
88
50
50
20
20
20
20
ENDCHAR
STARTCHAR florin
ENCODING 402
SWIDTH 500 0
DWIDTH 6 0
SWIDTH1 1000 0
BBX 6 11 0 -1
BITMAP
08
14
10
10
78
10
10
20
20
A0
40
ENDCHAR
STARTCHAR uni01CE
ENCODING 462
SWIDTH 500 0
DWIDTH 6 0
SWIDTH1 1000 0
BBX 6 10 1 0
BITMAP
50
20
00
70
88
08
78
88
88
74
ENDCHAR
STARTCHAR uni01D0
ENCODING 464
SWIDTH 500 0
DWIDTH 6 0
SWIDTH1 1000 0
BBX 3 10 2 0
BITMAP
A0
40
00
40
40
40
40
40
40
40
ENDCHAR
STARTCHAR uni01D2
ENCODING 466
SWIDTH 500 0
DWIDTH 6 0
SWIDTH1 1000 0
BBX 5 10 1 0
BITMAP
50
20
00
70
88
88
88
88
88
70
ENDCHAR
STARTCHAR uni01D4
ENCODING 468
SWIDTH 500 0
DWIDTH 6 0
SWIDTH1 1000 0
BBX 5 10 1 0
BITMAP
50
20
00
88
88
88
88
88
98
68
ENDCHAR
STARTCHAR uni01D6
ENCODING 470
SWIDTH 500 0
DWIDTH 6 0
SWIDTH1 1000 0
BBX 5 10 1 0
BITMAP
70
00
88
00
88
88
88
88
98
68
ENDCHAR
STARTCHAR uni01D8
ENCODING 472
SWIDTH 500 0
DWIDTH 6 0
SWIDTH1 1000 0
BBX 5 10 1 0
BITMAP
10
20
88
00
88
88
88
88
98
68
ENDCHAR
STARTCHAR uni01DA
ENCODING 474
SWIDTH 500 0
DWIDTH 6 0
SWIDTH1 1000 0
BBX 5 10 1 0
BITMAP
50
20
88
00
88
88
88
88
98
68
ENDCHAR
STARTCHAR uni01DC
ENCODING 476
SWIDTH 500 0
DWIDTH 6 0
SWIDTH1 1000 0
BBX 5 10 1 0
BITMAP
40
20
88
00
88
88
88
88
98
68
ENDCHAR
STARTCHAR uni01F9
ENCODING 505
SWIDTH 500 0
DWIDTH 6 0
SWIDTH1 1000 0
BBX 5 10 1 0
BITMAP
40
20
00
B0
C8
88
88
88
88
88
ENDCHAR
STARTCHAR uni0251
ENCODING 593
SWIDTH 500 0
DWIDTH 6 0
SWIDTH1 1000 0
BBX 6 6 1 0
BITMAP
70
88
38
48
88
7C
ENDCHAR
STARTCHAR uni0261
ENCODING 609
SWIDTH 500 0
DWIDTH 6 0
SWIDTH1 1000 0
BBX 5 8 1 -2
BITMAP
78
90
90
60
80
F0
88
70
ENDCHAR
STARTCHAR circumflex
ENCODING 710
SWIDTH 500 0
DWIDTH 6 0
SWIDTH1 1000 0
BBX 5 3 0 7
BITMAP
20
50
88
ENDCHAR
STARTCHAR caron
ENCODING 711
SWIDTH 1000 0
SWIDTH1 1000 0
BBX 5 3 4 7
BITMAP
88
50
20
ENDCHAR
STARTCHAR uni02C9
ENCODING 713
SWIDTH 1000 0
SWIDTH1 1000 0
BBX 7 1 3 8
BITMAP
FE
ENDCHAR
STARTCHAR uni02CA
ENCODING 714
SWIDTH 1000 0
SWIDTH1 1000 0
BBX 4 5 2 6
BITMAP
20
30
60
40
80
ENDCHAR
STARTCHAR uni02CB
ENCODING 715
SWIDTH 1000 0
SWIDTH1 1000 0
BBX 4 4 7 7
BITMAP
C0
60
20
10
ENDCHAR
STARTCHAR dotaccent
ENCODING 729
SWIDTH 1000 0
SWIDTH1 1000 0
BBX 2 2 6 5
BITMAP
C0
C0
ENDCHAR
STARTCHAR tilde
ENCODING 732
SWIDTH 500 0
DWIDTH 6 0
SWIDTH1 1000 0
BBX 6 2 0 8
BITMAP
64
98
ENDCHAR
STARTCHAR Alpha
ENCODING 913
SWIDTH 1000 0
SWIDTH1 1000 0
BBX 7 8 3 0
BITMAP
10
10
28
28
44
7C
82
82
ENDCHAR
STARTCHAR Beta
ENCODING 914
SWIDTH 1000 0
SWIDTH1 1000 0
BBX 7 8 3 0
BITMAP
F8
84
84
FC
82
82
82
FC
ENDCHAR
STARTCHAR Gamma
ENCODING 915
SWIDTH 1000 0
SWIDTH1 1000 0
BBX 6 8 3 0
BITMAP
FC
80
80
80
80
80
80
80
ENDCHAR
STARTCHAR uni0394
ENCODING 916
SWIDTH 1000 0
SWIDTH1 1000 0
BBX 7 8 3 0
BITMAP
10
10
28
28
44
44
82
FE
ENDCHAR
STARTCHAR Epsilon
ENCODING 917
SWIDTH 1000 0
SWIDTH1 1000 0
BBX 6 8 3 0
BITMAP
FC
80
80
FC
80
80
80
FC
ENDCHAR
STARTCHAR Zeta
ENCODING 918
SWIDTH 1000 0
SWIDTH1 1000 0
BBX 7 8 3 0
BITMAP
FE
04
08
10
20
40
80
FE
ENDCHAR
STARTCHAR Eta
ENCODING 919
SWIDTH 1000 0
SWIDTH1 1000 0
BBX 7 8 3 0
BITMAP
82
82
82
FE
82
82
82
82
ENDCHAR
STARTCHAR Theta
ENCODING 920
SWIDTH 1000 0
SWIDTH1 1000 0
BBX 8 8 2 0
BITMAP
3C
42
81
BD
81
81
42
3C
ENDCHAR
STARTCHAR Iota
ENCODING 921
SWIDTH 1000 0
SWIDTH1 1000 0
BBX 1 8 6 0
BITMAP
80
80
80
80
80
80
80
80
ENDCHAR
STARTCHAR Kappa
ENCODING 922
SWIDTH 1000 0
SWIDTH1 1000 0
BBX 7 8 3 0
BITMAP
84
88
90
A0
D0
88
84
82
ENDCHAR
STARTCHAR Lambda
ENCODING 923
SWIDTH 1000 0
SWIDTH1 1000 0
BBX 7 8 3 0
BITMAP
10
10
28
28
44
44
82
82
ENDCHAR
STARTCHAR Mu
ENCODING 924
SWIDTH 1000 0
SWIDTH1 1000 0
BBX 9 8 2 0
BITMAP
8080
C180
C180
A280
A280
9480
9480
8880
ENDCHAR
STARTCHAR Nu
ENCODING 925
SWIDTH 1000 0
SWIDTH1 1000 0
BBX 7 8 3 0
BITMAP
82
C2
A2
92
92
8A
86
82
ENDCHAR
STARTCHAR Xi
ENCODING 926
SWIDTH 1000 0
SWIDTH1 1000 0
BBX 8 8 2 0
BITMAP
FF
00
00
7E
00
00
00
FF
ENDCHAR
STARTCHAR Omicron
ENCODING 927
SWIDTH 1000 0
SWIDTH1 1000 0
BBX 8 8 2 0
BITMAP
3C
42
81
81
81
81
42
3C
ENDCHAR
STARTCHAR Pi
ENCODING 928
SWIDTH 1000 0
SWIDTH1 1000 0
BBX 6 8 3 0
BITMAP
FC
84
84
84
84
84
84
84
ENDCHAR
STARTCHAR Rho
ENCODING 929
SWIDTH 1000 0
SWIDTH1 1000 0
BBX 6 8 3 0
BITMAP
F8
84
84
84
F8
80
80
80
ENDCHAR
STARTCHAR Sigma
ENCODING 931
SWIDTH 1000 0
SWIDTH1 1000 0
BBX 7 8 2 0
BITMAP
FE
40
20
10
10
20
40
FE
ENDCHAR
STARTCHAR Tau
ENCODING 932
SWIDTH 1000 0
SWIDTH1 1000 0
BBX 7 8 3 0
BITMAP
FE
10
10
10
10
10
10
10
ENDCHAR
STARTCHAR Upsilon
ENCODING 933
SWIDTH 1000 0
SWIDTH1 1000 0
BBX 7 8 3 0
BITMAP
82
44
44
28
10
10
10
10
ENDCHAR
STARTCHAR Phi
ENCODING 934
SWIDTH 1000 0
SWIDTH1 1000 0
BBX 9 8 2 0
BITMAP
0800
3E00
4900
8880
8880
4900
3E00
0800
ENDCHAR
STARTCHAR Chi
ENCODING 935
SWIDTH 1000 0
SWIDTH1 1000 0
BBX 7 8 3 0
BITMAP
82
44
28
10
10
28
44
82
ENDCHAR
STARTCHAR Psi
ENCODING 936
SWIDTH 1000 0
SWIDTH1 1000 0
BBX 9 8 2 0
BITMAP
8880
4900
4900
4900
2A00
1C00
0800
0800
ENDCHAR
STARTCHAR uni03A9
ENCODING 937
SWIDTH 1000 0
SWIDTH1 1000 0
BBX 7 8 3 0
BITMAP
38
44
82
82
82
44
AA
EE
ENDCHAR
STARTCHAR alpha
ENCODING 945
SWIDTH 1000 0
SWIDTH1 1000 0
BBX 6 6 3 0
BITMAP
74
88
88
88
88
74
ENDCHAR
STARTCHAR beta
ENCODING 946
SWIDTH 1000 0
SWIDTH1 1000 0
BBX 5 10 4 -2
BITMAP
70
88
88
B0
88
88
C8
B0
80
80
ENDCHAR
STARTCHAR gamma
ENCODING 947
SWIDTH 1000 0
SWIDTH1 1000 0
BBX 5 8 4 -2
BITMAP
88
88
50
50
20
20
50
20
ENDCHAR
STARTCHAR delta
ENCODING 948
SWIDTH 1000 0
SWIDTH1 1000 0
BBX 6 8 3 0
BITMAP
38
44
30
48
84
84
48
30
ENDCHAR
STARTCHAR epsilon
ENCODING 949
SWIDTH 1000 0
SWIDTH1 1000 0
BBX 5 6 4 0
BITMAP
70
88
60
80
88
70
ENDCHAR
STARTCHAR zeta
ENCODING 950
SWIDTH 1000 0
SWIDTH1 1000 0
BBX 6 10 3 -2
BITMAP
F8
10
20
40
40
40
30
0C
04
38
ENDCHAR
STARTCHAR eta
ENCODING 951
SWIDTH 1000 0
SWIDTH1 1000 0
BBX 7 8 3 -2
BITMAP
B0
C8
88
88
88
88
0A
04
ENDCHAR
STARTCHAR theta
ENCODING 952
SWIDTH 1000 0
SWIDTH1 1000 0
BBX 8 8 2 0
BITMAP
3C
42
81
FF
81
81
42
3C
ENDCHAR
STARTCHAR iota
ENCODING 953
SWIDTH 1000 0
SWIDTH1 1000 0
BBX 4 6 4 0
BITMAP
80
80
80
80
90
60
ENDCHAR
STARTCHAR kappa
ENCODING 954
SWIDTH 1000 0
SWIDTH1 1000 0
BBX 6 6 4 0
BITMAP
88
90
A0
D0
88
84
ENDCHAR
STARTCHAR lambda
ENCODING 955
SWIDTH 1000 0
SWIDTH1 1000 0
BBX 8 8 3 0
BITMAP
C0
20
20
20
50
50
89
86
ENDCHAR
STARTCHAR uni03BC
ENCODING 956
SWIDTH 1000 0
SWIDTH1 1000 0
BBX 5 8 4 -2
BITMAP
88
88
88
88
98
E8
80
80
ENDCHAR
STARTCHAR nu
ENCODING 957
SWIDTH 1000 0
SWIDTH1 1000 0
BBX 6 6 3 0
BITMAP
C4
44
28
28
10
10
ENDCHAR
STARTCHAR xi
ENCODING 958
SWIDTH 1000 0
SWIDTH1 1000 0
BBX 6 10 3 -2
BITMAP
F8
10
60
10
20
40
40
38
04
38
ENDCHAR
STARTCHAR omicron
ENCODING 959
SWIDTH 1000 0
SWIDTH1 1000 0
BBX 6 6 3 0
BITMAP
30
48
84
84
48
30
ENDCHAR
STARTCHAR pi
ENCODING 960
SWIDTH 1000 0
SWIDTH1 1000 0
BBX 7 6 3 0
BITMAP
FE
28
28
28
28
C6
ENDCHAR
STARTCHAR rho
ENCODING 961
SWIDTH 1000 0
SWIDTH1 1000 0
BBX 6 8 3 -2
BITMAP
30
48
84
84
C8
B0
80
80
ENDCHAR
STARTCHAR sigma
ENCODING 963
SWIDTH 1000 0
SWIDTH1 1000 0
BBX 6 6 3 0
BITMAP
3C
48
84
84
48
30
ENDCHAR
STARTCHAR tau
ENCODING 964
SWIDTH 1000 0
SWIDTH1 1000 0
BBX 7 6 2 0
BITMAP
FE
10
10
10
12
0C
ENDCHAR
STARTCHAR upsilon
ENCODING 965
SWIDTH 1000 0
SWIDTH1 1000 0
BBX 5 6 4 0
BITMAP
90
88
88
88
88
70
ENDCHAR
STARTCHAR phi
ENCODING 966
SWIDTH 1000 0
SWIDTH1 1000 0
BBX 5 10 4 -2
BITMAP
20
20
70
A8
A8
A8
A8
70
20
20
ENDCHAR
STARTCHAR chi
ENCODING 967
SWIDTH 1000 0
SWIDTH1 1000 0
BBX 6 8 3 -2
BITMAP
64
24
28
10
10
28
48
8C
ENDCHAR
STARTCHAR psi
ENCODING 968
SWIDTH 1000 0
SWIDTH1 1000 0
BBX 7 8 3 -2
BITMAP
92
54
54
54
54
38
10
10
ENDCHAR
STARTCHAR omega
ENCODING 969
SWIDTH 1000 0
SWIDTH1 1000 0
BBX 7 6 3 0
BITMAP
44
82
92
92
92
6C
ENDCHAR
STARTCHAR uni0401
ENCODING 1025
SWIDTH 1000 0
SWIDTH1 1000 0
BBX 6 10 3 0
BITMAP
28
00
FC
80
80
FC
80
80
80
FC
ENDCHAR
STARTCHAR uni0410
ENCODING 1040
SWIDTH 1000 0
SWIDTH1 1000 0
BBX 7 8 3 0
BITMAP
10
10
28
28
44
7C
82
82
ENDCHAR
STARTCHAR uni0411
ENCODING 1041
SWIDTH 1000 0
SWIDTH1 1000 0
BBX 7 8 3 0
BITMAP
FC
80
80
FC
82
82
82
FC
ENDCHAR
STARTCHAR uni0412
ENCODING 1042
SWIDTH 1000 0
SWIDTH1 1000 0
BBX 7 8 3 0
BITMAP
F8
84
84
FC
82
82
82
FC
ENDCHAR
STARTCHAR uni0413
ENCODING 1043
SWIDTH 1000 0
SWIDTH1 1000 0
BBX 6 8 3 0
BITMAP
FC
80
80
80
80
80
80
80
ENDCHAR
STARTCHAR uni0414
ENCODING 1044
SWIDTH 1000 0
SWIDTH1 1000 0
BBX 8 10 2 -2
BITMAP
3E
22
22
22
22
42
42
7E
81
81
ENDCHAR
STARTCHAR uni0415
ENCODING 1045
SWIDTH 1000 0
SWIDTH1 1000 0
BBX 6 8 3 0
BITMAP
FC
80
80
FC
80
80
80
FC
ENDCHAR
STARTCHAR uni0416
ENCODING 1046
SWIDTH 1000 0
SWIDTH1 1000 0
BBX 11 8 1 0
BITMAP
C460
2480
1500
1F00
1500
1500
2480
C460
ENDCHAR
STARTCHAR uni0417
ENCODING 1047
SWIDTH 1000 0
SWIDTH1 1000 0
BBX 5 8 3 0
BITMAP
70
88
08
70
08
08
88
70
ENDCHAR
STARTCHAR uni0418
ENCODING 1048
SWIDTH 1000 0
SWIDTH1 1000 0
BBX 7 8 3 0
BITMAP
82
86
8A
92
A2
C2
82
82
ENDCHAR
STARTCHAR uni0419
ENCODING 1049
SWIDTH 1000 0
SWIDTH1 1000 0
BBX 7 10 3 0
BITMAP
6C
38
82
86
8A
92
A2
C2
82
82
ENDCHAR
STARTCHAR uni041A
ENCODING 1050
SWIDTH 1000 0
SWIDTH1 1000 0
BBX 7 8 3 0
BITMAP
84
88
90
A0
D0
88
84
82
ENDCHAR
STARTCHAR uni041B
ENCODING 1051
SWIDTH 1000 0
SWIDTH1 1000 0
BBX 7 8 2 0
BITMAP
3E
22
22
22
22
22
22
C2
ENDCHAR
STARTCHAR uni041C
ENCODING 1052
SWIDTH 1000 0
SWIDTH1 1000 0
BBX 9 8 2 0
BITMAP
8080
C180
C180
A280
A280
9480
9480
8880
ENDCHAR
STARTCHAR uni041D
ENCODING 1053
SWIDTH 1000 0
SWIDTH1 1000 0
BBX 7 8 3 0
BITMAP
82
82
82
FE
82
82
82
82
ENDCHAR
STARTCHAR uni041E
ENCODING 1054
SWIDTH 1000 0
SWIDTH1 1000 0
BBX 8 8 2 0
BITMAP
3C
42
81
81
81
81
42
3C
ENDCHAR
STARTCHAR uni041F
ENCODING 1055
SWIDTH 1000 0
SWIDTH1 1000 0
BBX 7 8 3 0
BITMAP
FE
82
82
82
82
82
82
82
ENDCHAR
STARTCHAR uni0420
ENCODING 1056
SWIDTH 1000 0
SWIDTH1 1000 0
BBX 6 8 3 0
BITMAP
F8
84
84
84
F8
80
80
80
ENDCHAR
STARTCHAR uni0421
ENCODING 1057
SWIDTH 1000 0
SWIDTH1 1000 0
BBX 7 8 2 0
BITMAP
3C
42
80
80
80
80
42
3C
ENDCHAR
STARTCHAR uni0422
ENCODING 1058
SWIDTH 1000 0
SWIDTH1 1000 0
BBX 7 8 3 0
BITMAP
FE
10
10
10
10
10
10
10
ENDCHAR
STARTCHAR uni0423
ENCODING 1059
SWIDTH 1000 0
SWIDTH1 1000 0
BBX 5 8 4 0
BITMAP
88
88
88
50
50
20
20
C0
ENDCHAR
STARTCHAR uni0424
ENCODING 1060
SWIDTH 1000 0
SWIDTH1 1000 0
BBX 7 8 3 0
BITMAP
10
38
54
92
92
54
38
10
ENDCHAR
STARTCHAR uni0425
ENCODING 1061
SWIDTH 1000 0
SWIDTH1 1000 0
BBX 7 9 3 0
BITMAP
82
44
44
28
10
28
44
44
82
ENDCHAR
STARTCHAR uni0426
ENCODING 1062
SWIDTH 1000 0
SWIDTH1 1000 0
BBX 8 10 2 -2
BITMAP
82
82
82
82
82
82
82
FE
01
01
ENDCHAR
STARTCHAR uni0427
ENCODING 1063
SWIDTH 1000 0
SWIDTH1 1000 0
BBX 5 8 3 0
BITMAP
88
88
88
98
68
08
08
08
ENDCHAR
STARTCHAR uni0428
ENCODING 1064
SWIDTH 1000 0
SWIDTH1 1000 0
BBX 9 8 2 0
BITMAP
8880
8880
8880
8880
8880
8880
8880
FF80
ENDCHAR
STARTCHAR uni0429
ENCODING 1065
SWIDTH 1000 0
SWIDTH1 1000 0
BBX 10 10 1 -2
BITMAP
8880
8880
8880
8880
8880
8880
8880
FFC0
0040
0040
ENDCHAR
STARTCHAR uni042A
ENCODING 1066
SWIDTH 1000 0
SWIDTH1 1000 0
BBX 8 8 2 0
BITMAP
E0
20
20
3E
21
21
21
3E
ENDCHAR
STARTCHAR uni042B
ENCODING 1067
SWIDTH 1000 0
SWIDTH1 1000 0
BBX 8 8 2 0
BITMAP
81
81
81
F9
85
85
85
F9
ENDCHAR
STARTCHAR uni042C
ENCODING 1068
SWIDTH 1000 0
SWIDTH1 1000 0
BBX 6 8 3 0
BITMAP
80
80
80
F8
84
84
84
F8
ENDCHAR
STARTCHAR uni042D
ENCODING 1069
SWIDTH 1000 0
SWIDTH1 1000 0
BBX 7 8 3 0
BITMAP
78
84
02
3E
02
02
84
78
ENDCHAR
STARTCHAR uni042E
ENCODING 1070
SWIDTH 1000 0
SWIDTH1 1000 0
BBX 10 8 1 0
BITMAP
8F00
9080
A040
E040
A040
A040
9080
8F00
ENDCHAR
STARTCHAR uni042F
ENCODING 1071
SWIDTH 1000 0
SWIDTH1 1000 0
BBX 7 8 2 0
BITMAP
7E
82
82
82
7E
82
82
82
ENDCHAR
STARTCHAR uni0430
ENCODING 1072
SWIDTH 1000 0
SWIDTH1 1000 0
BBX 6 6 3 0
BITMAP
70
88
78
88
88
74
ENDCHAR
STARTCHAR uni0431
ENCODING 1073
SWIDTH 1000 0
SWIDTH1 1000 0
BBX 7 9 2 0
BITMAP
04
18
20
78
44
82
82
44
38
ENDCHAR
STARTCHAR uni0432
ENCODING 1074
SWIDTH 1000 0
SWIDTH1 1000 0
BBX 6 6 3 0
BITMAP
F8
84
F8
84
84
F8
ENDCHAR
STARTCHAR uni0433
ENCODING 1075
SWIDTH 1000 0
SWIDTH1 1000 0
BBX 5 6 4 0
BITMAP
F8
80
80
80
80
80
ENDCHAR
STARTCHAR uni0434
ENCODING 1076
SWIDTH 1000 0
SWIDTH1 1000 0
BBX 7 8 2 -2
BITMAP
3C
24
24
44
44
7C
82
82
ENDCHAR
STARTCHAR uni0435
ENCODING 1077
SWIDTH 1000 0
SWIDTH1 1000 0
BBX 5 6 3 0
BITMAP
30
48
F8
80
48
30
ENDCHAR
STARTCHAR uni0436
ENCODING 1078
SWIDTH 1000 0
SWIDTH1 1000 0
BBX 7 6 3 0
BITMAP
92
54
7C
54
54
92
ENDCHAR
STARTCHAR uni0437
ENCODING 1079
SWIDTH 1000 0
SWIDTH1 1000 0
BBX 5 6 3 0
BITMAP
70
88
30
08
88
70
ENDCHAR
STARTCHAR uni0438
ENCODING 1080
SWIDTH 1000 0
SWIDTH1 1000 0
BBX 6 6 3 0
BITMAP
84
8C
94
A4
C4
84
ENDCHAR
STARTCHAR uni0439
ENCODING 1081
SWIDTH 1000 0
SWIDTH1 1000 0
BBX 6 8 3 0
BITMAP
D8
70
84
8C
94
A4
C4
84
ENDCHAR
STARTCHAR uni043A
ENCODING 1082
SWIDTH 1000 0
SWIDTH1 1000 0
BBX 6 6 3 0
BITMAP
88
90
A0
D0
88
84
ENDCHAR
STARTCHAR uni043B
ENCODING 1083
SWIDTH 1000 0
SWIDTH1 1000 0
BBX 6 6 3 0
BITMAP
7C
44
44
44
44
84
ENDCHAR
STARTCHAR uni043C
ENCODING 1084
SWIDTH 1000 0
SWIDTH1 1000 0
BBX 7 6 3 0
BITMAP
82
C6
C6
AA
AA
92
ENDCHAR
STARTCHAR uni043D
ENCODING 1085
SWIDTH 1000 0
SWIDTH1 1000 0
BBX 6 6 3 0
BITMAP
84
84
FC
84
84
84
ENDCHAR
STARTCHAR uni043E
ENCODING 1086
SWIDTH 1000 0
SWIDTH1 1000 0
BBX 6 6 3 0
BITMAP
30
48
84
84
48
30
ENDCHAR
STARTCHAR uni043F
ENCODING 1087
SWIDTH 1000 0
SWIDTH1 1000 0
BBX 6 6 3 0
BITMAP
FC
84
84
84
84
84
ENDCHAR
STARTCHAR uni0440
ENCODING 1088
SWIDTH 1000 0
SWIDTH1 1000 0
BBX 6 8 3 -2
BITMAP
B0
C8
84
84
C8
B0
80
80
ENDCHAR
STARTCHAR uni0441
ENCODING 1089
SWIDTH 1000 0
SWIDTH1 1000 0
BBX 5 6 3 0
BITMAP
30
48
80
80
48
30
ENDCHAR
STARTCHAR uni0442
ENCODING 1090
SWIDTH 1000 0
SWIDTH1 1000 0
BBX 7 6 3 0
BITMAP
FE
10
10
10
10
10
ENDCHAR
STARTCHAR uni0443
ENCODING 1091
SWIDTH 1000 0
SWIDTH1 1000 0
BBX 5 8 4 -2
BITMAP
88
88
88
50
50
20
20
C0
ENDCHAR
STARTCHAR uni0444
ENCODING 1092
SWIDTH 1000 0
SWIDTH1 1000 0
BBX 7 10 3 -2
BITMAP
10
10
54
BA
92
92
BA
54
10
10
ENDCHAR
STARTCHAR uni0445
ENCODING 1093
SWIDTH 1000 0
SWIDTH1 1000 0
BBX 5 6 4 0
BITMAP
88
50
20
50
88
88
ENDCHAR
STARTCHAR uni0446
ENCODING 1094
SWIDTH 1000 0
SWIDTH1 1000 0
BBX 6 8 3 -2
BITMAP
88
88
88
88
88
F8
04
04
ENDCHAR
STARTCHAR uni0447
ENCODING 1095
SWIDTH 1000 0
SWIDTH1 1000 0
BBX 5 6 3 0
BITMAP
88
88
98
68
08
08
ENDCHAR
STARTCHAR uni0448
ENCODING 1096
SWIDTH 1000 0
SWIDTH1 1000 0
BBX 9 6 2 0
BITMAP
8880
8880
8880
8880
8880
FF80
ENDCHAR
STARTCHAR uni0449
ENCODING 1097
SWIDTH 1000 0
SWIDTH1 1000 0
BBX 10 8 1 -2
BITMAP
8880
8880
8880
8880
8880
FFC0
0040
0040
ENDCHAR
STARTCHAR uni044A
ENCODING 1098
SWIDTH 1000 0
SWIDTH1 1000 0
BBX 7 6 2 0
BITMAP
E0
20
3C
22
22
3C
ENDCHAR
STARTCHAR uni044B
ENCODING 1099
SWIDTH 1000 0
SWIDTH1 1000 0
BBX 7 6 3 0
BITMAP
82
82
F2
8A
8A
F2
ENDCHAR
STARTCHAR uni044C
ENCODING 1100
SWIDTH 1000 0
SWIDTH1 1000 0
BBX 5 6 4 0
BITMAP
80
80
F0
88
88
F0
ENDCHAR
STARTCHAR uni044D
ENCODING 1101
SWIDTH 1000 0
SWIDTH1 1000 0
BBX 5 6 3 0
BITMAP
70
88
38
08
88
70
ENDCHAR
STARTCHAR uni044E
ENCODING 1102
SWIDTH 1000 0
SWIDTH1 1000 0
BBX 8 6 2 0
BITMAP
8C
92
E1
A1
92
8C
ENDCHAR
STARTCHAR uni044F
ENCODING 1103
SWIDTH 1000 0
SWIDTH1 1000 0
BBX 5 6 3 0
BITMAP
78
88
88
78
88
88
ENDCHAR
STARTCHAR uni0451
ENCODING 1105
SWIDTH 1000 0
SWIDTH1 1000 0
BBX 5 8 3 0
BITMAP
50
00
30
48
F8
80
48
30
ENDCHAR
STARTCHAR uni2010
ENCODING 8208
SWIDTH 1000 0
SWIDTH1 1000 0
BBX 4 1 4 4
BITMAP
F0
ENDCHAR
STARTCHAR endash
ENCODING 8211
SWIDTH 1000 0
SWIDTH1 1000 0
BBX 6 1 3 4
BITMAP
FC
ENDCHAR
STARTCHAR emdash
ENCODING 8212
SWIDTH 1000 0
SWIDTH1 1000 0
BBX 12 1 0 4
BITMAP
FFF0
ENDCHAR
STARTCHAR uni2015
ENCODING 8213
SWIDTH 1000 0
SWIDTH1 1000 0
BBX 10 1 1 4
BITMAP
FFC0
ENDCHAR
STARTCHAR uni2016
ENCODING 8214
SWIDTH 1000 0
SWIDTH1 1000 0
BBX 4 12 4 -1
BITMAP
90
90
90
90
90
90
90
90
90
90
90
90
ENDCHAR
STARTCHAR quoteleft
ENCODING 8216
SWIDTH 1000 0
SWIDTH1 1000 0
BBX 2 4 9 6
BITMAP
40
80
C0
C0
ENDCHAR
STARTCHAR quoteright
ENCODING 8217
SWIDTH 1000 0
SWIDTH1 1000 0
BBX 2 4 1 6
BITMAP
C0
C0
40
80
ENDCHAR
STARTCHAR quotesinglbase
ENCODING 8218
SWIDTH 500 0
DWIDTH 6 0
SWIDTH1 1000 0
BBX 1 1 0 0
BITMAP
00
ENDCHAR
STARTCHAR quotedblleft
ENCODING 8220
SWIDTH 1000 0
SWIDTH1 1000 0
BBX 5 4 6 6
BITMAP
48
90
D8
D8
ENDCHAR
STARTCHAR quotedblright
ENCODING 8221
SWIDTH 1000 0
SWIDTH1 1000 0
BBX 5 4 1 6
BITMAP
D8
D8
48
90
ENDCHAR
STARTCHAR quotedblbase
ENCODING 8222
SWIDTH 500 0
DWIDTH 6 0
SWIDTH1 1000 0
BBX 1 1 0 0
BITMAP
00
ENDCHAR
STARTCHAR dagger
ENCODING 8224
SWIDTH 500 0
DWIDTH 6 0
SWIDTH1 1000 0
BBX 5 12 1 -3
BITMAP
20
70
20
F8
20
20
20
70
20
20
20
20
ENDCHAR
STARTCHAR daggerdbl
ENCODING 8225
SWIDTH 500 0
DWIDTH 6 0
SWIDTH1 1000 0
BBX 5 12 1 -3
BITMAP
20
70
20
F8
20
70
20
20
F8
20
20
20
ENDCHAR
STARTCHAR bullet
ENCODING 8226
SWIDTH 500 0
DWIDTH 6 0
SWIDTH1 1000 0
BBX 3 3 2 4
BITMAP
40
E0
40
ENDCHAR
STARTCHAR twodotenleader
ENCODING 8229
SWIDTH 1000 0
SWIDTH1 1000 0
BBX 7 2 3 4
BITMAP
C6
C6
ENDCHAR
STARTCHAR ellipsis
ENCODING 8230
SWIDTH 1000 0
SWIDTH1 1000 0
BBX 10 2 1 4
BITMAP
CCC0
CCC0
ENDCHAR
STARTCHAR perthousand
ENCODING 8240
SWIDTH 1000 0
SWIDTH1 1000 0
BBX 12 10 0 0
BITMAP
4080
A100
A200
A400
4800
1220
2550
4550
8550
0220
ENDCHAR
STARTCHAR minute
ENCODING 8242
SWIDTH 1000 0
SWIDTH1 1000 0
BBX 2 4 1 6
BITMAP
40
40
80
80
ENDCHAR
STARTCHAR second
ENCODING 8243
SWIDTH 1000 0
SWIDTH1 1000 0
BBX 4 4 2 6
BITMAP
50
50
A0
A0
ENDCHAR
STARTCHAR uni2035
ENCODING 8245
SWIDTH 1000 0
SWIDTH1 1000 0
BBX 2 4 5 7
BITMAP
80
80
40
40
ENDCHAR
STARTCHAR guilsinglleft
ENCODING 8249
SWIDTH 500 0
DWIDTH 6 0
SWIDTH1 1000 0
BBX 2 4 1 2
BITMAP
40
80
80
40
ENDCHAR
STARTCHAR guilsinglright
ENCODING 8250
SWIDTH 500 0
DWIDTH 6 0
SWIDTH1 1000 0
BBX 2 5 1 1
BITMAP
80
40
40
80
80
ENDCHAR
STARTCHAR uni203B
ENCODING 8251
SWIDTH 1000 0
SWIDTH1 1000 0
BBX 10 10 1 0
BITMAP
8C40
4C80
2100
1200
CCC0
CCC0
1200
2100
4C80
8C40
ENDCHAR
STARTCHAR Euro
ENCODING 8364
SWIDTH 1000 0
SWIDTH1 1000 0
BBX 8 9 2 0
BITMAP
1D
23
61
FC
60
FC
60
21
1E
ENDCHAR
STARTCHAR uni2103
ENCODING 8451
SWIDTH 1000 0
SWIDTH1 1000 0
BBX 10 10 1 0
BITMAP
C740
C8C0
1040
1040
1000
1000
1000
1040
0880
0700
ENDCHAR
STARTCHAR uni2105
ENCODING 8453
SWIDTH 1000 0
SWIDTH1 1000 0
BBX 9 12 2 -1
BITMAP
0200
6200
9400
8400
8800
6800
1300
1480
2880
2900
4600
4000
ENDCHAR
STARTCHAR uni2109
ENCODING 8457
SWIDTH 1000 0
SWIDTH1 1000 0
BBX 11 10 0 0
BITMAP
EFE0
A420
E400
0480
0780
0480
0400
0400
0400
0E00
ENDCHAR
STARTCHAR uni2116
ENCODING 8470
SWIDTH 1000 0
SWIDTH1 1000 0
BBX 11 9 0 1
BITMAP
C700
4200
6200
52E0
52A0
4AA0
4AE0
4600
E2E0
ENDCHAR
STARTCHAR uni2121
ENCODING 8481
SWIDTH 1000 0
SWIDTH1 1000 0
BBX 9 3 1 7
BITMAP
ED00
4900
4D80
ENDCHAR
STARTCHAR trademark
ENCODING 8482
SWIDTH 500 0
DWIDTH 6 0
SWIDTH1 1000 0
BBX 6 5 0 5
BITMAP
F4
5C
54
54
54
ENDCHAR
STARTCHAR uni2160
ENCODING 8544
SWIDTH 1000 0
SWIDTH1 1000 0
BBX 3 10 4 0
BITMAP
E0
40
40
40
40
40
40
40
40
E0
ENDCHAR
STARTCHAR uni2161
ENCODING 8545
SWIDTH 1000 0
SWIDTH1 1000 0
BBX 6 10 3 0
BITMAP
FC
48
48
48
48
48
48
48
48
FC
ENDCHAR
STARTCHAR uni2162
ENCODING 8546
SWIDTH 1000 0
SWIDTH1 1000 0
BBX 9 10 1 0
BITMAP
FF80
4900
4900
4900
4900
4900
4900
4900
4900
FF80
ENDCHAR
STARTCHAR uni2163
ENCODING 8547
SWIDTH 1000 0
SWIDTH1 1000 0
BBX 11 10 0 0
BITMAP
F8E0
5040
5040
4880
4880
4880
4500
4500
4200
E200
ENDCHAR
STARTCHAR uni2164
ENCODING 8548
SWIDTH 1000 0
SWIDTH1 1000 0
BBX 9 10 1 0
BITMAP
E380
4100
4100
2200
2200
2200
1400
1400
0800
0800
ENDCHAR
STARTCHAR uni2165
ENCODING 8549
SWIDTH 1000 0
SWIDTH1 1000 0
BBX 11 10 0 0
BITMAP
E3E0
4140
4140
2240
2240
2240
1440
1440
0840
08E0
ENDCHAR
STARTCHAR uni2166
ENCODING 8550
SWIDTH 1000 0
SWIDTH1 1000 0
BBX 12 10 0 0
BITMAP
EFF0
4520
4520
4520
2920
2920
2920
2920
1120
13F0
ENDCHAR
STARTCHAR uni2167
ENCODING 8551
SWIDTH 1000 0
SWIDTH1 1000 0
BBX 12 10 0 0
BITMAP
EFF0
4550
4550
4550
2950
2950
2950
2950
1150
13F0
ENDCHAR
STARTCHAR uni2168
ENCODING 8552
SWIDTH 1000 0
SWIDTH1 1000 0
BBX 10 10 1 0
BITMAP
FDC0
4880
4500
4500
4200
4200
4500
4500
4880
FDC0
ENDCHAR
STARTCHAR uni2169
ENCODING 8553
SWIDTH 1000 0
SWIDTH1 1000 0
BBX 8 10 2 0
BITMAP
E7
42
24
24
18
18
24
24
42
E7
ENDCHAR
STARTCHAR uni216A
ENCODING 8554
SWIDTH 1000 0
SWIDTH1 1000 0
BBX 11 9 1 1
BITMAP
EEE0
4440
2840
2840
1040
2840
2840
4440
EEE0
ENDCHAR
STARTCHAR uni216B
ENCODING 8555
SWIDTH 1000 0
SWIDTH1 1000 0
BBX 11 9 1 1
BITMAP
EFE0
4540
2940
2940
1140
2940
2940
4540
EFE0
ENDCHAR
STARTCHAR uni2170
ENCODING 8560
SWIDTH 1000 0
SWIDTH1 1000 0
BBX 3 10 4 0
BITMAP
40
40
00
C0
40
40
40
40
40
E0
ENDCHAR
STARTCHAR uni2171
ENCODING 8561
SWIDTH 1000 0
SWIDTH1 1000 0
BBX 6 10 3 0
BITMAP
48
48
00
D8
48
48
48
48
48
FC
ENDCHAR
STARTCHAR uni2172
ENCODING 8562
SWIDTH 1000 0
SWIDTH1 1000 0
BBX 9 10 1 0
BITMAP
4900
4900
0000
DB00
4900
4900
4900
4900
4900
FF80
ENDCHAR
STARTCHAR uni2173
ENCODING 8563
SWIDTH 1000 0
SWIDTH1 1000 0
BBX 11 10 0 0
BITMAP
4000
4000
0000
F8E0
5040
4880
4880
4500
4500
E200
ENDCHAR
STARTCHAR uni2174
ENCODING 8564
SWIDTH 1000 0
SWIDTH1 1000 0
BBX 9 7 1 0
BITMAP
E380
4100
2200
2200
1400
1400
0800
ENDCHAR
STARTCHAR uni2175
ENCODING 8565
SWIDTH 1000 0
SWIDTH1 1000 0
BBX 11 10 0 0
BITMAP
0040
0040
0000
E3C0
4140
2240
2240
1440
1440
08E0
ENDCHAR
STARTCHAR uni2176
ENCODING 8566
SWIDTH 1000 0
SWIDTH1 1000 0
BBX 11 10 0 0
BITMAP
0140
0140
0000
EFC0
4540
4540
2940
2940
2940
13E0
ENDCHAR
STARTCHAR uni2177
ENCODING 8567
SWIDTH 1000 0
SWIDTH1 1000 0
BBX 12 10 0 0
BITMAP
02A0
02A0
0000
DFE0
8AA0
8AA0
52A0
52A0
52A0
27F0
ENDCHAR
STARTCHAR uni2178
ENCODING 8568
SWIDTH 1000 0
SWIDTH1 1000 0
BBX 10 10 0 0
BITMAP
4000
4000
0000
DDC0
4880
4500
4200
4500
4880
FDC0
ENDCHAR
STARTCHAR uni2179
ENCODING 8569
SWIDTH 1000 0
SWIDTH1 1000 0
BBX 7 7 2 0
BITMAP
EE
44
28
10
28
44
EE
ENDCHAR
STARTCHAR arrowleft
ENCODING 8592
SWIDTH 1000 0
SWIDTH1 1000 0
BBX 12 5 0 3
BITMAP
2000
4000
FFF0
4000
2000
ENDCHAR
STARTCHAR arrowup
ENCODING 8593
SWIDTH 1000 0
SWIDTH1 1000 0
BBX 5 12 4 -1
BITMAP
20
70
A8
20
20
20
20
20
20
20
20
20
ENDCHAR
STARTCHAR arrowright
ENCODING 8594
SWIDTH 1000 0
SWIDTH1 1000 0
BBX 12 5 0 3
BITMAP
0040
0020
FFF0
0020
0040
ENDCHAR
STARTCHAR arrowdown
ENCODING 8595
SWIDTH 1000 0
SWIDTH1 1000 0
BBX 5 12 4 -1
BITMAP
20
20
20
20
20
20
20
20
20
A8
70
20
ENDCHAR
STARTCHAR uni2196
ENCODING 8598
SWIDTH 1000 0
SWIDTH1 1000 0
BBX 9 9 2 -1
BITMAP
F800
C000
A000
9000
8800
0400
0200
0100
0080
ENDCHAR
STARTCHAR uni2197
ENCODING 8599
SWIDTH 1000 0
SWIDTH1 1000 0
BBX 9 9 2 0
BITMAP
0F80
0180
0280
0480
0880
1000
2000
4000
8000
ENDCHAR
STARTCHAR uni2198
ENCODING 8600
SWIDTH 1000 0
SWIDTH1 1000 0
BBX 9 9 2 -1
BITMAP
8000
4000
2000
1000
0880
0480
0280
0180
0F80
ENDCHAR
STARTCHAR uni2199
ENCODING 8601
SWIDTH 1000 0
SWIDTH1 1000 0
BBX 9 9 2 0
BITMAP
0080
0100
0200
0400
8800
9000
A000
C000
F000
ENDCHAR
STARTCHAR element
ENCODING 8712
SWIDTH 1000 0
SWIDTH1 1000 0
BBX 9 9 2 1
BITMAP
3F80
4000
8000
8000
FF80
8000
8000
4000
3F80
ENDCHAR
STARTCHAR product
ENCODING 8719
SWIDTH 1000 0
SWIDTH1 1000 0
BBX 5 10 0 0
BITMAP
F8
88
88
88
88
88
88
88
88
88
ENDCHAR
STARTCHAR summation
ENCODING 8721
SWIDTH 1000 0
SWIDTH1 1000 0
BBX 8 10 2 0
BITMAP
FF
40
20
10
08
08
10
20
40
FF
ENDCHAR
STARTCHAR uni2215
ENCODING 8725
SWIDTH 1000 0
SWIDTH1 1000 0
BBX 6 10 0 0
BITMAP
04
04
08
08
10
20
20
40
80
80
ENDCHAR
STARTCHAR radical
ENCODING 8730
SWIDTH 1000 0
SWIDTH1 1000 0
BBX 12 12 0 -1
BITMAP
07F0
0400
0400
0400
0800
0800
2800
6800
B000
1000
1000
1000
ENDCHAR
STARTCHAR proportional
ENCODING 8733
SWIDTH 1000 0
SWIDTH1 1000 0
BBX 11 5 0 3
BITMAP
71C0
8A20
8400
8A20
71C0
ENDCHAR
STARTCHAR infinity
ENCODING 8734
SWIDTH 1000 0
SWIDTH1 1000 0
BBX 11 5 0 3
BITMAP
71C0
8A20
8420
8A20
71C0
ENDCHAR
STARTCHAR orthogonal
ENCODING 8735
SWIDTH 1000 0
SWIDTH1 1000 0
BBX 9 9 2 1
BITMAP
8000
8000
8000
8000
8000
8000
8000
8000
FF80
ENDCHAR
STARTCHAR angle
ENCODING 8736
SWIDTH 1000 0
SWIDTH1 1000 0
BBX 9 9 2 1
BITMAP
0080
0100
0200
0400
0800
1000
2000
4000
FF80
ENDCHAR
STARTCHAR uni2223
ENCODING 8739
SWIDTH 1000 0
SWIDTH1 1000 0
BBX 1 13 6 -2
BITMAP
80
80
80
80
80
80
80
80
80
80
80
80
80
ENDCHAR
STARTCHAR uni2225
ENCODING 8741
SWIDTH 1000 0
SWIDTH1 1000 0
BBX 6 11 3 -1
BITMAP
24
24
24
24
48
48
48
48
90
90
90
ENDCHAR
STARTCHAR logicaland
ENCODING 8743
SWIDTH 1000 0
SWIDTH1 1000 0
BBX 9 10 2 0
BITMAP
0800
0800
1400
1400
2200
2200
4100
4100
8080
8080
ENDCHAR
STARTCHAR logicalor
ENCODING 8744
SWIDTH 1000 0
SWIDTH1 1000 0
BBX 9 10 2 0
BITMAP
8080
8080
4100
4100
2200
2200
1400
1400
0800
0800
ENDCHAR
STARTCHAR intersection
ENCODING 8745
SWIDTH 1000 0
SWIDTH1 1000 0
BBX 8 10 2 0
BITMAP
3C
42
81
81
81
81
81
81
81
81
ENDCHAR
STARTCHAR union
ENCODING 8746
SWIDTH 1000 0
SWIDTH1 1000 0
BBX 8 10 2 0
BITMAP
81
81
81
81
81
81
81
81
42
3C
ENDCHAR
STARTCHAR integral
ENCODING 8747
SWIDTH 1000 0
SWIDTH1 1000 0
BBX 5 12 4 -1
BITMAP
30
48
40
40
20
20
20
20
10
10
90
60
ENDCHAR
STARTCHAR uni222E
ENCODING 8750
SWIDTH 1000 0
SWIDTH1 1000 0
BBX 5 12 3 -1
BITMAP
30
50
40
40
70
A8
A8
70
10
10
50
60
ENDCHAR
STARTCHAR therefore
ENCODING 8756
SWIDTH 1000 0
SWIDTH1 1000 0
BBX 8 8 2 1
BITMAP
18
18
00
00
00
00
C3
C3
ENDCHAR
STARTCHAR uni2235
ENCODING 8757
SWIDTH 1000 0
SWIDTH1 1000 0
BBX 8 8 2 1
BITMAP
C3
C3
00
00
00
00
18
18
ENDCHAR
STARTCHAR uni2236
ENCODING 8758
SWIDTH 1000 0
SWIDTH1 1000 0
BBX 2 8 5 1
BITMAP
C0
C0
00
00
00
00
C0
C0
ENDCHAR
STARTCHAR uni2237
ENCODING 8759
SWIDTH 1000 0
SWIDTH1 1000 0
BBX 8 8 2 1
BITMAP
C3
C3
00
00
00
00
C3
C3
ENDCHAR
STARTCHAR uni223D
ENCODING 8765
SWIDTH 1000 0
SWIDTH1 1000 0
BBX 10 4 1 3
BITMAP
4380
8440
8840
7080
ENDCHAR
STARTCHAR approxequal
ENCODING 8776
SWIDTH 1000 0
SWIDTH1 1000 0
BBX 10 6 1 2
BITMAP
7000
8840
0780
7000
8C40
0380
ENDCHAR
STARTCHAR uni224C
ENCODING 8780
SWIDTH 1000 0
SWIDTH1 1000 0
BBX 10 9 1 0
BITMAP
6380
8440
8840
9040
6080
0000
FFC0
0000
FFC0
ENDCHAR
STARTCHAR uni2252
ENCODING 8786
SWIDTH 1000 0
SWIDTH1 1000 0
BBX 8 7 2 2
BITMAP
80
00
FF
00
FF
00
01
ENDCHAR
STARTCHAR notequal
ENCODING 8800
SWIDTH 1000 0
SWIDTH1 1000 0
BBX 10 8 1 1
BITMAP
0100
0200
FFC0
0400
0800
FFC0
1000
2000
ENDCHAR
STARTCHAR equivalence
ENCODING 8801
SWIDTH 1000 0
SWIDTH1 1000 0
BBX 10 5 1 2
BITMAP
FFC0
0000
FFC0
0000
FFC0
ENDCHAR
STARTCHAR lessequal
ENCODING 8804
SWIDTH 1000 0
SWIDTH1 1000 0
BBX 10 10 1 0
BITMAP
00C0
0700
3800
C000
3800
0700
C0C0
3800
0700
00C0
ENDCHAR
STARTCHAR greaterequal
ENCODING 8805
SWIDTH 1000 0
SWIDTH1 1000 0
BBX 10 10 1 0
BITMAP
C000
3800
0700
00C0
0700
3800
C0C0
0700
3800
C000
ENDCHAR
STARTCHAR uni2266
ENCODING 8806
SWIDTH 1000 0
SWIDTH1 1000 0
BBX 8 8 2 1
BITMAP
0F
F0
18
07
00
FF
00
FF
ENDCHAR
STARTCHAR uni2267
ENCODING 8807
SWIDTH 1000 0
SWIDTH1 1000 0
BBX 8 8 2 1
BITMAP
E0
18
07
F8
00
FF
00
FF
ENDCHAR
STARTCHAR uni226E
ENCODING 8814
SWIDTH 1000 0
SWIDTH1 1000 0
BBX 10 10 1 0
BITMAP
0800
0840
0980
0E00
3800
C800
3800
0E00
0980
0840
ENDCHAR
STARTCHAR uni226F
ENCODING 8815
SWIDTH 1000 0
SWIDTH1 1000 0
BBX 10 10 1 0
BITMAP
0400
8400
6400
1C00
0700
04C0
0700
1C00
6400
8400
ENDCHAR
STARTCHAR circleplus
ENCODING 8853
SWIDTH 1000 0
SWIDTH1 1000 0
BBX 7 7 3 1
BITMAP
38
54
92
FE
92
54
38
ENDCHAR
STARTCHAR uni2299
ENCODING 8857
SWIDTH 1000 0
SWIDTH1 1000 0
BBX 10 10 1 0
BITMAP
3F00
4080
8040
8040
8C40
8C40
8040
8040
4080
3F00
ENDCHAR
STARTCHAR perpendicular
ENCODING 8869
SWIDTH 1000 0
SWIDTH1 1000 0
BBX 9 10 2 0
BITMAP
0800
0800
0800
0800
0800
0800
0800
0800
0800
FF80
ENDCHAR
STARTCHAR uni22BF
ENCODING 8895
SWIDTH 1000 0
SWIDTH1 1000 0
BBX 10 10 1 0
BITMAP
0040
00C0
0140
0240
0440
0840
1040
2040
4040
FFC0
ENDCHAR
STARTCHAR uni2312
ENCODING 8978
SWIDTH 1000 0
SWIDTH1 1000 0
BBX 10 4 1 4
BITMAP
3F00
4080
8040
8040
ENDCHAR
STARTCHAR uni2460
ENCODING 9312
SWIDTH 1000 0
SWIDTH1 1000 0
BBX 12 12 0 -1
BITMAP
0F00
30C0
4220
4620
8210
8210
8210
8210
4220
4220
30C0
0F00
ENDCHAR
STARTCHAR uni2461
ENCODING 9313
SWIDTH 1000 0
SWIDTH1 1000 0
BBX 12 12 0 -1
BITMAP
0F00
30C0
4620
4920
8910
8110
8210
8410
4820
4F20
30C0
0F00
ENDCHAR
STARTCHAR uni2462
ENCODING 9314
SWIDTH 1000 0
SWIDTH1 1000 0
BBX 12 12 0 -1
BITMAP
0F00
30C0
4620
4920
8110
8610
8110
8110
4920
4620
30C0
0F00
ENDCHAR
STARTCHAR uni2463
ENCODING 9315
SWIDTH 1000 0
SWIDTH1 1000 0
BBX 12 12 0 -1
BITMAP
0F00
30C0
4220
4620
8610
8A10
8A10
9210
5F20
4220
30C0
0F00
ENDCHAR
STARTCHAR uni2464
ENCODING 9316
SWIDTH 1000 0
SWIDTH1 1000 0
BBX 12 12 0 -1
BITMAP
0F00
30C0
4F20
4820
8810
8E10
8110
8110
4920
4620
30C0
0F00
ENDCHAR
STARTCHAR uni2465
ENCODING 9317
SWIDTH 1000 0
SWIDTH1 1000 0
BBX 12 12 0 -1
BITMAP
0F00
30C0
4620
4920
8810
8E10
8910
8910
4920
4620
30C0
0F00
ENDCHAR
STARTCHAR uni2466
ENCODING 9318
SWIDTH 1000 0
SWIDTH1 1000 0
BBX 12 12 0 -1
BITMAP
0F00
30C0
4F20
4120
8210
8210
8410
8410
4420
4420
30C0
0F00
ENDCHAR
STARTCHAR uni2467
ENCODING 9319
SWIDTH 1000 0
SWIDTH1 1000 0
BBX 12 12 0 -1
BITMAP
0F00
30C0
4620
4920
8910
8610
8910
8910
4920
4620
30C0
0F00
ENDCHAR
STARTCHAR uni2468
ENCODING 9320
SWIDTH 1000 0
SWIDTH1 1000 0
BBX 12 12 0 -1
BITMAP
0F00
30C0
4620
4920
8910
8910
8710
8110
4920
4620
30C0
0F00
ENDCHAR
STARTCHAR uni2469
ENCODING 9321
SWIDTH 1000 0
SWIDTH1 1000 0
BBX 12 12 0 -1
BITMAP
0F00
30C0
51A0
7260
9250
9250
9250
9250
5260
51A0
30C0
0F00
ENDCHAR
STARTCHAR uni2474
ENCODING 9332
SWIDTH 1000 0
SWIDTH1 1000 0
BBX 12 10 0 0
BITMAP
2240
4620
8210
8210
8210
8210
8210
8210
4720
2040
ENDCHAR
STARTCHAR uni2475
ENCODING 9333
SWIDTH 1000 0
SWIDTH1 1000 0
BBX 12 10 0 0
BITMAP
2640
4920
8910
8110
8210
8210
8410
8910
4F20
2040
ENDCHAR
STARTCHAR uni2476
ENCODING 9334
SWIDTH 1000 0
SWIDTH1 1000 0
BBX 12 10 0 0
BITMAP
2640
4920
8910
8110
8610
8110
8910
8910
4620
2040
ENDCHAR
STARTCHAR uni2477
ENCODING 9335
SWIDTH 1000 0
SWIDTH1 1000 0
BBX 12 10 0 0
BITMAP
2240
4220
8610
8610
8A10
8A10
9F10
8210
4720
2040
ENDCHAR
STARTCHAR uni2478
ENCODING 9336
SWIDTH 1000 0
SWIDTH1 1000 0
BBX 12 10 0 0
BITMAP
2F40
4820
8810
8E10
8910
8110
8110
8910
4620
2040
ENDCHAR
STARTCHAR uni2479
ENCODING 9337
SWIDTH 1000 0
SWIDTH1 1000 0
BBX 12 10 0 0
BITMAP
2640
4920
8910
8810
8E10
8910
8910
8910
4620
2040
ENDCHAR
STARTCHAR uni247A
ENCODING 9338
SWIDTH 1000 0
SWIDTH1 1000 0
BBX 12 10 0 0
BITMAP
2F40
4920
8110
8210
8210
8410
8410
8410
4420
2040
ENDCHAR
STARTCHAR uni247B
ENCODING 9339
SWIDTH 1000 0
SWIDTH1 1000 0
BBX 12 10 0 0
BITMAP
2640
4920
8910
8910
8610
8910
8910
8910
4620
2040
ENDCHAR
STARTCHAR uni247C
ENCODING 9340
SWIDTH 1000 0
SWIDTH1 1000 0
BBX 12 10 0 0
BITMAP
2640
4920
8910
8910
8910
8710
8110
8910
4620
2040
ENDCHAR
STARTCHAR uni247D
ENCODING 9341
SWIDTH 1000 0
SWIDTH1 1000 0
BBX 12 10 0 0
BITMAP
2940
5AA0
8A90
8A90
8A90
8A90
8A90
8A90
4920
2040
ENDCHAR
STARTCHAR uni247E
ENCODING 9342
SWIDTH 1000 0
SWIDTH1 1000 0
BBX 12 10 0 0
BITMAP
2940
4920
8910
8910
8910
8910
8910
8910
4920
2040
ENDCHAR
STARTCHAR uni247F
ENCODING 9343
SWIDTH 1000 0
SWIDTH1 1000 0
BBX 12 10 0 0
BITMAP
3340
54A0
9490
9090
9110
9110
9210
9490
57A0
2040
ENDCHAR
STARTCHAR uni2480
ENCODING 9344
SWIDTH 1000 0
SWIDTH1 1000 0
BBX 12 10 0 0
BITMAP
3340
54A0
9090
9090
9310
9090
9090
9490
5320
2040
ENDCHAR
STARTCHAR uni2481
ENCODING 9345
SWIDTH 1000 0
SWIDTH1 1000 0
BBX 12 10 0 0
BITMAP
28C0
48A0
8990
8990
8A90
8A90
8BD0
8890
48A0
2040
ENDCHAR
STARTCHAR uni2482
ENCODING 9346
SWIDTH 1000 0
SWIDTH1 1000 0
BBX 12 10 0 0
BITMAP
2BC0
4A20
8A10
8B90
8A50
8850
8850
8A50
49A0
2040
ENDCHAR
STARTCHAR uni2483
ENCODING 9347
SWIDTH 1000 0
SWIDTH1 1000 0
BBX 12 10 0 0
BITMAP
3340
54A0
9410
9710
9490
9490
9490
9490
5320
2040
ENDCHAR
STARTCHAR uni2484
ENCODING 9348
SWIDTH 1000 0
SWIDTH1 1000 0
BBX 12 10 0 0
BITMAP
37C0
54A0
9090
9110
9110
9110
9210
9210
5220
2040
ENDCHAR
STARTCHAR uni2485
ENCODING 9349
SWIDTH 1000 0
SWIDTH1 1000 0
BBX 12 10 0 0
BITMAP
3340
54A0
9490
9490
9310
9490
9490
9490
5320
2040
ENDCHAR
STARTCHAR uni2486
ENCODING 9350
SWIDTH 1000 0
SWIDTH1 1000 0
BBX 12 10 0 0
BITMAP
3340
54A0
9490
9490
9490
9390
9090
9490
5320
2040
ENDCHAR
STARTCHAR uni2487
ENCODING 9351
SWIDTH 1000 0
SWIDTH1 1000 0
BBX 12 10 0 0
BITMAP
29C0
5560
9550
8550
8550
8950
9150
9550
5DE0
2040
ENDCHAR
STARTCHAR uni2488
ENCODING 9352
SWIDTH 1000 0
SWIDTH1 1000 0
BBX 6 9 4 1
BITMAP
20
60
A0
20
20
20
20
20
24
ENDCHAR
STARTCHAR uni2489
ENCODING 9353
SWIDTH 1000 0
SWIDTH1 1000 0
BBX 7 9 3 1
BITMAP
70
88
08
08
10
20
40
80
FA
ENDCHAR
STARTCHAR uni248A
ENCODING 9354
SWIDTH 1000 0
SWIDTH1 1000 0
BBX 7 9 3 1
BITMAP
F8
08
10
20
10
08
08
88
72
ENDCHAR
STARTCHAR uni248B
ENCODING 9355
SWIDTH 1000 0
SWIDTH1 1000 0
BBX 8 9 3 1
BITMAP
20
20
40
48
88
88
FC
08
09
ENDCHAR
STARTCHAR uni248C
ENCODING 9356
SWIDTH 1000 0
SWIDTH1 1000 0
BBX 7 9 3 1
BITMAP
F8
80
80
F0
08
08
08
88
72
ENDCHAR
STARTCHAR uni248D
ENCODING 9357
SWIDTH 1000 0
SWIDTH1 1000 0
BBX 7 9 3 1
BITMAP
20
40
80
B0
C8
88
88
88
72
ENDCHAR
STARTCHAR uni248E
ENCODING 9358
SWIDTH 1000 0
SWIDTH1 1000 0
BBX 7 9 3 1
BITMAP
F8
08
08
10
10
20
20
20
22
ENDCHAR
STARTCHAR uni248F
ENCODING 9359
SWIDTH 1000 0
SWIDTH1 1000 0
BBX 7 9 3 1
BITMAP
70
88
88
88
70
88
88
88
72
ENDCHAR
STARTCHAR uni2490
ENCODING 9360
SWIDTH 1000 0
SWIDTH1 1000 0
BBX 7 9 3 1
BITMAP
70
88
88
88
98
68
08
10
22
ENDCHAR
STARTCHAR uni2491
ENCODING 9361
SWIDTH 1000 0
SWIDTH1 1000 0
BBX 11 9 1 1
BITMAP
2300
6480
A480
2480
2480
2480
2480
2480
2320
ENDCHAR
STARTCHAR uni2492
ENCODING 9362
SWIDTH 1000 0
SWIDTH1 1000 0
BBX 10 9 1 1
BITMAP
2200
6600
AA00
2200
2200
2200
2200
2240
2200
ENDCHAR
STARTCHAR uni2493
ENCODING 9363
SWIDTH 1000 0
SWIDTH1 1000 0
BBX 11 9 1 1
BITMAP
2300
6480
A080
2080
2100
2200
2200
2400
27A0
ENDCHAR
STARTCHAR uni2494
ENCODING 9364
SWIDTH 1000 0
SWIDTH1 1000 0
BBX 11 9 1 1
BITMAP
2780
6080
A100
2200
2100
2080
2080
2480
2320
ENDCHAR
STARTCHAR uni2495
ENCODING 9365
SWIDTH 1000 0
SWIDTH1 1000 0
BBX 11 9 1 1
BITMAP
2200
6200
A400
2500
2900
2900
2F80
2100
2120
ENDCHAR
STARTCHAR uni2496
ENCODING 9366
SWIDTH 1000 0
SWIDTH1 1000 0
BBX 11 9 1 1
BITMAP
2780
6400
A400
2700
2080
2080
2080
2480
2320
ENDCHAR
STARTCHAR uni2497
ENCODING 9367
SWIDTH 1000 0
SWIDTH1 1000 0
BBX 11 9 1 1
BITMAP
2200
6400
A800
2B00
2C80
2880
2880
2880
2720
ENDCHAR
STARTCHAR uni2498
ENCODING 9368
SWIDTH 1000 0
SWIDTH1 1000 0
BBX 11 9 1 1
BITMAP
27C0
6040
A040
2080
2080
2100
2100
2100
2120
ENDCHAR
STARTCHAR uni2499
ENCODING 9369
SWIDTH 1000 0
SWIDTH1 1000 0
BBX 11 9 1 1
BITMAP
2700
6880
A880
2880
2700
2880
2880
2880
2720
ENDCHAR
STARTCHAR uni249A
ENCODING 9370
SWIDTH 1000 0
SWIDTH1 1000 0
BBX 11 9 1 1
BITMAP
2700
6880
A880
2880
2980
2680
2080
2100
2220
ENDCHAR
STARTCHAR uni249B
ENCODING 9371
SWIDTH 1000 0
SWIDTH1 1000 0
BBX 11 9 1 1
BITMAP
6300
9480
1480
1480
2480
2480
4480
8480
F320
ENDCHAR
STARTCHAR SF100000
ENCODING 9472
SWIDTH 1000 0
SWIDTH1 1000 0
BBX 13 1 0 4
BITMAP
FFF8
ENDCHAR
STARTCHAR uni2501
ENCODING 9473
SWIDTH 1000 0
SWIDTH1 1000 0
BBX 13 2 0 4
BITMAP
FFF8
FFF8
ENDCHAR
STARTCHAR SF110000
ENCODING 9474
SWIDTH 1000 0
SWIDTH1 1000 0
BBX 1 13 6 -2
BITMAP
80
80
80
80
80
80
80
80
80
80
80
80
80
ENDCHAR
STARTCHAR uni2503
ENCODING 9475
SWIDTH 1000 0
SWIDTH1 1000 0
BBX 2 13 5 -2
BITMAP
C0
C0
C0
C0
C0
C0
C0
C0
C0
C0
C0
C0
C0
ENDCHAR
STARTCHAR uni2504
ENCODING 9476
SWIDTH 1000 0
SWIDTH1 1000 0
BBX 13 1 0 4
BITMAP
F778
ENDCHAR
STARTCHAR uni2505
ENCODING 9477
SWIDTH 1000 0
SWIDTH1 1000 0
BBX 13 2 0 3
BITMAP
F778
F778
ENDCHAR
STARTCHAR uni2506
ENCODING 9478
SWIDTH 1000 0
SWIDTH1 1000 0
BBX 1 13 6 -2
BITMAP
80
80
80
80
00
80
80
80
80
00
80
80
80
ENDCHAR
STARTCHAR uni2507
ENCODING 9479
SWIDTH 1000 0
SWIDTH1 1000 0
BBX 2 13 6 -2
BITMAP
C0
C0
C0
C0
00
C0
C0
C0
C0
00
C0
C0
C0
ENDCHAR
STARTCHAR uni2508
ENCODING 9480
SWIDTH 1000 0
SWIDTH1 1000 0
BBX 13 1 0 4
BITMAP
EDB8
ENDCHAR
STARTCHAR uni2509
ENCODING 9481
SWIDTH 1000 0
SWIDTH1 1000 0
BBX 13 2 0 3
BITMAP
EDB8
EDB8
ENDCHAR
STARTCHAR uni250A
ENCODING 9482
SWIDTH 1000 0
SWIDTH1 1000 0
BBX 1 13 6 -2
BITMAP
80
80
80
00
80
80
00
80
80
80
00
80
80
ENDCHAR
STARTCHAR uni250B
ENCODING 9483
SWIDTH 1000 0
SWIDTH1 1000 0
BBX 2 13 6 -2
BITMAP
C0
C0
C0
00
C0
C0
00
C0
C0
C0
00
C0
C0
ENDCHAR
STARTCHAR SF010000
ENCODING 9484
SWIDTH 1000 0
SWIDTH1 1000 0
BBX 7 7 6 -2
BITMAP
FE
80
80
80
80
80
80
ENDCHAR
STARTCHAR uni250D
ENCODING 9485
SWIDTH 1000 0
SWIDTH1 1000 0
BBX 7 7 6 -2
BITMAP
FE
FE
80
80
80
80
80
ENDCHAR
STARTCHAR uni250E
ENCODING 9486
SWIDTH 1000 0
SWIDTH1 1000 0
BBX 7 7 6 -2
BITMAP
FE
C0
C0
C0
C0
C0
C0
ENDCHAR
STARTCHAR uni250F
ENCODING 9487
SWIDTH 1000 0
SWIDTH1 1000 0
BBX 8 8 5 -2
BITMAP
FF
FF
C0
C0
C0
C0
C0
C0
ENDCHAR
STARTCHAR SF030000
ENCODING 9488
SWIDTH 1000 0
SWIDTH1 1000 0
BBX 7 7 0 -2
BITMAP
FE
02
02
02
02
02
02
ENDCHAR
STARTCHAR uni2511
ENCODING 9489
SWIDTH 1000 0
SWIDTH1 1000 0
BBX 7 7 0 -2
BITMAP
FE
FE
02
02
02
02
02
ENDCHAR
STARTCHAR uni2512
ENCODING 9490
SWIDTH 1000 0
SWIDTH1 1000 0
BBX 8 7 0 -2
BITMAP
FF
03
03
03
03
03
03
ENDCHAR
STARTCHAR uni2513
ENCODING 9491
SWIDTH 1000 0
SWIDTH1 1000 0
BBX 7 8 0 -2
BITMAP
FE
FE
06
06
06
06
06
06
ENDCHAR
STARTCHAR SF020000
ENCODING 9492
SWIDTH 1000 0
SWIDTH1 1000 0
BBX 7 7 6 4
BITMAP
80
80
80
80
80
80
FE
ENDCHAR
STARTCHAR uni2515
ENCODING 9493
SWIDTH 1000 0
SWIDTH1 1000 0
BBX 7 8 6 3
BITMAP
80
80
80
80
80
80
FE
FE
ENDCHAR
STARTCHAR uni2516
ENCODING 9494
SWIDTH 1000 0
SWIDTH1 1000 0
BBX 7 7 6 4
BITMAP
C0
C0
C0
C0
C0
C0
FE
ENDCHAR
STARTCHAR uni2517
ENCODING 9495
SWIDTH 1000 0
SWIDTH1 1000 0
BBX 8 7 5 4
BITMAP
C0
C0
C0
C0
C0
FF
FF
ENDCHAR
STARTCHAR SF040000
ENCODING 9496
SWIDTH 1000 0
SWIDTH1 1000 0
BBX 7 7 0 4
BITMAP
02
02
02
02
02
02
FE
ENDCHAR
STARTCHAR uni2519
ENCODING 9497
SWIDTH 1000 0
SWIDTH1 1000 0
BBX 7 8 0 3
BITMAP
02
02
02
02
02
02
FE
FE
ENDCHAR
STARTCHAR uni251A
ENCODING 9498
SWIDTH 1000 0
SWIDTH1 1000 0
BBX 8 7 0 4
BITMAP
03
03
03
03
03
03
FF
ENDCHAR
STARTCHAR uni251B
ENCODING 9499
SWIDTH 1000 0
SWIDTH1 1000 0
BBX 7 7 0 4
BITMAP
06
06
06
06
06
FE
FE
ENDCHAR
STARTCHAR SF080000
ENCODING 9500
SWIDTH 1000 0
SWIDTH1 1000 0
BBX 7 13 6 -2
BITMAP
80
80
80
80
80
80
FE
80
80
80
80
80
80
ENDCHAR
STARTCHAR uni251D
ENCODING 9501
SWIDTH 1000 0
SWIDTH1 1000 0
BBX 7 13 6 -2
BITMAP
80
80
80
80
80
FE
FE
80
80
80
80
80
80
ENDCHAR
STARTCHAR uni251E
ENCODING 9502
SWIDTH 1000 0
SWIDTH1 1000 0
BBX 7 13 6 -2
BITMAP
C0
C0
C0
C0
C0
C0
FE
80
80
80
80
80
80
ENDCHAR
STARTCHAR uni251F
ENCODING 9503
SWIDTH 1000 0
SWIDTH1 1000 0
BBX 7 13 6 -2
BITMAP
80
80
80
80
80
80
FE
C0
C0
C0
C0
C0
C0
ENDCHAR
STARTCHAR uni2520
ENCODING 9504
SWIDTH 1000 0
SWIDTH1 1000 0
BBX 8 13 5 -2
BITMAP
C0
C0
C0
C0
C0
C0
FF
C0
C0
C0
C0
C0
C0
ENDCHAR
STARTCHAR uni2521
ENCODING 9505
SWIDTH 1000 0
SWIDTH1 1000 0
BBX 7 13 6 -2
BITMAP
C0
C0
C0
C0
C0
C0
FE
FE
80
80
80
80
80
ENDCHAR
STARTCHAR uni2522
ENCODING 9506
SWIDTH 1000 0
SWIDTH1 1000 0
BBX 7 13 6 -2
BITMAP
80
80
80
80
80
80
FE
FE
C0
C0
C0
C0
C0
ENDCHAR
STARTCHAR uni2523
ENCODING 9507
SWIDTH 1000 0
SWIDTH1 1000 0
BBX 8 13 5 -2
BITMAP
C0
C0
C0
C0
C0
FF
FF
C0
C0
C0
C0
C0
C0
ENDCHAR
STARTCHAR SF090000
ENCODING 9508
SWIDTH 1000 0
SWIDTH1 1000 0
BBX 7 13 0 -2
BITMAP
02
02
02
02
02
02
FE
02
02
02
02
02
02
ENDCHAR
STARTCHAR uni2525
ENCODING 9509
SWIDTH 1000 0
SWIDTH1 1000 0
BBX 7 13 0 -2
BITMAP
02
02
02
02
02
FE
FE
02
02
02
02
02
02
ENDCHAR
STARTCHAR uni2526
ENCODING 9510
SWIDTH 1000 0
SWIDTH1 1000 0
BBX 8 13 0 -2
BITMAP
03
03
03
03
03
03
FF
02
02
02
02
02
02
ENDCHAR
STARTCHAR uni2527
ENCODING 9511
SWIDTH 1000 0
SWIDTH1 1000 0
BBX 8 13 0 -2
BITMAP
02
02
02
02
02
02
FF
03
03
03
03
03
03
ENDCHAR
STARTCHAR uni2528
ENCODING 9512
SWIDTH 1000 0
SWIDTH1 1000 0
BBX 7 13 0 -2
BITMAP
06
06
06
06
06
06
FE
06
06
06
06
06
06
ENDCHAR
STARTCHAR uni2529
ENCODING 9513
SWIDTH 1000 0
SWIDTH1 1000 0
BBX 8 13 0 -2
BITMAP
03
03
03
03
03
03
FF
FF
02
02
02
02
02
ENDCHAR
STARTCHAR uni252A
ENCODING 9514
SWIDTH 1000 0
SWIDTH1 1000 0
BBX 8 13 0 -2
BITMAP
02
02
02
02
02
02
FF
FF
03
03
03
03
03
ENDCHAR
STARTCHAR uni252B
ENCODING 9515
SWIDTH 1000 0
SWIDTH1 1000 0
BBX 7 13 0 -2
BITMAP
06
06
06
06
06
FE
FE
06
06
06
06
06
06
ENDCHAR
STARTCHAR SF060000
ENCODING 9516
SWIDTH 1000 0
SWIDTH1 1000 0
BBX 13 7 0 -2
BITMAP
FFF8
0200
0200
0200
0200
0200
0200
ENDCHAR
STARTCHAR uni252D
ENCODING 9517
SWIDTH 1000 0
SWIDTH1 1000 0
BBX 13 7 0 -2
BITMAP
FFF8
FE00
0200
0200
0200
0200
0200
ENDCHAR
STARTCHAR uni252E
ENCODING 9518
SWIDTH 1000 0
SWIDTH1 1000 0
BBX 13 7 0 -2
BITMAP
FFF8
03F8
0200
0200
0200
0200
0200
ENDCHAR
STARTCHAR uni252F
ENCODING 9519
SWIDTH 1000 0
SWIDTH1 1000 0
BBX 13 8 0 -2
BITMAP
FFF8
FFF8
0200
0200
0200
0200
0200
0200
ENDCHAR
STARTCHAR uni2530
ENCODING 9520
SWIDTH 1000 0
SWIDTH1 1000 0
BBX 13 7 0 -2
BITMAP
FFF8
0600
0600
0600
0600
0600
0600
ENDCHAR
STARTCHAR uni2531
ENCODING 9521
SWIDTH 1000 0
SWIDTH1 1000 0
BBX 13 7 0 -2
BITMAP
FFF8
FF00
0300
0300
0300
0300
0300
ENDCHAR
STARTCHAR uni2532
ENCODING 9522
SWIDTH 1000 0
SWIDTH1 1000 0
BBX 13 7 0 -2
BITMAP
FFF8
03F8
0300
0300
0300
0300
0300
ENDCHAR
STARTCHAR uni2533
ENCODING 9523
SWIDTH 1000 0
SWIDTH1 1000 0
BBX 13 8 0 -2
BITMAP
FFF8
FFF8
0600
0600
0600
0600
0600
0600
ENDCHAR
STARTCHAR SF070000
ENCODING 9524
SWIDTH 1000 0
SWIDTH1 1000 0
BBX 13 7 0 4
BITMAP
0200
0200
0200
0200
0200
0200
FFF8
ENDCHAR
STARTCHAR uni2535
ENCODING 9525
SWIDTH 1000 0
SWIDTH1 1000 0
BBX 13 8 0 3
BITMAP
0200
0200
0200
0200
0200
0200
FFF8
FE00
ENDCHAR
STARTCHAR uni2536
ENCODING 9526
SWIDTH 1000 0
SWIDTH1 1000 0
BBX 13 8 0 3
BITMAP
0200
0200
0200
0200
0200
0200
FFF8
03F8
ENDCHAR
STARTCHAR uni2537
ENCODING 9527
SWIDTH 1000 0
SWIDTH1 1000 0
BBX 13 7 0 4
BITMAP
0200
0200
0200
0200
0200
FFF8
FFF8
ENDCHAR
STARTCHAR uni2538
ENCODING 9528
SWIDTH 1000 0
SWIDTH1 1000 0
BBX 13 7 0 4
BITMAP
0600
0600
0600
0600
0600
0600
FFF8
ENDCHAR
STARTCHAR uni2539
ENCODING 9529
SWIDTH 1000 0
SWIDTH1 1000 0
BBX 13 8 0 3
BITMAP
0300
0300
0300
0300
0300
0300
FFF8
FF00
ENDCHAR
STARTCHAR uni253A
ENCODING 9530
SWIDTH 1000 0
SWIDTH1 1000 0
BBX 13 8 0 3
BITMAP
0300
0300
0300
0300
0300
0300
FFF8
03F8
ENDCHAR
STARTCHAR uni253B
ENCODING 9531
SWIDTH 1000 0
SWIDTH1 1000 0
BBX 13 7 0 4
BITMAP
0600
0600
0600
0600
0600
FFF8
FFF8
ENDCHAR
STARTCHAR SF050000
ENCODING 9532
SWIDTH 1000 0
SWIDTH1 1000 0
BBX 13 13 0 -2
BITMAP
0200
0200
0200
0200
0200
0200
FFF8
0200
0200
0200
0200
0200
0200
ENDCHAR
STARTCHAR uni253D
ENCODING 9533
SWIDTH 1000 0
SWIDTH1 1000 0
BBX 13 13 0 -2
BITMAP
0200
0200
0200
0200
0200
0200
FFF8
FE00
0200
0200
0200
0200
0200
ENDCHAR
STARTCHAR uni253E
ENCODING 9534
SWIDTH 1000 0
SWIDTH1 1000 0
BBX 13 13 0 -2
BITMAP
0200
0200
0200
0200
0200
0200
FFF8
03F8
0200
0200
0200
0200
0200
ENDCHAR
STARTCHAR uni253F
ENCODING 9535
SWIDTH 1000 0
SWIDTH1 1000 0
BBX 13 13 0 -2
BITMAP
0200
0200
0200
0200
0200
FFF8
FFF8
0200
0200
0200
0200
0200
0200
ENDCHAR
STARTCHAR uni2540
ENCODING 9536
SWIDTH 1000 0
SWIDTH1 1000 0
BBX 13 13 0 -2
BITMAP
0300
0300
0300
0300
0300
0300
FFF8
0200
0200
0200
0200
0200
0200
ENDCHAR
STARTCHAR uni2541
ENCODING 9537
SWIDTH 1000 0
SWIDTH1 1000 0
BBX 13 13 0 -2
BITMAP
0200
0200
0200
0200
0200
0200
FFF8
0300
0300
0300
0300
0300
0300
ENDCHAR
STARTCHAR uni2542
ENCODING 9538
SWIDTH 1000 0
SWIDTH1 1000 0
BBX 13 13 0 -2
BITMAP
0600
0600
0600
0600
0600
0600
FFF8
0600
0600
0600
0600
0600
0600
ENDCHAR
STARTCHAR uni2543
ENCODING 9539
SWIDTH 1000 0
SWIDTH1 1000 0
BBX 13 13 0 -2
BITMAP
0300
0300
0300
0300
0300
0300
FFF8
FF00
0200
0200
0200
0200
0200
ENDCHAR
STARTCHAR uni2544
ENCODING 9540
SWIDTH 1000 0
SWIDTH1 1000 0
BBX 13 13 0 -2
BITMAP
0300
0300
0300
0300
0300
0300
FFF8
03F8
0200
0200
0200
0200
0200
ENDCHAR
STARTCHAR uni2545
ENCODING 9541
SWIDTH 1000 0
SWIDTH1 1000 0
BBX 13 13 0 -2
BITMAP
0200
0200
0200
0200
0200
0200
FFF8
FF00
0300
0300
0300
0300
0300
ENDCHAR
STARTCHAR uni2546
ENCODING 9542
SWIDTH 1000 0
SWIDTH1 1000 0
BBX 13 13 0 -2
BITMAP
0200
0200
0200
0200
0200
0200
FFF8
03F8
0300
0300
0300
0300
0300
ENDCHAR
STARTCHAR uni2547
ENCODING 9543
SWIDTH 1000 0
SWIDTH1 1000 0
BBX 13 13 0 -2
BITMAP
0300
0300
0300
0300
0300
0300
FFF8
FFF8
0200
0200
0200
0200
0200
ENDCHAR
STARTCHAR uni2548
ENCODING 9544
SWIDTH 1000 0
SWIDTH1 1000 0
BBX 13 13 0 -2
BITMAP
0200
0200
0200
0200
0200
0200
FFF8
FFF8
0300
0300
0300
0300
0300
ENDCHAR
STARTCHAR uni2549
ENCODING 9545
SWIDTH 1000 0
SWIDTH1 1000 0
BBX 13 13 0 -2
BITMAP
0300
0300
0300
0300
0300
0300
FFF8
FF00
0300
0300
0300
0300
0300
ENDCHAR
STARTCHAR uni254A
ENCODING 9546
SWIDTH 1000 0
SWIDTH1 1000 0
BBX 13 13 0 -2
BITMAP
0300
0300
0300
0300
0300
0300
FFF8
03F8
0300
0300
0300
0300
0300
ENDCHAR
STARTCHAR uni254B
ENCODING 9547
SWIDTH 1000 0
SWIDTH1 1000 0
BBX 13 13 0 -2
BITMAP
0600
0600
0600
0600
0600
FFF8
FFF8
0600
0600
0600
0600
0600
0600
ENDCHAR
STARTCHAR SF430000
ENCODING 9552
SWIDTH 1000 0
SWIDTH1 1000 0
BBX 13 3 0 3
BITMAP
FFF8
0000
FFF8
ENDCHAR
STARTCHAR SF240000
ENCODING 9553
SWIDTH 1000 0
SWIDTH1 1000 0
BBX 3 13 5 -2
BITMAP
A0
A0
A0
A0
A0
A0
A0
A0
A0
A0
A0
A0
A0
ENDCHAR
STARTCHAR SF510000
ENCODING 9554
SWIDTH 1000 0
SWIDTH1 1000 0
BBX 7 8 6 -2
BITMAP
FE
80
FE
80
80
80
80
80
ENDCHAR
STARTCHAR SF520000
ENCODING 9555
SWIDTH 1000 0
SWIDTH1 1000 0
BBX 8 7 5 -2
BITMAP
FF
A0
A0
A0
A0
A0
A0
ENDCHAR
STARTCHAR SF390000
ENCODING 9556
SWIDTH 1000 0
SWIDTH1 1000 0
BBX 8 8 5 -2
BITMAP
FF
80
BF
A0
A0
A0
A0
A0
ENDCHAR
STARTCHAR SF220000
ENCODING 9557
SWIDTH 1000 0
SWIDTH1 1000 0
BBX 7 8 0 -2
BITMAP
FE
02
FE
02
02
02
02
02
ENDCHAR
STARTCHAR SF210000
ENCODING 9558
SWIDTH 1000 0
SWIDTH1 1000 0
BBX 8 7 0 -2
BITMAP
FF
05
05
05
05
05
05
ENDCHAR
STARTCHAR SF250000
ENCODING 9559
SWIDTH 1000 0
SWIDTH1 1000 0
BBX 8 8 0 -2
BITMAP
FF
01
FD
05
05
05
05
05
ENDCHAR
STARTCHAR SF500000
ENCODING 9560
SWIDTH 1000 0
SWIDTH1 1000 0
BBX 7 8 6 3
BITMAP
80
80
80
80
80
FE
80
FE
ENDCHAR
STARTCHAR SF490000
ENCODING 9561
SWIDTH 1000 0
SWIDTH1 1000 0
BBX 8 7 5 4
BITMAP
A0
A0
A0
A0
A0
A0
FF
ENDCHAR
STARTCHAR SF380000
ENCODING 9562
SWIDTH 1000 0
SWIDTH1 1000 0
BBX 8 8 5 3
BITMAP
A0
A0
A0
A0
A0
BF
80
FF
ENDCHAR
STARTCHAR SF280000
ENCODING 9563
SWIDTH 1000 0
SWIDTH1 1000 0
BBX 7 8 0 3
BITMAP
02
02
02
02
02
FE
02
FE
ENDCHAR
STARTCHAR SF270000
ENCODING 9564
SWIDTH 1000 0
SWIDTH1 1000 0
BBX 8 7 0 4
BITMAP
05
05
05
05
05
05
FF
ENDCHAR
STARTCHAR SF260000
ENCODING 9565
SWIDTH 1000 0
SWIDTH1 1000 0
BBX 8 8 0 3
BITMAP
05
05
05
05
05
FD
01
FF
ENDCHAR
STARTCHAR SF360000
ENCODING 9566
SWIDTH 1000 0
SWIDTH1 1000 0
BBX 7 13 6 -2
BITMAP
80
80
80
80
80
FE
80
FE
80
80
80
80
80
ENDCHAR
STARTCHAR SF370000
ENCODING 9567
SWIDTH 1000 0
SWIDTH1 1000 0
BBX 8 13 5 -2
BITMAP
A0
A0
A0
A0
A0
A0
BF
A0
A0
A0
A0
A0
A0
ENDCHAR
STARTCHAR SF420000
ENCODING 9568
SWIDTH 1000 0
SWIDTH1 1000 0
BBX 8 13 5 -2
BITMAP
A0
A0
A0
A0
A0
BF
80
BF
A0
A0
A0
A0
A0
ENDCHAR
STARTCHAR SF190000
ENCODING 9569
SWIDTH 1000 0
SWIDTH1 1000 0
BBX 7 13 0 -2
BITMAP
02
02
02
02
02
FE
02
FE
02
02
02
02
02
ENDCHAR
STARTCHAR SF200000
ENCODING 9570
SWIDTH 1000 0
SWIDTH1 1000 0
BBX 8 13 0 -2
BITMAP
05
05
05
05
05
05
FD
05
05
05
05
05
05
ENDCHAR
STARTCHAR SF230000
ENCODING 9571
SWIDTH 1000 0
SWIDTH1 1000 0
BBX 8 13 0 -2
BITMAP
05
05
05
05
05
FD
01
FD
05
05
05
05
05
ENDCHAR
STARTCHAR SF470000
ENCODING 9572
SWIDTH 1000 0
SWIDTH1 1000 0
BBX 13 8 0 -2
BITMAP
FFF8
0000
FFF8
0200
0200
0200
0200
0200
ENDCHAR
STARTCHAR SF480000
ENCODING 9573
SWIDTH 1000 0
SWIDTH1 1000 0
BBX 13 7 0 -2
BITMAP
FFF8
0500
0500
0500
0500
0500
0500
ENDCHAR
STARTCHAR SF410000
ENCODING 9574
SWIDTH 1000 0
SWIDTH1 1000 0
BBX 13 8 0 -2
BITMAP
FFF8
0000
FDF8
0500
0500
0500
0500
0500
ENDCHAR
STARTCHAR SF450000
ENCODING 9575
SWIDTH 1000 0
SWIDTH1 1000 0
BBX 13 8 0 3
BITMAP
0200
0200
0200
0200
0200
FFF8
0000
FFF8
ENDCHAR
STARTCHAR SF460000
ENCODING 9576
SWIDTH 1000 0
SWIDTH1 1000 0
BBX 13 7 0 4
BITMAP
0500
0500
0500
0500
0500
0500
FFF8
ENDCHAR
STARTCHAR SF400000
ENCODING 9577
SWIDTH 1000 0
SWIDTH1 1000 0
BBX 13 8 0 3
BITMAP
0500
0500
0500
0500
0500
FDF8
0000
FFF8
ENDCHAR
STARTCHAR SF540000
ENCODING 9578
SWIDTH 1000 0
SWIDTH1 1000 0
BBX 13 13 0 -2
BITMAP
0200
0200
0200
0200
0200
FFF8
0200
FFF8
0200
0200
0200
0200
0200
ENDCHAR
STARTCHAR SF530000
ENCODING 9579
SWIDTH 1000 0
SWIDTH1 1000 0
BBX 13 13 0 -2
BITMAP
0500
0500
0500
0500
0500
0500
FFF8
0500
0500
0500
0500
0500
0500
ENDCHAR
STARTCHAR SF440000
ENCODING 9580
SWIDTH 1000 0
SWIDTH1 1000 0
BBX 13 13 0 -2
BITMAP
0500
0500
0500
0500
0500
FDF8
0000
FDF8
0500
0500
0500
0500
0500
ENDCHAR
STARTCHAR uni256D
ENCODING 9581
SWIDTH 1000 0
SWIDTH1 1000 0
BBX 7 7 6 -2
BITMAP
0E
30
40
40
80
80
80
ENDCHAR
STARTCHAR uni256E
ENCODING 9582
SWIDTH 1000 0
SWIDTH1 1000 0
BBX 7 7 0 -2
BITMAP
E0
18
04
04
02
02
02
ENDCHAR
STARTCHAR uni256F
ENCODING 9583
SWIDTH 1000 0
SWIDTH1 1000 0
BBX 7 7 0 4
BITMAP
02
02
02
04
04
18
E0
ENDCHAR
STARTCHAR uni2570
ENCODING 9584
SWIDTH 1000 0
SWIDTH1 1000 0
BBX 7 7 6 4
BITMAP
80
80
80
40
40
30
0E
ENDCHAR
STARTCHAR uni2571
ENCODING 9585
SWIDTH 1000 0
SWIDTH1 1000 0
BBX 13 13 0 -2
BITMAP
0008
0010
0020
0040
0080
0100
0200
0400
0800
1000
2000
4000
8000
ENDCHAR
STARTCHAR uni2572
ENCODING 9586
SWIDTH 1000 0
SWIDTH1 1000 0
BBX 13 13 0 -2
BITMAP
8000
4000
2000
1000
0800
0400
0200
0100
0080
0040
0020
0010
0008
ENDCHAR
STARTCHAR uni2573
ENCODING 9587
SWIDTH 1000 0
SWIDTH1 1000 0
BBX 13 13 0 -2
BITMAP
8008
4010
2020
1040
0880
0500
0200
0500
0880
1040
2020
4010
8008
ENDCHAR
STARTCHAR uni2581
ENCODING 9601
SWIDTH 1000 0
SWIDTH1 1000 0
BBX 13 2 0 -2
BITMAP
FFF8
FFF8
ENDCHAR
STARTCHAR uni2582
ENCODING 9602
SWIDTH 1000 0
SWIDTH1 1000 0
BBX 13 3 0 -2
BITMAP
FFF8
FFF8
FFF8
ENDCHAR
STARTCHAR uni2583
ENCODING 9603
SWIDTH 1000 0
SWIDTH1 1000 0
BBX 13 5 0 -2
BITMAP
FFF8
FFF8
FFF8
FFF8
FFF8
ENDCHAR
STARTCHAR dnblock
ENCODING 9604
SWIDTH 1000 0
SWIDTH1 1000 0
BBX 13 7 0 -2
BITMAP
FFF8
FFF8
FFF8
FFF8
FFF8
FFF8
FFF8
ENDCHAR
STARTCHAR uni2585
ENCODING 9605
SWIDTH 1000 0
SWIDTH1 1000 0
BBX 13 8 0 -2
BITMAP
FFF8
FFF8
FFF8
FFF8
FFF8
FFF8
FFF8
FFF8
ENDCHAR
STARTCHAR uni2586
ENCODING 9606
SWIDTH 1000 0
SWIDTH1 1000 0
BBX 13 10 0 -2
BITMAP
FFF8
FFF8
FFF8
FFF8
FFF8
FFF8
FFF8
FFF8
FFF8
FFF8
ENDCHAR
STARTCHAR uni2587
ENCODING 9607
SWIDTH 1000 0
SWIDTH1 1000 0
BBX 13 12 0 -2
BITMAP
FFF8
FFF8
FFF8
FFF8
FFF8
FFF8
FFF8
FFF8
FFF8
FFF8
FFF8
FFF8
ENDCHAR
STARTCHAR block
ENCODING 9608
SWIDTH 1000 0
SWIDTH1 1000 0
BBX 13 13 0 -2
BITMAP
FFF8
FFF8
FFF8
FFF8
FFF8
FFF8
FFF8
FFF8
FFF8
FFF8
FFF8
FFF8
FFF8
ENDCHAR
STARTCHAR uni2589
ENCODING 9609
SWIDTH 1000 0
SWIDTH1 1000 0
BBX 12 13 0 -2
BITMAP
FFF0
FFF0
FFF0
FFF0
FFF0
FFF0
FFF0
FFF0
FFF0
FFF0
FFF0
FFF0
FFF0
ENDCHAR
STARTCHAR uni258A
ENCODING 9610
SWIDTH 1000 0
SWIDTH1 1000 0
BBX 10 13 0 -2
BITMAP
FFC0
FFC0
FFC0
FFC0
FFC0
FFC0
FFC0
FFC0
FFC0
FFC0
FFC0
FFC0
FFC0
ENDCHAR
STARTCHAR uni258B
ENCODING 9611
SWIDTH 1000 0
SWIDTH1 1000 0
BBX 8 13 0 -2
BITMAP
FF
FF
FF
FF
FF
FF
FF
FF
FF
FF
FF
FF
FF
ENDCHAR
STARTCHAR lfblock
ENCODING 9612
SWIDTH 1000 0
SWIDTH1 1000 0
BBX 7 13 0 -2
BITMAP
FE
FE
FE
FE
FE
FE
FE
FE
FE
FE
FE
FE
FE
ENDCHAR
STARTCHAR uni258D
ENCODING 9613
SWIDTH 1000 0
SWIDTH1 1000 0
BBX 5 13 0 -2
BITMAP
F8
F8
F8
F8
F8
F8
F8
F8
F8
F8
F8
F8
F8
ENDCHAR
STARTCHAR uni258E
ENCODING 9614
SWIDTH 1000 0
SWIDTH1 1000 0
BBX 3 13 0 -2
BITMAP
E0
E0
E0
E0
E0
E0
E0
E0
E0
E0
E0
E0
E0
ENDCHAR
STARTCHAR uni258F
ENCODING 9615
SWIDTH 1000 0
SWIDTH1 1000 0
BBX 2 13 0 -2
BITMAP
C0
C0
C0
C0
C0
C0
C0
C0
C0
C0
C0
C0
C0
ENDCHAR
STARTCHAR dkshade
ENCODING 9619
SWIDTH 1000 0
SWIDTH1 1000 0
BBX 12 12 0 -1
BITMAP
FFF0
7DB0
DB60
FFF0
6DB0
FFF0
DB60
FFF0
6DB0
FFE0
DB70
FFF0
ENDCHAR
STARTCHAR uni2594
ENCODING 9620
SWIDTH 1000 0
SWIDTH1 1000 0
BBX 13 2 0 9
BITMAP
FFF8
FFF8
ENDCHAR
STARTCHAR uni2595
ENCODING 9621
SWIDTH 1000 0
SWIDTH1 1000 0
BBX 2 13 11 -2
BITMAP
C0
C0
C0
C0
C0
C0
C0
C0
C0
C0
C0
C0
C0
ENDCHAR
STARTCHAR filledbox
ENCODING 9632
SWIDTH 1000 0
SWIDTH1 1000 0
BBX 10 10 1 0
BITMAP
FFC0
FFC0
FFC0
FFC0
FFC0
FFC0
FFC0
FFC0
FFC0
FFC0
ENDCHAR
STARTCHAR H22073
ENCODING 9633
SWIDTH 1000 0
SWIDTH1 1000 0
BBX 10 10 1 0
BITMAP
FFC0
8040
8040
8040
8040
8040
8040
8040
8040
FFC0
ENDCHAR
STARTCHAR triagup
ENCODING 9650
SWIDTH 1000 0
SWIDTH1 1000 0
BBX 9 10 2 0
BITMAP
0800
0800
1C00
1C00
3E00
3E00
7F00
7F00
FF80
FF80
ENDCHAR
STARTCHAR uni25B3
ENCODING 9651
SWIDTH 1000 0
SWIDTH1 1000 0
BBX 9 10 2 0
BITMAP
0800
0800
1400
1400
2200
2200
4100
4100
8080
FF80
ENDCHAR
STARTCHAR triagdn
ENCODING 9660
SWIDTH 1000 0
SWIDTH1 1000 0
BBX 5 7 0 0
BITMAP
70
88
80
80
80
88
70
ENDCHAR
STARTCHAR uni25BD
ENCODING 9661
SWIDTH 1000 0
SWIDTH1 1000 0
BBX 11 9 1 1
BITMAP
FFE0
8020
4040
2080
2080
1100
1100
0A00
0400
ENDCHAR
STARTCHAR uni25C6
ENCODING 9670
SWIDTH 1000 0
SWIDTH1 1000 0
BBX 11 11 1 -1
BITMAP
0400
0E00
1F00
3F80
7FC0
FFE0
7FC0
3F80
1F00
0E00
0400
ENDCHAR
STARTCHAR uni25C7
ENCODING 9671
SWIDTH 1000 0
SWIDTH1 1000 0
BBX 11 11 1 -1
BITMAP
0400
0A00
1100
2080
4040
8020
4040
2080
1100
0A00
0400
ENDCHAR
STARTCHAR circle
ENCODING 9675
SWIDTH 1000 0
SWIDTH1 1000 0
BBX 10 10 1 0
BITMAP
3F00
4080
8040
8040
8040
8040
8040
8040
4080
3F00
ENDCHAR
STARTCHAR uni25CE
ENCODING 9678
SWIDTH 1000 0
SWIDTH1 1000 0
BBX 10 10 1 0
BITMAP
3F00
4080
9E40
A140
A140
A140
A140
9E40
4080
3F00
ENDCHAR
STARTCHAR H18533
ENCODING 9679
SWIDTH 1000 0
SWIDTH1 1000 0
BBX 10 10 1 0
BITMAP
3F00
7F80
FFC0
FFC0
FFC0
FFC0
FFC0
FFC0
7F80
3F00
ENDCHAR
STARTCHAR uni25E2
ENCODING 9698
SWIDTH 1000 0
SWIDTH1 1000 0
BBX 13 13 0 -2
BITMAP
0008
0018
0038
0078
00F8
01F8
03F8
07F8
0FF8
1FF8
3FF8
7FF8
FFF8
ENDCHAR
STARTCHAR uni25E3
ENCODING 9699
SWIDTH 1000 0
SWIDTH1 1000 0
BBX 13 13 0 -2
BITMAP
8000
C000
E000
F000
F800
FC00
FE00
FF00
FF80
FFC0
FFE0
FFF0
FFF8
ENDCHAR
STARTCHAR uni25E4
ENCODING 9700
SWIDTH 1000 0
SWIDTH1 1000 0
BBX 12 12 0 -1
BITMAP
FFF0
FFE0
FFC0
FF80
FF00
FE00
FC00
F800
F000
E000
C000
8000
ENDCHAR
STARTCHAR uni25E5
ENCODING 9701
SWIDTH 1000 0
SWIDTH1 1000 0
BBX 12 12 1 -1
BITMAP
FFF0
7FF0
3FF0
1FF0
0FF0
07F0
03F0
01F0
00F0
0070
0030
0010
ENDCHAR
STARTCHAR uni2605
ENCODING 9733
SWIDTH 1000 0
SWIDTH1 1000 0
BBX 11 12 1 -1
BITMAP
0400
0400
0E00
0E00
FFE0
7FC0
3F80
1F00
1F00
3B80
3180
4040
ENDCHAR
STARTCHAR uni2606
ENCODING 9734
SWIDTH 1000 0
SWIDTH1 1000 0
BBX 11 12 1 -1
BITMAP
0400
0400
0A00
0A00
F1E0
4040
2080
1100
1500
2A80
3180
2080
ENDCHAR
STARTCHAR uni2609
ENCODING 9737
SWIDTH 1000 0
SWIDTH1 1000 0
BBX 7 7 3 2
BITMAP
38
44
82
92
82
44
38
ENDCHAR
STARTCHAR female
ENCODING 9792
SWIDTH 1000 0
SWIDTH1 1000 0
BBX 7 10 3 0
BITMAP
38
44
44
44
38
10
FE
10
10
10
ENDCHAR
STARTCHAR male
ENCODING 9794
SWIDTH 1000 0
SWIDTH1 1000 0
BBX 5 11 4 0
BITMAP
20
20
70
A8
20
20
70
88
88
88
70
ENDCHAR
STARTCHAR uni2E81
ENCODING 11905
SWIDTH 1000 0
SWIDTH1 1000 0
BBX 10 12 1 -1
BITMAP
01C0
7E00
4000
4000
4000
4000
4000
4000
4000
4000
4000
8000
ENDCHAR
STARTCHAR uni2E84
ENCODING 11908
SWIDTH 1000 0
SWIDTH1 1000 0
BBX 11 11 1 -1
BITMAP
FF80
0080
0080
0080
0080
0080
0080
0080
00A0
0060
0020
ENDCHAR
STARTCHAR uni2E88
ENCODING 11912
SWIDTH 1000 0
SWIDTH1 1000 0
BBX 9 5 1 6
BITMAP
1000
1F80
2080
4100
8000
ENDCHAR
STARTCHAR uni2E8B
ENCODING 11915
SWIDTH 1000 0
SWIDTH1 1000 0
BBX 10 11 2 -1
BITMAP
FF00
8100
8100
8100
8100
8100
8E00
8040
8040
8040
7FC0
ENDCHAR
STARTCHAR uni2E8C
ENCODING 11916
SWIDTH 1000 0
SWIDTH1 1000 0
BBX 9 4 2 7
BITMAP
0800
8880
4900
0800
ENDCHAR
STARTCHAR uni2E97
ENCODING 11927
SWIDTH 1000 0
SWIDTH1 1000 0
BBX 11 12 1 -1
BITMAP
1000
1000
1000
1080
5440
5240
9220
9120
1120
1000
1000
3000
ENDCHAR
STARTCHAR uni2EA7
ENCODING 11943
SWIDTH 1000 0
SWIDTH1 1000 0
BBX 11 6 1 5
BITMAP
0400
2400
3FC0
4400
0400
FFE0
ENDCHAR
STARTCHAR uni2EAA
ENCODING 11946
SWIDTH 1000 0
SWIDTH1 1000 0
BBX 6 11 1 -1
BITMAP
7C
04
08
10
50
5C
50
50
50
5C
E0
ENDCHAR
STARTCHAR uni2EAE
ENCODING 11950
SWIDTH 1000 0
SWIDTH1 1000 0
BBX 11 4 1 7
BITMAP
2100
3DE0
5280
8840
ENDCHAR
STARTCHAR uni2EB3
ENCODING 11955
SWIDTH 1000 0
SWIDTH1 1000 0
BBX 11 4 1 6
BITMAP
FFE0
9120
2080
4040
ENDCHAR
STARTCHAR uni2EB6
ENCODING 11958
SWIDTH 1000 0
SWIDTH1 1000 0
BBX 11 11 1 0
BITMAP
2080
1100
FFE0
0400
7FC0
0800
FFE0
1000
2000
4000
8000
ENDCHAR
STARTCHAR uni2EB7
ENCODING 11959
SWIDTH 1000 0
SWIDTH1 1000 0
BBX 11 9 1 2
BITMAP
2080
1100
7FC0
0400
0400
7FC0
0400
0400
FFE0
ENDCHAR
STARTCHAR uni2EBB
ENCODING 11963
SWIDTH 1000 0
SWIDTH1 1000 0
BBX 11 8 1 3
BITMAP
0400
3F80
0480
FFE0
0480
3F80
0400
FFE0
ENDCHAR
STARTCHAR uni2ECA
ENCODING 11978
SWIDTH 1000 0
SWIDTH1 1000 0
BBX 5 11 1 -1
BITMAP
78
48
48
78
10
50
58
50
50
58
E0
ENDCHAR
STARTCHAR uni2FF0
ENCODING 12272
SWIDTH 1000 0
SWIDTH1 1000 0
BBX 9 10 2 0
BITMAP
ED80
8800
0880
8080
8800
0880
8080
8800
0880
DB80
ENDCHAR
STARTCHAR uni2FF1
ENCODING 12273
SWIDTH 1000 0
SWIDTH1 1000 0
BBX 9 11 2 0
BITMAP
ED80
0080
8000
8080
0080
B600
8080
0080
8000
8080
DB80
ENDCHAR
STARTCHAR uni2FF2
ENCODING 12274
SWIDTH 1000 0
SWIDTH1 1000 0
BBX 10 10 1 1
BITMAP
B6C0
9240
1200
8040
9240
1200
8040
9240
1200
D9C0
ENDCHAR
STARTCHAR uni2FF3
ENCODING 12275
SWIDTH 1000 0
SWIDTH1 1000 0
BBX 9 10 2 1
BITMAP
ED80
0080
8000
ED80
0000
8080
B680
0000
8080
B680
ENDCHAR
STARTCHAR uni2FF4
ENCODING 12276
SWIDTH 1000 0
SWIDTH1 1000 0
BBX 10 11 1 0
BITMAP
DB40
8040
0000
9A40
8240
1000
9240
9640
0000
8040
DB40
ENDCHAR
STARTCHAR uni2FF5
ENCODING 12277
SWIDTH 1000 0
SWIDTH1 1000 0
BBX 10 10 2 1
BITMAP
EDC0
8040
0000
9640
9240
1200
8040
1240
9200
DB40
ENDCHAR
STARTCHAR uni2FF6
ENCODING 12278
SWIDTH 1000 0
SWIDTH1 1000 0
BBX 9 10 2 0
BITMAP
B680
A280
0000
A280
8080
2200
B680
0080
8000
ED80
ENDCHAR
STARTCHAR uni2FF7
ENCODING 12279
SWIDTH 1000 0
SWIDTH1 1000 0
BBX 9 10 2 0
BITMAP
ED80
8080
0000
B680
A080
0000
A080
B680
0000
B680
ENDCHAR
STARTCHAR uni2FF8
ENCODING 12280
SWIDTH 1000 0
SWIDTH1 1000 0
BBX 9 10 2 0
BITMAP
ED80
8000
0080
9B80
8080
1000
1080
8080
9000
DB80
ENDCHAR
STARTCHAR uni2FF9
ENCODING 12281
SWIDTH 1000 0
SWIDTH1 1000 0
BBX 9 10 2 0
BITMAP
ED80
8080
0000
EE80
8280
0200
8080
8280
0200
ED80
ENDCHAR
STARTCHAR uni2FFA
ENCODING 12282
SWIDTH 1000 0
SWIDTH1 1000 0
BBX 9 10 2 0
BITMAP
DB80
9080
0000
9080
9000
0080
9B80
8000
0080
DB80
ENDCHAR
STARTCHAR uni2FFB
ENCODING 12283
SWIDTH 1000 0
SWIDTH1 1000 0
BBX 10 10 1 0
BITMAP
D700
0100
8000
9B40
0140
9000
DB40
0040
1000
1B40
ENDCHAR
STARTCHAR uni3000
ENCODING 12288
SWIDTH 1000 0
SWIDTH1 1000 0
BBX 1 1 12 -2
BITMAP
00
ENDCHAR
STARTCHAR uni3001
ENCODING 12289
SWIDTH 1000 0
SWIDTH1 1000 0
BBX 3 3 1 -1
BITMAP
80
60
20
ENDCHAR
STARTCHAR uni3002
ENCODING 12290
SWIDTH 1000 0
SWIDTH1 1000 0
BBX 4 4 1 -1
BITMAP
60
90
90
60
ENDCHAR
STARTCHAR uni3003
ENCODING 12291
SWIDTH 1000 0
SWIDTH1 1000 0
BBX 4 4 4 3
BITMAP
50
50
A0
A0
ENDCHAR
STARTCHAR uni3005
ENCODING 12293
SWIDTH 1000 0
SWIDTH1 1000 0
BBX 6 9 3 1
BITMAP
20
20
4C
74
84
08
28
10
08
ENDCHAR
STARTCHAR uni3006
ENCODING 12294
SWIDTH 1000 0
SWIDTH1 1000 0
BBX 8 9 2 1
BITMAP
03
01
62
94
88
94
A0
C0
80
ENDCHAR
STARTCHAR uni3007
ENCODING 12295
SWIDTH 1000 0
SWIDTH1 1000 0
BBX 10 10 1 0
BITMAP
3F00
4080
8040
8040
8040
8040
8040
8040
4080
3F00
ENDCHAR
STARTCHAR uni3008
ENCODING 12296
SWIDTH 1000 0
SWIDTH1 1000 0
BBX 3 10 8 0
BITMAP
20
20
40
40
80
80
40
40
20
20
ENDCHAR
STARTCHAR uni3009
ENCODING 12297
SWIDTH 1000 0
SWIDTH1 1000 0
BBX 3 10 1 0
BITMAP
80
80
40
40
20
20
40
40
80
80
ENDCHAR
STARTCHAR uni300A
ENCODING 12298
SWIDTH 1000 0
SWIDTH1 1000 0
BBX 5 10 6 0
BITMAP
28
28
50
50
A0
A0
50
50
28
28
ENDCHAR
STARTCHAR uni300B
ENCODING 12299
SWIDTH 1000 0
SWIDTH1 1000 0
BBX 5 10 1 0
BITMAP
A0
A0
50
50
28
28
50
50
A0
A0
ENDCHAR
STARTCHAR uni300C
ENCODING 12300
SWIDTH 1000 0
SWIDTH1 1000 0
BBX 4 12 7 -1
BITMAP
F0
80
80
80
80
80
80
80
80
80
80
80
ENDCHAR
STARTCHAR uni300D
ENCODING 12301
SWIDTH 1000 0
SWIDTH1 1000 0
BBX 4 12 1 -1
BITMAP
10
10
10
10
10
10
10
10
10
10
10
F0
ENDCHAR
STARTCHAR uni300E
ENCODING 12302
SWIDTH 1000 0
SWIDTH1 1000 0
BBX 4 12 7 -1
BITMAP
F0
90
B0
A0
A0
A0
A0
A0
A0
A0
A0
E0
ENDCHAR
STARTCHAR uni300F
ENCODING 12303
SWIDTH 1000 0
SWIDTH1 1000 0
BBX 4 12 1 -1
BITMAP
70
50
50
50
50
50
50
50
50
D0
90
F0
ENDCHAR
STARTCHAR uni3010
ENCODING 12304
SWIDTH 1000 0
SWIDTH1 1000 0
BBX 5 12 6 -1
BITMAP
F8
F0
E0
E0
C0
C0
C0
C0
E0
E0
F0
F8
ENDCHAR
STARTCHAR uni3011
ENCODING 12305
SWIDTH 1000 0
SWIDTH1 1000 0
BBX 5 12 1 -1
BITMAP
F8
78
38
38
18
18
18
18
38
38
78
F8
ENDCHAR
STARTCHAR uni3012
ENCODING 12306
SWIDTH 1000 0
SWIDTH1 1000 0
BBX 10 10 1 0
BITMAP
FFC0
0000
0000
FFC0
0400
0400
0400
0400
0400
0400
ENDCHAR
STARTCHAR uni3013
ENCODING 12307
SWIDTH 1000 0
SWIDTH1 1000 0
BBX 12 10 0 0
BITMAP
FFF0
FFF0
FFF0
0000
0000
0000
0000
FFF0
FFF0
FFF0
ENDCHAR
STARTCHAR uni3014
ENCODING 12308
SWIDTH 1000 0
SWIDTH1 1000 0
BBX 3 12 8 -1
BITMAP
20
40
80
80
80
80
80
80
80
80
40
20
ENDCHAR
STARTCHAR uni3015
ENCODING 12309
SWIDTH 1000 0
SWIDTH1 1000 0
BBX 3 12 1 -1
BITMAP
80
40
20
20
20
20
20
20
20
20
40
80
ENDCHAR
STARTCHAR uni3016
ENCODING 12310
SWIDTH 1000 0
SWIDTH1 1000 0
BBX 6 12 5 -1
BITMAP
FC
88
90
90
A0
A0
A0
A0
90
90
88
FC
ENDCHAR
STARTCHAR uni3017
ENCODING 12311
SWIDTH 1000 0
SWIDTH1 1000 0
BBX 6 12 1 -1
BITMAP
FC
44
24
24
14
14
14
14
24
24
44
FC
ENDCHAR
STARTCHAR uni301D
ENCODING 12317
SWIDTH 1000 0
SWIDTH1 1000 0
BBX 6 4 5 7
BITMAP
D8
48
24
24
ENDCHAR
STARTCHAR uni301E
ENCODING 12318
SWIDTH 1000 0
SWIDTH1 1000 0
BBX 6 4 0 7
BITMAP
6C
48
90
90
ENDCHAR
STARTCHAR uni3021
ENCODING 12321
SWIDTH 1000 0
SWIDTH1 1000 0
BBX 2 11 5 0
BITMAP
C0
80
80
80
80
80
80
80
80
80
80
ENDCHAR
STARTCHAR uni3022
ENCODING 12322
SWIDTH 1000 0
SWIDTH1 1000 0
BBX 5 12 4 -1
BITMAP
18
D0
90
90
90
90
90
90
90
90
10
10
ENDCHAR
STARTCHAR uni3023
ENCODING 12323
SWIDTH 1000 0
SWIDTH1 1000 0
BBX 9 12 2 -1
BITMAP
C180
8100
9900
9100
9100
9100
9100
9100
9100
9100
9100
8100
ENDCHAR
STARTCHAR uni3024
ENCODING 12324
SWIDTH 1000 0
SWIDTH1 1000 0
BBX 8 9 1 2
BITMAP
01
01
62
1A
04
0A
11
20
C0
ENDCHAR
STARTCHAR uni3025
ENCODING 12325
SWIDTH 1000 0
SWIDTH1 1000 0
BBX 8 12 2 -1
BITMAP
20
23
42
E4
18
24
42
42
42
42
24
18
ENDCHAR
STARTCHAR uni3026
ENCODING 12326
SWIDTH 1000 0
SWIDTH1 1000 0
BBX 12 4 0 5
BITMAP
0600
0400
0420
FFF0
ENDCHAR
STARTCHAR uni3027
ENCODING 12327
SWIDTH 1000 0
SWIDTH1 1000 0
BBX 11 8 1 2
BITMAP
0C00
0800
0840
FFE0
0000
0000
0040
FFE0
ENDCHAR
STARTCHAR uni3028
ENCODING 12328
SWIDTH 1000 0
SWIDTH1 1000 0
BBX 12 10 0 1
BITMAP
0600
0400
0420
FFF0
0000
0000
7FC0
0000
0040
FFE0
ENDCHAR
STARTCHAR uni3029
ENCODING 12329
SWIDTH 1000 0
SWIDTH1 1000 0
BBX 10 12 1 -1
BITMAP
2000
2080
3FC0
4100
A100
1200
0A00
0400
0A00
1100
2100
C000
ENDCHAR
STARTCHAR uni303E
ENCODING 12350
SWIDTH 1000 0
SWIDTH1 1000 0
BBX 10 12 2 -1
BITMAP
B6C0
8040
9940
2600
8040
8240
3F00
8440
BF40
0800
8040
EDC0
ENDCHAR
STARTCHAR uni3041
ENCODING 12353
SWIDTH 1000 0
SWIDTH1 1000 0
BBX 8 9 2 -1
BITMAP
20
7C
20
3C
6A
A9
B1
62
0C
ENDCHAR
STARTCHAR uni3042
ENCODING 12354
SWIDTH 1000 0
SWIDTH1 1000 0
BBX 10 12 1 -1
BITMAP
1000
FF80
1000
1200
3F00
5280
9440
9440
9440
9840
6080
0300
ENDCHAR
STARTCHAR uni3043
ENCODING 12355
SWIDTH 1000 0
SWIDTH1 1000 0
BBX 8 8 2 -1
BITMAP
80
82
82
81
81
91
50
20
ENDCHAR
STARTCHAR uni3044
ENCODING 12356
SWIDTH 1000 0
SWIDTH1 1000 0
BBX 10 11 1 -1
BITMAP
8000
8000
8100
8080
8080
8040
8040
8040
5040
5000
2000
ENDCHAR
STARTCHAR uni3045
ENCODING 12357
SWIDTH 1000 0
SWIDTH1 1000 0
BBX 6 8 3 -1
BITMAP
78
00
38
C4
04
04
08
70
ENDCHAR
STARTCHAR uni3046
ENCODING 12358
SWIDTH 1000 0
SWIDTH1 1000 0
BBX 8 12 2 -1
BITMAP
70
0C
00
1C
E2
01
01
01
01
02
04
38
ENDCHAR
STARTCHAR uni3047
ENCODING 12359
SWIDTH 1000 0
SWIDTH1 1000 0
BBX 8 8 3 -1
BITMAP
3C
00
7C
08
10
28
48
87
ENDCHAR
STARTCHAR uni3048
ENCODING 12360
SWIDTH 1000 0
SWIDTH1 1000 0
BBX 11 11 1 -1
BITMAP
3E00
0000
0000
7F00
0200
0400
0C00
1200
2200
4200
81E0
ENDCHAR
STARTCHAR uni3049
ENCODING 12361
SWIDTH 1000 0
SWIDTH1 1000 0
BBX 9 9 2 -1
BITMAP
2000
2000
F900
2080
3E00
6100
A100
A100
4E00
ENDCHAR
STARTCHAR uni304A
ENCODING 12362
SWIDTH 1000 0
SWIDTH1 1000 0
BBX 10 12 1 -1
BITMAP
1000
1000
7E80
1040
1000
1F00
3080
5040
9040
9040
9080
6300
ENDCHAR
STARTCHAR uni304B
ENCODING 12363
SWIDTH 1000 0
SWIDTH1 1000 0
BBX 12 12 0 -1
BITMAP
1000
1000
1000
1E40
F120
2110
2110
4110
4100
4200
9200
8C00
ENDCHAR
STARTCHAR uni304C
ENCODING 12364
SWIDTH 1000 0
SWIDTH1 1000 0
BBX 12 12 0 -1
BITMAP
10A0
10A0
1000
1E40
F120
2110
2110
4110
4100
4200
9200
8C00
ENDCHAR
STARTCHAR uni304D
ENCODING 12365
SWIDTH 1000 0
SWIDTH1 1000 0
BBX 10 12 1 -1
BITMAP
0800
0980
FE00
04C0
FF00
0200
3E00
4300
8100
8000
4000
3F00
ENDCHAR
STARTCHAR uni304E
ENCODING 12366
SWIDTH 1000 0
SWIDTH1 1000 0
BBX 10 12 1 -1
BITMAP
0940
0940
FE00
0480
FF00
0200
3E00
4300
8100
8000
4000
3F00
ENDCHAR
STARTCHAR uni304F
ENCODING 12367
SWIDTH 1000 0
SWIDTH1 1000 0
BBX 6 11 2 -1
BITMAP
08
10
20
40
80
80
40
20
10
08
04
ENDCHAR
STARTCHAR uni3050
ENCODING 12368
SWIDTH 1000 0
SWIDTH1 1000 0
BBX 9 11 2 -1
BITMAP
0800
1000
2280
4280
8000
8000
4000
2000
1000
0800
0400
ENDCHAR
STARTCHAR uni3051
ENCODING 12369
SWIDTH 1000 0
SWIDTH1 1000 0
BBX 11 11 1 -1
BITMAP
0100
8100
8100
9FE0
8100
8100
8100
8100
8100
8200
0C00
ENDCHAR
STARTCHAR uni3052
ENCODING 12370
SWIDTH 1000 0
SWIDTH1 1000 0
BBX 11 12 1 -1
BITMAP
00A0
00A0
8100
8100
9FE0
8100
8100
8100
8100
8100
8200
0C00
ENDCHAR
STARTCHAR uni3053
ENCODING 12371
SWIDTH 1000 0
SWIDTH1 1000 0
BBX 8 10 2 -1
BITMAP
7E
00
00
00
00
00
80
80
80
7F
ENDCHAR
STARTCHAR uni3054
ENCODING 12372
SWIDTH 1000 0
SWIDTH1 1000 0
BBX 10 12 2 -1
BITMAP
0140
0140
7E00
0000
0000
0000
0000
0000
8000
8000
8000
7F00
ENDCHAR
STARTCHAR uni3055
ENCODING 12373
SWIDTH 1000 0
SWIDTH1 1000 0
BBX 9 12 2 -1
BITMAP
0800
0800
FF80
0400
0400
0200
3E00
4300
8100
8000
4000
3E00
ENDCHAR
STARTCHAR uni3056
ENCODING 12374
SWIDTH 1000 0
SWIDTH1 1000 0
BBX 9 12 2 -1
BITMAP
0A80
0A80
0800
FF80
0400
0200
3E00
4300
8100
8000
4000
3E00
ENDCHAR
STARTCHAR uni3057
ENCODING 12375
SWIDTH 1000 0
SWIDTH1 1000 0
BBX 8 11 2 -1
BITMAP
80
80
80
80
80
80
81
81
82
44
38
ENDCHAR
STARTCHAR uni3058
ENCODING 12376
SWIDTH 1000 0
SWIDTH1 1000 0
BBX 8 11 2 -1
BITMAP
8A
8A
80
80
80
80
81
81
82
44
38
ENDCHAR
STARTCHAR uni3059
ENCODING 12377
SWIDTH 1000 0
SWIDTH1 1000 0
BBX 11 12 0 -1
BITMAP
0100
0100
FFE0
0100
0F00
1100
1100
1300
0D00
0100
0200
0C00
ENDCHAR
STARTCHAR uni305A
ENCODING 12378
SWIDTH 1000 0
SWIDTH1 1000 0
BBX 12 12 0 -1
BITMAP
0150
0150
FFE0
0100
0F00
1100
1100
1300
0D00
0100
0200
0C00
ENDCHAR
STARTCHAR uni305B
ENCODING 12379
SWIDTH 1000 0
SWIDTH1 1000 0
BBX 12 11 0 -1
BITMAP
1040
1040
1040
FFF0
1040
1040
1380
1000
1000
1000
0FE0
ENDCHAR
STARTCHAR uni305C
ENCODING 12380
SWIDTH 1000 0
SWIDTH1 1000 0
BBX 12 12 0 -1
BITMAP
0050
1050
1080
1080
FFF0
1080
1080
1300
1000
1000
1000
0FE0
ENDCHAR
STARTCHAR uni305D
ENCODING 12381
SWIDTH 1000 0
SWIDTH1 1000 0
BBX 10 11 1 -1
BITMAP
3F00
0200
0C00
1000
FFC0
0800
1000
1000
1000
0800
0700
ENDCHAR
STARTCHAR uni305E
ENCODING 12382
SWIDTH 1000 0
SWIDTH1 1000 0
BBX 11 12 1 -1
BITMAP
00A0
3EA0
0400
0800
1000
FFC0
0800
1000
1000
1000
0800
0700
ENDCHAR
STARTCHAR uni305F
ENCODING 12383
SWIDTH 1000 0
SWIDTH1 1000 0
BBX 11 12 1 -1
BITMAP
1000
1000
FC00
1000
2000
23C0
2000
4000
4400
4400
8400
83E0
ENDCHAR
STARTCHAR uni3060
ENCODING 12384
SWIDTH 1000 0
SWIDTH1 1000 0
BBX 11 12 1 -1
BITMAP
10A0
10A0
FC00
1000
2000
23C0
2000
4000
4400
4400
8400
83E0
ENDCHAR
STARTCHAR uni3061
ENCODING 12385
SWIDTH 1000 0
SWIDTH1 1000 0
BBX 9 12 1 -1
BITMAP
1000
1000
FF00
1000
2000
2E00
7100
4080
0080
0080
0300
1C00
ENDCHAR
STARTCHAR uni3062
ENCODING 12386
SWIDTH 1000 0
SWIDTH1 1000 0
BBX 10 12 1 -1
BITMAP
1140
1140
FE00
1000
2000
2E00
7100
4080
0080
0080
0300
1C00
ENDCHAR
STARTCHAR uni3063
ENCODING 12387
SWIDTH 1000 0
SWIDTH1 1000 0
BBX 8 6 2 -1
BITMAP
1E
E1
01
01
02
1C
ENDCHAR
STARTCHAR uni3064
ENCODING 12388
SWIDTH 1000 0
SWIDTH1 1000 0
BBX 11 9 1 0
BITMAP
0F00
F0C0
0020
0020
0020
0020
0040
0180
1E00
ENDCHAR
STARTCHAR uni3065
ENCODING 12389
SWIDTH 1000 0
SWIDTH1 1000 0
BBX 11 11 1 0
BITMAP
00A0
00A0
0F00
F0C0
0020
0020
0020
0020
0040
0180
1E00
ENDCHAR
STARTCHAR uni3066
ENCODING 12390
SWIDTH 1000 0
SWIDTH1 1000 0
BBX 10 11 1 -1
BITMAP
0FC0
F200
0400
0800
1000
1000
1000
1000
1000
0800
0700
ENDCHAR
STARTCHAR uni3067
ENCODING 12391
SWIDTH 1000 0
SWIDTH1 1000 0
BBX 11 11 1 -1
BITMAP
0FC0
F200
0420
08A0
1080
1000
1000
1000
1000
0800
0700
ENDCHAR
STARTCHAR uni3068
ENCODING 12392
SWIDTH 1000 0
SWIDTH1 1000 0
BBX 8 12 2 -1
BITMAP
20
20
20
10
13
1C
30
40
80
80
80
7F
ENDCHAR
STARTCHAR uni3069
ENCODING 12393
SWIDTH 1000 0
SWIDTH1 1000 0
BBX 9 12 2 -1
BITMAP
2280
2280
2000
1000
1300
1C00
3000
4000
8000
8000
8000
7F00
ENDCHAR
STARTCHAR uni306A
ENCODING 12394
SWIDTH 1000 0
SWIDTH1 1000 0
BBX 11 12 1 -1
BITMAP
1000
1000
F980
2060
2000
4100
4100
8100
8700
0980
0940
0600
ENDCHAR
STARTCHAR uni306B
ENCODING 12395
SWIDTH 1000 0
SWIDTH1 1000 0
BBX 10 11 1 -1
BITMAP
8000
8FC0
8000
8000
8000
8000
8800
8800
8800
87C0
8000
ENDCHAR
STARTCHAR uni306C
ENCODING 12396
SWIDTH 1000 0
SWIDTH1 1000 0
BBX 11 12 0 -1
BITMAP
0400
4400
4F80
5440
6420
4420
A820
A820
9020
99A0
6240
01A0
ENDCHAR
STARTCHAR uni306D
ENCODING 12397
SWIDTH 1000 0
SWIDTH1 1000 0
BBX 10 12 1 -1
BITMAP
2000
2000
F700
2880
3040
2040
6040
6040
A040
A740
2880
2740
ENDCHAR
STARTCHAR uni306E
ENCODING 12398
SWIDTH 1000 0
SWIDTH1 1000 0
BBX 11 11 0 -1
BITMAP
1F00
2480
4440
8420
8420
8420
8420
8820
4840
3080
0300
ENDCHAR
STARTCHAR uni306F
ENCODING 12399
SWIDTH 1000 0
SWIDTH1 1000 0
BBX 10 11 1 -1
BITMAP
8100
8100
9FC0
8100
8100
8100
8100
8F00
9180
9140
8E00
ENDCHAR
STARTCHAR uni3070
ENCODING 12400
SWIDTH 1000 0
SWIDTH1 1000 0
BBX 11 12 1 -1
BITMAP
00A0
80A0
8100
8100
9FC0
8100
8100
8100
8F00
9180
9140
8E00
ENDCHAR
STARTCHAR uni3071
ENCODING 12401
SWIDTH 1000 0
SWIDTH1 1000 0
BBX 11 12 1 -1
BITMAP
0040
80A0
8140
8100
9FC0
8100
8100
8100
8F00
9180
9140
8E00
ENDCHAR
STARTCHAR uni3072
ENCODING 12402
SWIDTH 1000 0
SWIDTH1 1000 0
BBX 11 11 1 -1
BITMAP
F880
1080
20C0
40C0
40A0
80A0
8080
8080
8100
4300
3C00
ENDCHAR
STARTCHAR uni3073
ENCODING 12403
SWIDTH 1000 0
SWIDTH1 1000 0
BBX 11 12 1 -1
BITMAP
00A0
F8A0
1000
2080
40C0
40C0
80A0
80A0
8080
8100
4300
3C00
ENDCHAR
STARTCHAR uni3074
ENCODING 12404
SWIDTH 1000 0
SWIDTH1 1000 0
BBX 11 12 1 -1
BITMAP
0040
F8A0
1040
2000
4080
40C0
80C0
80A0
80A0
8100
4300
3C00
ENDCHAR
STARTCHAR uni3075
ENCODING 12405
SWIDTH 1000 0
SWIDTH1 1000 0
BBX 11 11 1 -1
BITMAP
1C00
0300
0000
0800
0800
4840
4440
8220
8120
2100
1E00
ENDCHAR
STARTCHAR uni3076
ENCODING 12406
SWIDTH 1000 0
SWIDTH1 1000 0
BBX 11 11 1 -1
BITMAP
1800
06A0
00A0
0800
0800
4840
4440
8220
8120
2100
1E00
ENDCHAR
STARTCHAR uni3077
ENCODING 12407
SWIDTH 1000 0
SWIDTH1 1000 0
BBX 11 11 1 -1
BITMAP
1840
06A0
0040
0800
0800
4840
4440
8220
8120
2100
1E00
ENDCHAR
STARTCHAR uni3078
ENCODING 12408
SWIDTH 1000 0
SWIDTH1 1000 0
BBX 12 7 0 1
BITMAP
0C00
1200
2100
4080
8040
0020
0010
ENDCHAR
STARTCHAR uni3079
ENCODING 12409
SWIDTH 1000 0
SWIDTH1 1000 0
BBX 12 8 0 1
BITMAP
00A0
0CA0
1200
2100
4080
8040
0020
0010
ENDCHAR
STARTCHAR uni307A
ENCODING 12410
SWIDTH 1000 0
SWIDTH1 1000 0
BBX 12 9 0 1
BITMAP
0040
00A0
0C40
1200
2100
4080
8040
0020
0010
ENDCHAR
STARTCHAR uni307B
ENCODING 12411
SWIDTH 1000 0
SWIDTH1 1000 0
BBX 10 11 1 -1
BITMAP
9FC0
8100
8100
9FC0
8100
8100
8100
8F00
9180
9140
8E00
ENDCHAR
STARTCHAR uni307C
ENCODING 12412
SWIDTH 1000 0
SWIDTH1 1000 0
BBX 11 12 1 -1
BITMAP
00A0
80A0
8000
9FC0
8100
9FC0
8100
8100
8F00
9180
9140
8E00
ENDCHAR
STARTCHAR uni307D
ENCODING 12413
SWIDTH 1000 0
SWIDTH1 1000 0
BBX 11 12 1 -1
BITMAP
0040
80A0
8040
9FC0
8100
9FC0
8100
8100
8F00
9180
9140
8E00
ENDCHAR
STARTCHAR uni307E
ENCODING 12414
SWIDTH 1000 0
SWIDTH1 1000 0
BBX 9 12 2 -1
BITMAP
0800
0800
FF80
0800
0800
7F00
0800
0800
7800
8C00
8B00
7080
ENDCHAR
STARTCHAR uni307F
ENCODING 12415
SWIDTH 1000 0
SWIDTH1 1000 0
BBX 12 10 0 -1
BITMAP
3E00
0200
0240
0440
3F40
48E0
9050
9040
6080
0300
ENDCHAR
STARTCHAR uni3080
ENCODING 12416
SWIDTH 1000 0
SWIDTH1 1000 0
BBX 11 12 1 -1
BITMAP
1000
1000
FC40
1020
7000
9000
9000
A000
6000
2040
2040
1F80
ENDCHAR
STARTCHAR uni3081
ENCODING 12417
SWIDTH 1000 0
SWIDTH1 1000 0
BBX 11 12 1 -1
BITMAP
0200
2200
2F00
32C0
6240
A220
9420
9420
8820
9440
6080
0300
ENDCHAR
STARTCHAR uni3082
ENCODING 12418
SWIDTH 1000 0
SWIDTH1 1000 0
BBX 9 12 1 -1
BITMAP
1000
9000
7C00
2000
2000
A100
7C80
2080
2080
2080
1100
0E00
ENDCHAR
STARTCHAR uni3083
ENCODING 12419
SWIDTH 1000 0
SWIDTH1 1000 0
BBX 8 8 2 -1
BITMAP
04
44
4E
F1
21
26
10
10
ENDCHAR
STARTCHAR uni3084
ENCODING 12420
SWIDTH 1000 0
SWIDTH1 1000 0
BBX 11 11 1 -1
BITMAP
2200
2200
2780
F840
1020
1020
1040
0980
0800
0800
0800
ENDCHAR
STARTCHAR uni3085
ENCODING 12421
SWIDTH 1000 0
SWIDTH1 1000 0
BBX 8 9 2 -1
BITMAP
08
9E
A9
C9
89
A9
9E
08
30
ENDCHAR
STARTCHAR uni3086
ENCODING 12422
SWIDTH 1000 0
SWIDTH1 1000 0
BBX 10 12 1 -1
BITMAP
0200
8200
8F00
9280
A240
C240
C240
8240
9280
8F00
0400
1800
ENDCHAR
STARTCHAR uni3087
ENCODING 12423
SWIDTH 1000 0
SWIDTH1 1000 0
BBX 8 8 2 -1
BITMAP
08
08
0E
08
08
78
8E
71
ENDCHAR
STARTCHAR uni3088
ENCODING 12424
SWIDTH 1000 0
SWIDTH1 1000 0
BBX 9 11 1 -1
BITMAP
0800
0800
0F80
0800
0800
0800
0800
7800
8E00
8900
7080
ENDCHAR
STARTCHAR uni3089
ENCODING 12425
SWIDTH 1000 0
SWIDTH1 1000 0
BBX 9 12 2 -1
BITMAP
3800
0600
0000
4000
4000
5E00
E100
8080
0080
0080
0100
1E00
ENDCHAR
STARTCHAR uni308A
ENCODING 12426
SWIDTH 1000 0
SWIDTH1 1000 0
BBX 8 12 2 -1
BITMAP
01
81
81
81
81
A1
A1
41
02
02
0C
30
ENDCHAR
STARTCHAR uni308B
ENCODING 12427
SWIDTH 1000 0
SWIDTH1 1000 0
BBX 10 11 1 -1
BITMAP
7E00
0400
0800
1000
3F00
6080
8040
1840
2440
2280
1F00
ENDCHAR
STARTCHAR uni308C
ENCODING 12428
SWIDTH 1000 0
SWIDTH1 1000 0
BBX 11 12 1 -1
BITMAP
2000
2000
F700
2880
3080
2080
6080
6080
A080
A080
20A0
2040
ENDCHAR
STARTCHAR uni308D
ENCODING 12429
SWIDTH 1000 0
SWIDTH1 1000 0
BBX 9 11 2 -1
BITMAP
7E00
0400
0800
1000
3E00
6100
8080
0080
0080
0100
3E00
ENDCHAR
STARTCHAR uni308E
ENCODING 12430
SWIDTH 1000 0
SWIDTH1 1000 0
BBX 9 8 2 -1
BITMAP
2000
3000
EE00
3100
6080
6080
A100
2600
ENDCHAR
STARTCHAR uni308F
ENCODING 12431
SWIDTH 1000 0
SWIDTH1 1000 0
BBX 11 12 1 -1
BITMAP
2000
2000
F000
2780
2840
7020
6020
A020
A020
2040
2080
2300
ENDCHAR
STARTCHAR uni3090
ENCODING 12432
SWIDTH 1000 0
SWIDTH1 1000 0
BBX 11 11 1 -1
BITMAP
3C00
0400
0400
0F80
3840
4820
8820
9020
9320
64C0
0380
ENDCHAR
STARTCHAR uni3091
ENCODING 12433
SWIDTH 1000 0
SWIDTH1 1000 0
BBX 11 11 1 -1
BITMAP
1F00
0200
0400
0F00
1080
2C80
0F00
1000
30C0
4920
8660
ENDCHAR
STARTCHAR uni3092
ENCODING 12434
SWIDTH 1000 0
SWIDTH1 1000 0
BBX 10 12 1 -1
BITMAP
0800
0980
FE00
1000
1C00
22C0
4700
8A00
1200
1000
1000
0FC0
ENDCHAR
STARTCHAR uni3093
ENCODING 12435
SWIDTH 1000 0
SWIDTH1 1000 0
BBX 11 12 0 -1
BITMAP
0400
0400
0800
0800
1000
1000
3C00
2200
4220
4220
8240
8180
ENDCHAR
STARTCHAR uni309B
ENCODING 12443
SWIDTH 1000 0
SWIDTH1 1000 0
BBX 4 3 0 8
BITMAP
20
90
40
ENDCHAR
STARTCHAR uni309C
ENCODING 12444
SWIDTH 1000 0
SWIDTH1 1000 0
BBX 3 3 0 8
BITMAP
40
A0
40
ENDCHAR
STARTCHAR uni309D
ENCODING 12445
SWIDTH 1000 0
SWIDTH1 1000 0
BBX 4 6 3 2
BITMAP
80
80
40
20
30
C0
ENDCHAR
STARTCHAR uni309E
ENCODING 12446
SWIDTH 1000 0
SWIDTH1 1000 0
BBX 7 7 3 2
BITMAP
04
92
88
40
20
30
C0
ENDCHAR
STARTCHAR uni30A1
ENCODING 12449
SWIDTH 1000 0
SWIDTH1 1000 0
BBX 8 8 2 -1
BITMAP
FF
01
12
14
10
10
20
40
ENDCHAR
STARTCHAR uni30A2
ENCODING 12450
SWIDTH 1000 0
SWIDTH1 1000 0
BBX 10 10 1 -1
BITMAP
FFC0
0040
0080
0900
0A00
0800
1000
1000
2000
4000
ENDCHAR
STARTCHAR uni30A3
ENCODING 12451
SWIDTH 1000 0
SWIDTH1 1000 0
BBX 6 8 3 -1
BITMAP
04
08
10
30
D0
10
10
10
ENDCHAR
STARTCHAR uni30A4
ENCODING 12452
SWIDTH 1000 0
SWIDTH1 1000 0
BBX 9 11 2 -1
BITMAP
0080
0100
0200
0400
0C00
3400
C400
0400
0400
0400
0400
ENDCHAR
STARTCHAR uni30A5
ENCODING 12453
SWIDTH 1000 0
SWIDTH1 1000 0
BBX 7 9 3 -1
BITMAP
10
10
FE
82
82
82
04
08
30
ENDCHAR
STARTCHAR uni30A6
ENCODING 12454
SWIDTH 1000 0
SWIDTH1 1000 0
BBX 9 12 2 -1
BITMAP
0800
0800
FF80
8080
8080
8080
0080
0100
0100
0200
0C00
3000
ENDCHAR
STARTCHAR uni30A7
ENCODING 12455
SWIDTH 1000 0
SWIDTH1 1000 0
BBX 9 6 2 0
BITMAP
7F00
0800
0800
0800
0800
FF80
ENDCHAR
STARTCHAR uni30A8
ENCODING 12456
SWIDTH 1000 0
SWIDTH1 1000 0
BBX 11 8 1 0
BITMAP
7FC0
0400
0400
0400
0400
0400
0400
FFE0
ENDCHAR
STARTCHAR uni30A9
ENCODING 12457
SWIDTH 1000 0
SWIDTH1 1000 0
BBX 8 8 2 -1
BITMAP
04
04
FF
0C
14
24
C4
1C
ENDCHAR
STARTCHAR uni30AA
ENCODING 12458
SWIDTH 1000 0
SWIDTH1 1000 0
BBX 11 11 1 -1
BITMAP
0100
0100
FFE0
0300
0500
0900
1100
2100
C100
0100
0600
ENDCHAR
STARTCHAR uni30AB
ENCODING 12459
SWIDTH 1000 0
SWIDTH1 1000 0
BBX 9 12 1 -1
BITMAP
1000
1000
1000
FF80
1080
1080
1080
1080
2080
2080
4080
8700
ENDCHAR
STARTCHAR uni30AC
ENCODING 12460
SWIDTH 1000 0
SWIDTH1 1000 0
BBX 10 12 1 -1
BITMAP
1140
1140
1000
FF80
1080
1080
1080
1080
2080
2080
4080
8700
ENDCHAR
STARTCHAR uni30AD
ENCODING 12461
SWIDTH 1000 0
SWIDTH1 1000 0
BBX 10 12 1 -1
BITMAP
0800
0800
0800
7F80
0800
0800
0800
FFC0
0400
0400
0400
0400
ENDCHAR
STARTCHAR uni30AE
ENCODING 12462
SWIDTH 1000 0
SWIDTH1 1000 0
BBX 10 12 1 -1
BITMAP
0940
0940
0800
7F80
0800
0800
0800
FFC0
0400
0400
0400
0400
ENDCHAR
STARTCHAR uni30AF
ENCODING 12463
SWIDTH 1000 0
SWIDTH1 1000 0
BBX 9 12 2 -1
BITMAP
1000
1000
3F80
2080
4080
8080
0100
0100
0200
0400
1800
6000
ENDCHAR
STARTCHAR uni30B0
ENCODING 12464
SWIDTH 1000 0
SWIDTH1 1000 0
BBX 10 12 2 -1
BITMAP
1140
1140
2000
3F80
4080
8080
0100
0100
0200
0400
1800
6000
ENDCHAR
STARTCHAR uni30B1
ENCODING 12465
SWIDTH 1000 0
SWIDTH1 1000 0
BBX 10 11 1 -1
BITMAP
1000
1000
3FC0
2100
4100
8100
0100
0200
0200
0400
1800
ENDCHAR
STARTCHAR uni30B2
ENCODING 12466
SWIDTH 1000 0
SWIDTH1 1000 0
BBX 11 12 1 -1
BITMAP
00A0
10A0
1000
3FC0
2100
4100
8100
0100
0200
0200
0400
1800
ENDCHAR
STARTCHAR uni30B3
ENCODING 12467
SWIDTH 1000 0
SWIDTH1 1000 0
BBX 8 9 2 -1
BITMAP
FF
01
01
01
01
01
01
FF
01
ENDCHAR
STARTCHAR uni30B4
ENCODING 12468
SWIDTH 1000 0
SWIDTH1 1000 0
BBX 9 12 2 -1
BITMAP
0280
0280
0000
FF00
0100
0100
0100
0100
0100
0100
FF00
0100
ENDCHAR
STARTCHAR uni30B5
ENCODING 12469
SWIDTH 1000 0
SWIDTH1 1000 0
BBX 10 11 1 -1
BITMAP
2100
2100
FFC0
2100
2100
2100
0100
0200
0200
0400
1800
ENDCHAR
STARTCHAR uni30B6
ENCODING 12470
SWIDTH 1000 0
SWIDTH1 1000 0
BBX 11 12 1 -1
BITMAP
00A0
20A0
2100
FFC0
2100
2100
2100
0100
0200
0200
0400
1800
ENDCHAR
STARTCHAR uni30B7
ENCODING 12471
SWIDTH 1000 0
SWIDTH1 1000 0
BBX 10 10 1 -1
BITMAP
6000
1000
0040
C040
2080
0080
0100
0200
0C00
7000
ENDCHAR
STARTCHAR uni30B8
ENCODING 12472
SWIDTH 1000 0
SWIDTH1 1000 0
BBX 11 11 1 -1
BITMAP
00A0
60A0
1000
0040
C040
2080
0080
0100
0200
0C00
7000
ENDCHAR
STARTCHAR uni30B9
ENCODING 12473
SWIDTH 1000 0
SWIDTH1 1000 0
BBX 10 10 1 -1
BITMAP
7F00
0100
0100
0200
0200
0400
0A00
1100
2080
C040
ENDCHAR
STARTCHAR uni30BA
ENCODING 12474
SWIDTH 1000 0
SWIDTH1 1000 0
BBX 11 12 1 -1
BITMAP
00A0
00A0
7F00
0100
0100
0200
0200
0400
0A00
1100
2080
C040
ENDCHAR
STARTCHAR uni30BB
ENCODING 12475
SWIDTH 1000 0
SWIDTH1 1000 0
BBX 10 11 1 -1
BITMAP
2000
2000
27C0
F840
2080
2100
2200
2000
2000
2000
1FC0
ENDCHAR
STARTCHAR uni30BC
ENCODING 12476
SWIDTH 1000 0
SWIDTH1 1000 0
BBX 11 12 1 -1
BITMAP
00A0
20A0
2000
27C0
F840
2080
2100
2200
2000
2000
2000
1FC0
ENDCHAR
STARTCHAR uni30BD
ENCODING 12477
SWIDTH 1000 0
SWIDTH1 1000 0
BBX 9 10 2 -1
BITMAP
8080
4080
4080
0080
0100
0100
0200
0400
1800
6000
ENDCHAR
STARTCHAR uni30BE
ENCODING 12478
SWIDTH 1000 0
SWIDTH1 1000 0
BBX 10 12 2 -1
BITMAP
0140
0140
8000
4080
4080
0100
0100
0200
0200
0400
1800
6000
ENDCHAR
STARTCHAR uni30BF
ENCODING 12479
SWIDTH 1000 0
SWIDTH1 1000 0
BBX 9 12 2 -1
BITMAP
1000
1000
1F80
2080
2080
4080
9900
0500
0200
0500
1800
6000
ENDCHAR
STARTCHAR uni30C0
ENCODING 12480
SWIDTH 1000 0
SWIDTH1 1000 0
BBX 10 12 2 -1
BITMAP
1140
1140
1000
3F80
2080
4080
9900
0500
0200
0500
1800
6000
ENDCHAR
STARTCHAR uni30C1
ENCODING 12481
SWIDTH 1000 0
SWIDTH1 1000 0
BBX 10 11 1 -1
BITMAP
0380
7C00
0400
0400
FFC0
0400
0400
0400
0400
0800
3000
ENDCHAR
STARTCHAR uni30C2
ENCODING 12482
SWIDTH 1000 0
SWIDTH1 1000 0
BBX 10 12 1 -1
BITMAP
0100
0600
7D40
0540
0400
FFC0
0400
0400
0400
0400
0800
3000
ENDCHAR
STARTCHAR uni30C3
ENCODING 12483
SWIDTH 1000 0
SWIDTH1 1000 0
BBX 8 7 2 -1
BITMAP
11
89
41
02
02
04
18
ENDCHAR
STARTCHAR uni30C4
ENCODING 12484
SWIDTH 1000 0
SWIDTH1 1000 0
BBX 9 10 2 -1
BITMAP
1000
8880
4880
4080
0080
0100
0100
0200
0C00
3000
ENDCHAR
STARTCHAR uni30C5
ENCODING 12485
SWIDTH 1000 0
SWIDTH1 1000 0
BBX 10 12 2 -1
BITMAP
0140
0140
1000
8880
4880
4080
0080
0100
0100
0200
0C00
3000
ENDCHAR
STARTCHAR uni30C6
ENCODING 12486
SWIDTH 1000 0
SWIDTH1 1000 0
BBX 10 10 1 -1
BITMAP
7F80
0000
0000
FFC0
0400
0400
0400
0400
0800
3000
ENDCHAR
STARTCHAR uni30C7
ENCODING 12487
SWIDTH 1000 0
SWIDTH1 1000 0
BBX 11 12 1 -1
BITMAP
00A0
00A0
7F00
0000
0000
FFC0
0400
0400
0400
0400
0800
3000
ENDCHAR
STARTCHAR uni30C8
ENCODING 12488
SWIDTH 1000 0
SWIDTH1 1000 0
BBX 5 11 5 -1
BITMAP
80
80
80
80
E0
98
80
80
80
80
80
ENDCHAR
STARTCHAR uni30C9
ENCODING 12489
SWIDTH 1000 0
SWIDTH1 1000 0
BBX 7 11 5 -1
BITMAP
8A
8A
80
80
E0
98
80
80
80
80
80
ENDCHAR
STARTCHAR uni30CA
ENCODING 12490
SWIDTH 1000 0
SWIDTH1 1000 0
BBX 10 11 1 -1
BITMAP
0400
0400
0400
FFC0
0400
0400
0400
0800
0800
1000
6000
ENDCHAR
STARTCHAR uni30CB
ENCODING 12491
SWIDTH 1000 0
SWIDTH1 1000 0
BBX 10 8 1 0
BITMAP
7F80
0000
0000
0000
0000
0000
0000
FFC0
ENDCHAR
STARTCHAR uni30CC
ENCODING 12492
SWIDTH 1000 0
SWIDTH1 1000 0
BBX 9 10 2 -1
BITMAP
7F80
0080
0080
3100
0D00
0200
0500
0880
3000
C000
ENDCHAR
STARTCHAR uni30CD
ENCODING 12493
SWIDTH 1000 0
SWIDTH1 1000 0
BBX 10 12 1 -1
BITMAP
0400
0400
7F80
0080
0100
0200
0400
1D80
E440
0400
0400
0400
ENDCHAR
STARTCHAR uni30CE
ENCODING 12494
SWIDTH 1000 0
SWIDTH1 1000 0
BBX 8 10 1 0
BITMAP
01
01
01
02
02
04
04
08
30
C0
ENDCHAR
STARTCHAR uni30CF
ENCODING 12495
SWIDTH 1000 0
SWIDTH1 1000 0
BBX 10 8 1 0
BITMAP
2100
2080
2080
2040
2040
4040
4040
8040
ENDCHAR
STARTCHAR uni30D0
ENCODING 12496
SWIDTH 1000 0
SWIDTH1 1000 0
BBX 10 11 1 0
BITMAP
0140
0140
0000
2100
2080
2080
2040
2040
4040
4040
8040
ENDCHAR
STARTCHAR uni30D1
ENCODING 12497
SWIDTH 1000 0
SWIDTH1 1000 0
BBX 10 11 1 0
BITMAP
0080
0140
0080
2000
2100
2080
2080
2040
4040
4040
8040
ENDCHAR
STARTCHAR uni30D2
ENCODING 12498
SWIDTH 1000 0
SWIDTH1 1000 0
BBX 9 11 2 -1
BITMAP
8000
8000
8300
8C00
F000
8000
8000
8000
8000
8000
7F80
ENDCHAR
STARTCHAR uni30D3
ENCODING 12499
SWIDTH 1000 0
SWIDTH1 1000 0
BBX 9 12 2 -1
BITMAP
0280
8280
8000
8200
8C00
F000
8000
8000
8000
8000
8000
7F00
ENDCHAR
STARTCHAR uni30D4
ENCODING 12500
SWIDTH 1000 0
SWIDTH1 1000 0
BBX 10 12 2 -1
BITMAP
0080
8140
8080
8200
8C00
F000
8000
8000
8000
8000
8000
7F00
ENDCHAR
STARTCHAR uni30D5
ENCODING 12501
SWIDTH 1000 0
SWIDTH1 1000 0
BBX 9 10 2 -1
BITMAP
FF80
0080
0080
0080
0100
0100
0200
0400
1800
6000
ENDCHAR
STARTCHAR uni30D6
ENCODING 12502
SWIDTH 1000 0
SWIDTH1 1000 0
BBX 10 12 2 -1
BITMAP
0140
0140
0000
FF80
0080
0080
0100
0100
0200
0400
1800
6000
ENDCHAR
STARTCHAR uni30D7
ENCODING 12503
SWIDTH 1000 0
SWIDTH1 1000 0
BBX 10 12 2 -1
BITMAP
0080
0140
0080
FF80
0080
0080
0100
0100
0200
0400
1800
6000
ENDCHAR
STARTCHAR uni30D8
ENCODING 12504
SWIDTH 1000 0
SWIDTH1 1000 0
BBX 11 7 1 1
BITMAP
1800
2400
4200
8100
0080
0040
0020
ENDCHAR
STARTCHAR uni30D9
ENCODING 12505
SWIDTH 1000 0
SWIDTH1 1000 0
BBX 11 8 1 1
BITMAP
00A0
18A0
2400
4200
8100
0080
0040
0020
ENDCHAR
STARTCHAR uni30DA
ENCODING 12506
SWIDTH 1000 0
SWIDTH1 1000 0
BBX 11 9 1 1
BITMAP
0040
00A0
1840
2400
4200
8100
0080
0040
0020
ENDCHAR
STARTCHAR uni30DB
ENCODING 12507
SWIDTH 1000 0
SWIDTH1 1000 0
BBX 11 12 1 -1
BITMAP
0400
0400
0400
7FC0
0400
0400
2480
2440
4420
8420
0400
0400
ENDCHAR
STARTCHAR uni30DC
ENCODING 12508
SWIDTH 1000 0
SWIDTH1 1000 0
BBX 11 12 1 -1
BITMAP
04A0
04A0
0400
7FC0
0400
0400
2480
2440
4420
8420
0400
0400
ENDCHAR
STARTCHAR uni30DD
ENCODING 12509
SWIDTH 1000 0
SWIDTH1 1000 0
BBX 11 12 1 -1
BITMAP
0440
04A0
0440
7FC0
0400
0400
2480
2440
4420
8420
0400
0400
ENDCHAR
STARTCHAR uni30DE
ENCODING 12510
SWIDTH 1000 0
SWIDTH1 1000 0
BBX 11 9 1 -1
BITMAP
FFE0
0020
0040
0080
1100
0A00
0400
0200
0200
ENDCHAR
STARTCHAR uni30DF
ENCODING 12511
SWIDTH 1000 0
SWIDTH1 1000 0
BBX 7 10 3 -1
BITMAP
70
0C
00
70
0C
00
00
E0
1C
02
ENDCHAR
STARTCHAR uni30E0
ENCODING 12512
SWIDTH 1000 0
SWIDTH1 1000 0
BBX 10 11 1 -1
BITMAP
0800
0800
0800
0800
1000
1100
1080
2080
27C0
F840
0040
ENDCHAR
STARTCHAR uni30E1
ENCODING 12513
SWIDTH 1000 0
SWIDTH1 1000 0
BBX 8 11 1 -1
BITMAP
01
01
01
02
32
0C
06
09
10
20
C0
ENDCHAR
STARTCHAR uni30E2
ENCODING 12514
SWIDTH 1000 0
SWIDTH1 1000 0
BBX 11 10 1 -1
BITMAP
7FC0
0800
0800
0800
FFE0
0800
0800
0800
0800
07C0
ENDCHAR
STARTCHAR uni30E3
ENCODING 12515
SWIDTH 1000 0
SWIDTH1 1000 0
BBX 8 8 2 -1
BITMAP
20
2F
F1
22
14
10
10
10
ENDCHAR
STARTCHAR uni30E4
ENCODING 12516
SWIDTH 1000 0
SWIDTH1 1000 0
BBX 11 11 1 -1
BITMAP
1000
1000
17E0
F820
0840
0880
0900
0400
0400
0400
0400
ENDCHAR
STARTCHAR uni30E5
ENCODING 12517
SWIDTH 1000 0
SWIDTH1 1000 0
BBX 8 5 2 0
BITMAP
7C
04
04
04
FF
ENDCHAR
STARTCHAR uni30E6
ENCODING 12518
SWIDTH 1000 0
SWIDTH1 1000 0
BBX 10 9 1 0
BITMAP
7F00
0100
0100
0100
0200
0200
0200
0200
FFC0
ENDCHAR
STARTCHAR uni30E7
ENCODING 12519
SWIDTH 1000 0
SWIDTH1 1000 0
BBX 6 7 3 -1
BITMAP
FC
04
FC
04
04
FC
04
ENDCHAR
STARTCHAR uni30E8
ENCODING 12520
SWIDTH 1000 0
SWIDTH1 1000 0
BBX 7 10 2 -1
BITMAP
FE
02
02
02
FE
02
02
02
FE
02
ENDCHAR
STARTCHAR uni30E9
ENCODING 12521
SWIDTH 1000 0
SWIDTH1 1000 0
BBX 9 10 1 -1
BITMAP
7F00
0000
0000
FF80
0080
0080
0100
0200
0400
3800
ENDCHAR
STARTCHAR uni30EA
ENCODING 12522
SWIDTH 1000 0
SWIDTH1 1000 0
BBX 7 11 3 -1
BITMAP
82
82
82
82
82
82
02
04
04
08
30
ENDCHAR
STARTCHAR uni30EB
ENCODING 12523
SWIDTH 1000 0
SWIDTH1 1000 0
BBX 11 11 1 -1
BITMAP
0400
2400
2400
2400
2400
2420
2420
2440
4480
4500
8600
ENDCHAR
STARTCHAR uni30EC
ENCODING 12524
SWIDTH 1000 0
SWIDTH1 1000 0
BBX 8 11 3 -1
BITMAP
80
80
80
80
80
81
81
82
84
98
E0
ENDCHAR
STARTCHAR uni30ED
ENCODING 12525
SWIDTH 1000 0
SWIDTH1 1000 0
BBX 9 10 2 0
BITMAP
FF80
8080
8080
8080
8080
8080
8080
8080
FF80
8080
ENDCHAR
STARTCHAR uni30EE
ENCODING 12526
SWIDTH 1000 0
SWIDTH1 1000 0
BBX 7 7 3 -1
BITMAP
FE
82
82
02
04
08
30
ENDCHAR
STARTCHAR uni30EF
ENCODING 12527
SWIDTH 1000 0
SWIDTH1 1000 0
BBX 9 11 1 -1
BITMAP
FF80
8080
8080
8080
8080
0080
0100
0100
0200
0C00
3000
ENDCHAR
STARTCHAR uni30F0
ENCODING 12528
SWIDTH 1000 0
SWIDTH1 1000 0
BBX 12 11 0 -1
BITMAP
0100
0100
7FE0
1100
1100
1100
FFF0
0100
0100
0100
0100
ENDCHAR
STARTCHAR uni30F1
ENCODING 12529
SWIDTH 1000 0
SWIDTH1 1000 0
BBX 12 8 0 0
BITMAP
3FC0
0080
0100
0600
0400
0400
0400
FFF0
ENDCHAR
STARTCHAR uni30F2
ENCODING 12530
SWIDTH 1000 0
SWIDTH1 1000 0
BBX 9 11 2 -1
BITMAP
FF80
0080
0080
FF80
0080
0080
0100
0100
0200
0C00
7000
ENDCHAR
STARTCHAR uni30F3
ENCODING 12531
SWIDTH 1000 0
SWIDTH1 1000 0
BBX 10 10 2 -1
BITMAP
C000
2000
0040
0040
0040
0080
0100
0200
0C00
7000
ENDCHAR
STARTCHAR uni30F4
ENCODING 12532
SWIDTH 1000 0
SWIDTH1 1000 0
BBX 10 12 2 -1
BITMAP
0140
0940
0800
FF80
8080
8080
0080
0100
0100
0200
0C00
3000
ENDCHAR
STARTCHAR uni30F5
ENCODING 12533
SWIDTH 1000 0
SWIDTH1 1000 0
BBX 7 8 2 -1
BITMAP
10
10
FE
12
22
22
42
8C
ENDCHAR
STARTCHAR uni30F6
ENCODING 12534
SWIDTH 1000 0
SWIDTH1 1000 0
BBX 8 8 2 -1
BITMAP
20
20
3F
44
84
04
08
10
ENDCHAR
STARTCHAR uni30FC
ENCODING 12540
SWIDTH 1000 0
SWIDTH1 1000 0
BBX 10 2 1 5
BITMAP
8000
7FC0
ENDCHAR
STARTCHAR uni30FD
ENCODING 12541
SWIDTH 1000 0
SWIDTH1 1000 0
BBX 4 5 4 3
BITMAP
80
40
20
10
10
ENDCHAR
STARTCHAR uni30FE
ENCODING 12542
SWIDTH 1000 0
SWIDTH1 1000 0
BBX 6 7 4 3
BITMAP
08
24
90
40
20
10
10
ENDCHAR
STARTCHAR uni3105
ENCODING 12549
SWIDTH 1000 0
SWIDTH1 1000 0
BBX 8 11 2 0
BITMAP
40
20
20
4F
F1
01
01
02
02
14
0C
ENDCHAR
STARTCHAR uni3106
ENCODING 12550
SWIDTH 1000 0
SWIDTH1 1000 0
BBX 7 11 3 0
BITMAP
20
20
40
9E
E2
04
34
08
14
20
C0
ENDCHAR
STARTCHAR uni3107
ENCODING 12551
SWIDTH 1000 0
SWIDTH1 1000 0
BBX 8 7 2 1
BITMAP
1F
E1
81
81
82
82
02
ENDCHAR
STARTCHAR uni3108
ENCODING 12552
SWIDTH 1000 0
SWIDTH1 1000 0
BBX 10 10 1 0
BITMAP
0380
FC00
4000
4000
4000
4000
4000
4000
40C0
3F00
ENDCHAR
STARTCHAR uni3109
ENCODING 12553
SWIDTH 1000 0
SWIDTH1 1000 0
BBX 10 10 1 0
BITMAP
1000
1000
23C0
7C40
0840
0880
1080
2080
4500
8200
ENDCHAR
STARTCHAR uni310A
ENCODING 12554
SWIDTH 1000 0
SWIDTH1 1000 0
BBX 10 10 1 0
BITMAP
0800
0800
0800
0FC0
F800
1000
1200
2100
4F80
7080
ENDCHAR
STARTCHAR uni310B
ENCODING 12555
SWIDTH 1000 0
SWIDTH1 1000 0
BBX 8 10 2 0
BITMAP
3C
C4
08
17
19
01
01
02
0A
04
ENDCHAR
STARTCHAR uni310C
ENCODING 12556
SWIDTH 1000 0
SWIDTH1 1000 0
BBX 9 11 1 0
BITMAP
0200
2200
2200
2400
4780
7880
0880
0880
1100
2500
C200
ENDCHAR
STARTCHAR uni310D
ENCODING 12557
SWIDTH 1000 0
SWIDTH1 1000 0
BBX 7 10 2 0
BITMAP
22
22
44
44
88
88
44
44
22
22
ENDCHAR
STARTCHAR uni310E
ENCODING 12558
SWIDTH 1000 0
SWIDTH1 1000 0
BBX 10 10 1 0
BITMAP
03C0
FC00
0800
1000
1F00
0100
0100
0100
0A00
0400
ENDCHAR
STARTCHAR uni310F
ENCODING 12559
SWIDTH 1000 0
SWIDTH1 1000 0
BBX 10 10 1 0
BITMAP
07C0
7800
2000
2000
2000
2000
2000
4000
4000
8000
ENDCHAR
STARTCHAR uni3110
ENCODING 12560
SWIDTH 1000 0
SWIDTH1 1000 0
BBX 5 10 3 0
BITMAP
08
88
88
88
88
98
E8
08
08
08
ENDCHAR
STARTCHAR uni3111
ENCODING 12561
SWIDTH 1000 0
SWIDTH1 1000 0
BBX 5 10 3 0
BITMAP
10
10
20
20
40
80
40
20
18
08
ENDCHAR
STARTCHAR uni3112
ENCODING 12562
SWIDTH 1000 0
SWIDTH1 1000 0
BBX 10 10 1 0
BITMAP
03C0
FC00
0400
0400
0400
0400
0400
0400
0400
0400
ENDCHAR
STARTCHAR uni3113
ENCODING 12563
SWIDTH 1000 0
SWIDTH1 1000 0
BBX 10 11 1 0
BITMAP
0800
0800
0800
4880
4880
4880
4F80
7900
0800
0800
FFC0
ENDCHAR
STARTCHAR uni3114
ENCODING 12564
SWIDTH 1000 0
SWIDTH1 1000 0
BBX 5 11 3 0
BITMAP
08
10
20
48
88
10
30
D0
10
10
10
ENDCHAR
STARTCHAR uni3115
ENCODING 12565
SWIDTH 1000 0
SWIDTH1 1000 0
BBX 9 10 1 0
BITMAP
0780
3880
0100
3E00
2000
2000
2000
2000
4000
8000
ENDCHAR
STARTCHAR uni3116
ENCODING 12566
SWIDTH 1000 0
SWIDTH1 1000 0
BBX 6 10 3 0
BITMAP
1C
E4
84
84
A4
94
94
84
FC
84
ENDCHAR
STARTCHAR uni3117
ENCODING 12567
SWIDTH 1000 0
SWIDTH1 1000 0
BBX 8 11 2 -1
BITMAP
0F
F1
21
21
22
2A
24
20
20
20
20
ENDCHAR
STARTCHAR uni3118
ENCODING 12568
SWIDTH 1000 0
SWIDTH1 1000 0
BBX 10 11 1 -1
BITMAP
0800
0800
0FC0
F000
1700
3900
0100
0100
0200
0200
0400
ENDCHAR
STARTCHAR uni3119
ENCODING 12569
SWIDTH 1000 0
SWIDTH1 1000 0
BBX 9 10 2 0
BITMAP
0800
0800
1000
1000
2000
2000
4200
4100
9F80
E080
ENDCHAR
STARTCHAR uni311A
ENCODING 12570
SWIDTH 1000 0
SWIDTH1 1000 0
BBX 8 10 2 0
BITMAP
81
42
24
28
10
10
10
10
10
10
ENDCHAR
STARTCHAR uni311B
ENCODING 12571
SWIDTH 1000 0
SWIDTH1 1000 0
BBX 10 10 1 0
BITMAP
03C0
FC00
0400
0400
3C00
4000
4000
4000
4180
3E00
ENDCHAR
STARTCHAR uni311C
ENCODING 12572
SWIDTH 1000 0
SWIDTH1 1000 0
BBX 10 11 1 0
BITMAP
0800
0400
0400
FFC0
0400
1C00
2000
4000
4000
4080
3F00
ENDCHAR
STARTCHAR uni311D
ENCODING 12573
SWIDTH 1000 0
SWIDTH1 1000 0
BBX 10 10 1 0
BITMAP
2200
2200
2200
2FC0
F200
2200
2400
2400
1000
0FC0
ENDCHAR
STARTCHAR uni311E
ENCODING 12574
SWIDTH 1000 0
SWIDTH1 1000 0
BBX 10 10 1 0
BITMAP
1FC0
E400
4400
4400
7F80
0880
0880
1080
2100
C100
ENDCHAR
STARTCHAR uni311F
ENCODING 12575
SWIDTH 1000 0
SWIDTH1 1000 0
BBX 10 10 1 0
BITMAP
1800
E800
0800
0800
0800
0800
0400
0400
0200
01C0
ENDCHAR
STARTCHAR uni3120
ENCODING 12576
SWIDTH 1000 0
SWIDTH1 1000 0
BBX 8 10 2 0
BITMAP
10
10
20
22
44
F8
10
22
4F
F1
ENDCHAR
STARTCHAR uni3121
ENCODING 12577
SWIDTH 1000 0
SWIDTH1 1000 0
BBX 8 10 1 0
BITMAP
07
79
01
31
0A
04
0A
11
21
C0
ENDCHAR
STARTCHAR uni3122
ENCODING 12578
SWIDTH 1000 0
SWIDTH1 1000 0
BBX 8 11 2 -1
BITMAP
FE
02
44
44
8F
F1
01
01
02
02
04
ENDCHAR
STARTCHAR uni3123
ENCODING 12579
SWIDTH 1000 0
SWIDTH1 1000 0
BBX 10 10 1 0
BITMAP
4000
4000
4000
4000
83C0
FC40
0040
0080
0080
0080
ENDCHAR
STARTCHAR uni3124
ENCODING 12580
SWIDTH 1000 0
SWIDTH1 1000 0
BBX 10 11 1 0
BITMAP
0800
0800
0800
0FC0
FA00
0A00
1200
1400
2400
4400
83C0
ENDCHAR
STARTCHAR uni3125
ENCODING 12581
SWIDTH 1000 0
SWIDTH1 1000 0
BBX 10 10 1 0
BITMAP
0800
0800
0800
1000
1000
2000
2000
4000
87C0
F800
ENDCHAR
STARTCHAR uni3126
ENCODING 12582
SWIDTH 1000 0
SWIDTH1 1000 0
BBX 11 10 1 0
BITMAP
1400
1400
1400
1400
1400
1400
2400
2400
4420
83E0
ENDCHAR
STARTCHAR uni3127
ENCODING 12583
SWIDTH 1000 0
SWIDTH1 1000 0
BBX 11 1 1 4
BITMAP
FFE0
ENDCHAR
STARTCHAR uni3128
ENCODING 12584
SWIDTH 1000 0
SWIDTH1 1000 0
BBX 9 10 1 0
BITMAP
0080
0080
6100
1100
0A00
0400
0A00
1100
2080
C000
ENDCHAR
STARTCHAR uni3129
ENCODING 12585
SWIDTH 1000 0
SWIDTH1 1000 0
BBX 9 8 1 1
BITMAP
0080
8080
4080
4080
4080
8080
9F80
E080
ENDCHAR
STARTCHAR uni3220
ENCODING 12832
SWIDTH 1000 0
SWIDTH1 1000 0
BBX 12 10 0 0
BITMAP
2040
4020
8010
8010
BFD0
8010
8010
8010
4020
2040
ENDCHAR
STARTCHAR uni3221
ENCODING 12833
SWIDTH 1000 0
SWIDTH1 1000 0
BBX 12 10 0 0
BITMAP
2040
4120
9F90
8010
8010
8010
8090
BFD0
4020
2040
ENDCHAR
STARTCHAR uni3222
ENCODING 12834
SWIDTH 1000 0
SWIDTH1 1000 0
BBX 12 10 0 0
BITMAP
2040
4020
9F90
8010
8010
8F10
8010
8010
5FA0
2040
ENDCHAR
STARTCHAR uni3223
ENCODING 12835
SWIDTH 1000 0
SWIDTH1 1000 0
BBX 12 10 0 0
BITMAP
2040
4020
9FD0
9550
9550
99D0
9050
9FD0
4020
2040
ENDCHAR
STARTCHAR uni3224
ENCODING 12836
SWIDTH 1000 0
SWIDTH1 1000 0
BBX 12 10 0 0
BITMAP
2040
5FA0
8410
8410
9F10
8510
8510
8510
5FA0
2040
ENDCHAR
STARTCHAR uni3225
ENCODING 12837
SWIDTH 1000 0
SWIDTH1 1000 0
BBX 12 10 0 0
BITMAP
2040
4420
8210
BFD0
8010
8910
9090
A050
4020
2040
ENDCHAR
STARTCHAR uni3226
ENCODING 12838
SWIDTH 1000 0
SWIDTH1 1000 0
BBX 12 10 0 0
BITMAP
2040
4420
8410
84D0
8710
BC10
8450
8450
43A0
2040
ENDCHAR
STARTCHAR uni3227
ENCODING 12839
SWIDTH 1000 0
SWIDTH1 1000 0
BBX 12 10 0 0
BITMAP
2040
4320
8510
8510
8510
8890
8890
9050
4020
2040
ENDCHAR
STARTCHAR uni3228
ENCODING 12840
SWIDTH 1000 0
SWIDTH1 1000 0
BBX 12 10 0 0
BITMAP
2040
4420
8410
9F10
8510
8510
8550
8950
51A0
2040
ENDCHAR
STARTCHAR uni3229
ENCODING 12841
SWIDTH 1000 0
SWIDTH1 1000 0
BBX 12 10 0 0
BITMAP
2040
4220
8210
8210
9FD0
8210
8210
8210
4220
2040
ENDCHAR
STARTCHAR uni3231
ENCODING 12849
SWIDTH 1000 0
SWIDTH1 1000 0
BBX 12 10 0 0
BITMAP
5120
9510
FFD0
9110
97D0
B910
D390
9570
9910
5120
ENDCHAR
STARTCHAR uni32A3
ENCODING 12963
SWIDTH 1000 0
SWIDTH1 1000 0
BBX 12 12 0 -1
BITMAP
1F80
2040
4020
9FD0
8210
9390
9210
9210
BFD0
4020
2040
1F80
ENDCHAR
STARTCHAR uni338E
ENCODING 13198
SWIDTH 1000 0
SWIDTH1 1000 0
BBX 11 9 1 -1
BITMAP
51A0
AA40
AA40
A980
A900
A9C0
AA20
0220
01C0
ENDCHAR
STARTCHAR uni338F
ENCODING 13199
SWIDTH 1000 0
SWIDTH1 1000 0
BBX 10 11 2 -1
BITMAP
8000
8000
8340
9480
A480
C300
A200
9380
8440
0440
0380
ENDCHAR
STARTCHAR uni339C
ENCODING 13212
SWIDTH 1000 0
SWIDTH1 1000 0
BBX 11 7 1 1
BITMAP
5140
AAA0
AAA0
AAA0
AAA0
AAA0
AAA0
ENDCHAR
STARTCHAR uni339D
ENCODING 13213
SWIDTH 1000 0
SWIDTH1 1000 0
BBX 10 7 1 1
BITMAP
6280
9540
8540
8540
8540
9540
6540
ENDCHAR
STARTCHAR uni339E
ENCODING 13214
SWIDTH 1000 0
SWIDTH1 1000 0
BBX 10 9 1 1
BITMAP
8000
8000
9280
A540
A540
C540
A540
A540
9540
ENDCHAR
STARTCHAR uni33A1
ENCODING 13217
SWIDTH 1000 0
SWIDTH1 1000 0
BBX 9 9 2 1
BITMAP
0300
0480
5080
A900
AB80
A800
A800
A800
A800
ENDCHAR
STARTCHAR uni33C4
ENCODING 13252
SWIDTH 1000 0
SWIDTH1 1000 0
BBX 11 6 1 1
BITMAP
71C0
8A20
8200
8200
8A20
71C0
ENDCHAR
STARTCHAR uni33CE
ENCODING 13262
SWIDTH 1000 0
SWIDTH1 1000 0
BBX 10 9 2 0
BITMAP
9440
A6C0
A6C0
A6C0
C540
A540
A540
A440
9440
ENDCHAR
STARTCHAR uni33D1
ENCODING 13265
SWIDTH 1000 0
SWIDTH1 1000 0
BBX 7 9 3 1
BITMAP
80
80
AC
92
92
92
92
92
92
ENDCHAR
STARTCHAR uni33D2
ENCODING 13266
SWIDTH 1000 0
SWIDTH1 1000 0
BBX 11 11 1 -1
BITMAP
8000
8000
91A0
AA40
AA40
A980
A900
A9C0
9220
0220
01C0
ENDCHAR
STARTCHAR uni33D5
ENCODING 13269
SWIDTH 1000 0
SWIDTH1 1000 0
BBX 9 9 1 1
BITMAP
0280
0080
5280
AA80
AA80
AA80
AA80
AA80
AA80
ENDCHAR
STARTCHAR uni4E00
ENCODING 19968
SWIDTH 1000 0
SWIDTH1 1000 0
BBX 11 2 1 4
BITMAP
0040
FFE0
ENDCHAR
STARTCHAR uni4E01
ENCODING 19969
SWIDTH 1000 0
SWIDTH1 1000 0
BBX 11 11 1 -1
BITMAP
FFE0
0400
0400
0400
0400
0400
0400
0400
0400
0400
1C00
ENDCHAR
STARTCHAR uni4E02
ENCODING 19970
SWIDTH 1000 0
SWIDTH1 1000 0
BBX 11 11 1 -1
BITMAP
FFE0
1000
1000
2000
2000
3FC0
0040
0040
0040
0040
0380
ENDCHAR
STARTCHAR uni4E03
ENCODING 19971
SWIDTH 1000 0
SWIDTH1 1000 0
BBX 11 12 1 -1
BITMAP
0800
0800
0800
0800
0FE0
F800
0800
0800
0800
0820
0820
07E0
ENDCHAR
STARTCHAR uni4E04
ENCODING 19972
SWIDTH 1000 0
SWIDTH1 1000 0
BBX 11 12 1 -1
BITMAP
0400
0400
0400
0400
0400
0400
0400
0400
0400
0400
0400
FFE0
ENDCHAR
STARTCHAR uni4E05
ENCODING 19973
SWIDTH 1000 0
SWIDTH1 1000 0
BBX 11 11 1 -1
BITMAP
FFE0
0400
0400
0400
0400
0400
0400
0400
0400
0400
0400
ENDCHAR
STARTCHAR uni4E06
ENCODING 19974
SWIDTH 1000 0
SWIDTH1 1000 0
BBX 11 9 1 1
BITMAP
FFE0
0400
0400
0800
0800
1000
2000
4000
8000
ENDCHAR
STARTCHAR uni4E07
ENCODING 19975
SWIDTH 1000 0
SWIDTH1 1000 0
BBX 11 11 1 -1
BITMAP
FFE0
1000
1000
1000
1FC0
1040
1040
2040
2040
4040
8380
ENDCHAR
STARTCHAR uni4E08
ENCODING 19976
SWIDTH 1000 0
SWIDTH1 1000 0
BBX 11 12 1 -1
BITMAP
0100
0100
0100
FFE0
0100
2100
2100
1200
0A00
0400
1B00
60E0
ENDCHAR
STARTCHAR uni4E09
ENCODING 19977
SWIDTH 1000 0
SWIDTH1 1000 0
BBX 11 11 1 -1
BITMAP
7FC0
0000
0000
0000
0000
3F80
0000
0000
0000
0000
FFE0
ENDCHAR
STARTCHAR uni4E0A
ENCODING 19978
SWIDTH 1000 0
SWIDTH1 1000 0
BBX 11 12 1 -1
BITMAP
0800
0800
0800
0800
0FC0
0800
0800
0800
0800
0800
0800
FFE0
ENDCHAR
STARTCHAR uni4E0B
ENCODING 19979
SWIDTH 1000 0
SWIDTH1 1000 0
BBX 11 11 1 -1
BITMAP
FFE0
0800
0800
0A00
0900
0880
0840
0840
0800
0800
0800
ENDCHAR
STARTCHAR uni4E0C
ENCODING 19980
SWIDTH 1000 0
SWIDTH1 1000 0
BBX 11 11 1 -1
BITMAP
FFE0
1100
1100
1100
1100
1100
1100
1100
2100
2100
4100
ENDCHAR
STARTCHAR uni4E0D
ENCODING 19981
SWIDTH 1000 0
SWIDTH1 1000 0
BBX 11 11 1 -1
BITMAP
FFE0
0200
0200
0400
0D00
1480
2440
C420
0400
0400
0400
ENDCHAR
STARTCHAR uni4E0E
ENCODING 19982
SWIDTH 1000 0
SWIDTH1 1000 0
BBX 11 12 1 -1
BITMAP
2000
2000
3FE0
4000
4000
7FC0
0040
0040
FF40
0040
0040
0380
ENDCHAR
STARTCHAR uni4E0F
ENCODING 19983
SWIDTH 1000 0
SWIDTH1 1000 0
BBX 11 11 1 -1
BITMAP
FFE0
0400
0400
47E0
4420
4420
7FE0
0020
0020
0020
00C0
ENDCHAR
STARTCHAR uni4E10
ENCODING 19984
SWIDTH 1000 0
SWIDTH1 1000 0
BBX 11 11 1 -1
BITMAP
FFE0
0400
0400
47E0
4400
4400
7FE0
0020
0020
0020
00C0
ENDCHAR
STARTCHAR uni4E11
ENCODING 19985
SWIDTH 1000 0
SWIDTH1 1000 0
BBX 11 11 1 -1
BITMAP
7F80
0880
0880
0880
0880
7F80
1080
1080
1080
1080
FFE0
ENDCHAR
STARTCHAR uni4E12
ENCODING 19986
SWIDTH 1000 0
SWIDTH1 1000 0
BBX 11 11 1 -1
BITMAP
7FC0
0840
4840
2840
1040
1840
2440
4040
8380
0000
FFE0
ENDCHAR
STARTCHAR uni4E13
ENCODING 19987
SWIDTH 1000 0
SWIDTH1 1000 0
BBX 11 12 1 -1
BITMAP
0400
0400
7FC0
0800
0800
FFE0
1000
3F80
0080
3900
0700
0080
ENDCHAR
STARTCHAR uni4E14
ENCODING 19988
SWIDTH 1000 0
SWIDTH1 1000 0
BBX 11 11 1 -1
BITMAP
3F80
2080
2080
3F80
2080
2080
3F80
2080
2080
2080
FFE0
ENDCHAR
STARTCHAR uni4E15
ENCODING 19989
SWIDTH 1000 0
SWIDTH1 1000 0
BBX 11 11 1 -1
BITMAP
FFE0
0200
0400
0D80
1440
2420
C400
0400
0400
0000
FFE0
ENDCHAR
STARTCHAR uni4E16
ENCODING 19990
SWIDTH 1000 0
SWIDTH1 1000 0
BBX 11 12 1 -1
BITMAP
0480
2480
2480
2480
FFE0
2480
2480
2480
2780
2000
2000
3FE0
ENDCHAR
STARTCHAR uni4E17
ENCODING 19991
SWIDTH 1000 0
SWIDTH1 1000 0
BBX 11 12 1 -1
BITMAP
4440
4440
4440
4440
FFE0
4440
4440
4440
4440
4440
7FC0
4040
ENDCHAR
STARTCHAR uni4E18
ENCODING 19992
SWIDTH 1000 0
SWIDTH1 1000 0
BBX 11 12 1 -1
BITMAP
0180
3E00
2000
2000
2000
3FC0
2100
2100
2100
2100
2100
FFE0
ENDCHAR
STARTCHAR uni4E19
ENCODING 19993
SWIDTH 1000 0
SWIDTH1 1000 0
BBX 11 11 1 -1
BITMAP
FFE0
0400
0400
FFE0
8420
8420
8A20
9120
A0A0
8020
8060
ENDCHAR
STARTCHAR uni4E1A
ENCODING 19994
SWIDTH 1000 0
SWIDTH1 1000 0
BBX 11 12 1 -1
BITMAP
1100
1100
1100
1100
9120
5140
3180
1100
1100
1100
1100
FFE0
ENDCHAR
STARTCHAR uni4E1B
ENCODING 19995
SWIDTH 1000 0
SWIDTH1 1000 0
BBX 11 12 1 -1
BITMAP
1100
1100
1100
1100
1280
2A80
2A80
4440
4440
8820
0000
FFE0
ENDCHAR
STARTCHAR uni4E1C
ENCODING 19996
SWIDTH 1000 0
SWIDTH1 1000 0
BBX 11 12 1 -1
BITMAP
0800
0800
FFE0
1000
2400
4400
7FC0
0400
2480
4440
8420
0C00
ENDCHAR
STARTCHAR uni4E1D
ENCODING 19997
SWIDTH 1000 0
SWIDTH1 1000 0
BBX 11 12 1 -1
BITMAP
1080
2080
4100
8A20
F3C0
2080
4100
8200
FBE0
0000
0000
FFE0
ENDCHAR
STARTCHAR uni4E1E
ENCODING 19998
SWIDTH 1000 0
SWIDTH1 1000 0
BBX 11 12 1 -1
BITMAP
3F00
0100
0200
0440
F580
1600
2500
4480
8460
1C00
0000
FFE0
ENDCHAR
STARTCHAR uni4E1F
ENCODING 19999
SWIDTH 1000 0
SWIDTH1 1000 0
BBX 11 12 1 -1
BITMAP
7FC0
0400
0400
7FC0
0400
0400
FFE0
0800
1100
2080
7FC0
0040
ENDCHAR
STARTCHAR uni4E20
ENCODING 20000
SWIDTH 1000 0
SWIDTH1 1000 0
BBX 11 12 1 -1
BITMAP
1100
1100
1120
F140
1180
1100
1100
3120
D120
10E0
0000
FFE0
ENDCHAR
STARTCHAR uni4E21
ENCODING 20001
SWIDTH 1000 0
SWIDTH1 1000 0
BBX 11 11 1 -1
BITMAP
FFE0
0400
0400
FFE0
8420
8420
A4A0
A4A0
BFA0
8020
8060
ENDCHAR
STARTCHAR uni4E22
ENCODING 20002
SWIDTH 1000 0
SWIDTH1 1000 0
BBX 11 12 1 -1
BITMAP
03C0
7C00
0400
0400
7FC0
0400
0400
FFE0
1000
2080
7FC0
0040
ENDCHAR
STARTCHAR uni4E23
ENCODING 20003
SWIDTH 1000 0
SWIDTH1 1000 0
BBX 11 11 1 -1
BITMAP
FFE0
1100
1100
F1E0
9120
9120
F1E0
1120
2100
2100
4100
ENDCHAR
STARTCHAR uni4E24
ENCODING 20004
SWIDTH 1000 0
SWIDTH1 1000 0
BBX 11 11 1 -1
BITMAP
FFE0
1100
1100
FFE0
9120
9120
AAA0
C460
8820
8020
8060
ENDCHAR
STARTCHAR uni4E25
ENCODING 20005
SWIDTH 1000 0
SWIDTH1 1000 0
BBX 11 11 1 -1
BITMAP
7FE0
0900
2940
1980
0900
7FE0
4000
4000
4000
4000
8000
ENDCHAR
STARTCHAR uni4E26
ENCODING 20006
SWIDTH 1000 0
SWIDTH1 1000 0
BBX 11 12 1 -1
BITMAP
2080
1100
0000
FFE0
1100
1100
9120
5140
3180
1100
1100
FFE0
ENDCHAR
STARTCHAR uni4E27
ENCODING 20007
SWIDTH 1000 0
SWIDTH1 1000 0
BBX 11 12 1 -1
BITMAP
0400
0400
7FC0
0400
2480
1500
FFE0
2440
2280
2100
2880
3060
ENDCHAR
STARTCHAR uni4E28
ENCODING 20008
SWIDTH 1000 0
SWIDTH1 1000 0
BBX 1 12 6 -1
BITMAP
80
80
80
80
80
80
80
80
80
80
80
80
ENDCHAR
STARTCHAR uni4E29
ENCODING 20009
SWIDTH 1000 0
SWIDTH1 1000 0
BBX 7 12 3 -1
BITMAP
02
82
82
82
82
82
86
9A
E2
82
02
02
ENDCHAR
STARTCHAR uni4E2A
ENCODING 20010
SWIDTH 1000 0
SWIDTH1 1000 0
BBX 11 12 1 -1
BITMAP
0400
0400
0A00
1100
2480
C460
0400
0400
0400
0400
0400
0400
ENDCHAR
STARTCHAR uni4E2B
ENCODING 20011
SWIDTH 1000 0
SWIDTH1 1000 0
BBX 11 12 1 -1
BITMAP
8020
4040
2080
1100
0A00
0400
0400
0400
0400
0400
0400
0400
ENDCHAR
STARTCHAR uni4E2C
ENCODING 20012
SWIDTH 1000 0
SWIDTH1 1000 0
BBX 4 12 1 -1
BITMAP
10
10
90
50
30
10
30
50
90
10
10
10
ENDCHAR
STARTCHAR uni4E2D
ENCODING 20013
SWIDTH 1000 0
SWIDTH1 1000 0
BBX 9 12 2 -1
BITMAP
0800
0800
0800
FF80
8880
8880
8880
FF80
8880
0800
0800
0800
ENDCHAR
STARTCHAR uni4E2E
ENCODING 20014
SWIDTH 1000 0
SWIDTH1 1000 0
BBX 11 11 1 -1
BITMAP
7F80
1080
1080
FE80
1080
1080
FE80
1080
10A0
1060
1020
ENDCHAR
STARTCHAR uni4E2F
ENCODING 20015
SWIDTH 1000 0
SWIDTH1 1000 0
BBX 10 12 2 -1
BITMAP
0800
0980
1E00
E800
09C0
1E00
E800
09C0
1E00
E800
0800
0800
ENDCHAR
STARTCHAR uni4E30
ENCODING 20016
SWIDTH 1000 0
SWIDTH1 1000 0
BBX 11 12 1 -1
BITMAP
0400
0400
FFE0
0400
0400
7FC0
0400
0400
FFE0
0400
0400
0400
ENDCHAR
STARTCHAR uni4E31
ENCODING 20017
SWIDTH 1000 0
SWIDTH1 1000 0
BBX 11 12 1 -1
BITMAP
1100
1100
9120
9120
9120
9120
B120
D1E0
1120
2100
2100
4100
ENDCHAR
STARTCHAR uni4E32
ENCODING 20018
SWIDTH 1000 0
SWIDTH1 1000 0
BBX 11 12 1 -1
BITMAP
0400
7FC0
4440
4440
7FC0
0400
FFE0
8420
8420
FFE0
8420
0400
ENDCHAR
STARTCHAR uni4E33
ENCODING 20019
SWIDTH 1000 0
SWIDTH1 1000 0
BBX 11 12 1 -1
BITMAP
1100
1100
7FC0
5140
7FC0
1100
FFE0
9120
FFE0
9120
2100
4100
ENDCHAR
STARTCHAR uni4E34
ENCODING 20020
SWIDTH 1000 0
SWIDTH1 1000 0
BBX 11 12 1 -1
BITMAP
2400
2400
A7E0
A900
B080
A000
AFE0
A920
A920
2920
2FE0
2820
ENDCHAR
STARTCHAR uni4E35
ENCODING 20021
SWIDTH 1000 0
SWIDTH1 1000 0
BBX 11 12 1 -1
BITMAP
0A00
4A40
2A80
FFE0
2080
1100
7FC0
0400
FFE0
0400
0400
0400
ENDCHAR
STARTCHAR uni4E36
ENCODING 20022
SWIDTH 1000 0
SWIDTH1 1000 0
BBX 4 6 4 1
BITMAP
80
40
20
20
10
10
ENDCHAR
STARTCHAR uni4E37
ENCODING 20023
SWIDTH 1000 0
SWIDTH1 1000 0
BBX 8 6 2 4
BITMAP
01
81
41
22
22
04
ENDCHAR
STARTCHAR uni4E38
ENCODING 20024
SWIDTH 1000 0
SWIDTH1 1000 0
BBX 11 12 1 -1
BITMAP
1000
1000
1000
FF00
1100
5100
3100
1100
2900
2520
4120
80E0
ENDCHAR
STARTCHAR uni4E39
ENCODING 20025
SWIDTH 1000 0
SWIDTH1 1000 0
BBX 11 11 1 -1
BITMAP
3FC0
2040
2440
2240
2040
FFE0
2040
2040
4040
4040
81C0
ENDCHAR
STARTCHAR uni4E3A
ENCODING 20026
SWIDTH 1000 0
SWIDTH1 1000 0
BBX 11 12 1 -1
BITMAP
0200
2200
1200
7FE0
0420
0420
0A20
0920
1120
2020
4020
81C0
ENDCHAR
STARTCHAR uni4E3B
ENCODING 20027
SWIDTH 1000 0
SWIDTH1 1000 0
BBX 11 12 1 -1
BITMAP
0800
0400
0000
7FC0
0400
0400
0400
7FC0
0400
0400
0400
FFE0
ENDCHAR
STARTCHAR uni4E3C
ENCODING 20028
SWIDTH 1000 0
SWIDTH1 1000 0
BBX 11 12 1 -1
BITMAP
1080
1080
7FE0
1080
1480
1280
1080
FFE0
1080
1080
2080
4080
ENDCHAR
STARTCHAR uni4E3D
ENCODING 20029
SWIDTH 1000 0
SWIDTH1 1000 0
BBX 11 11 1 -1
BITMAP
FFE0
0000
7BC0
4A40
4A40
6B40
5AC0
4A40
4A40
4A40
5AC0
ENDCHAR
STARTCHAR uni4E3E
ENCODING 20030
SWIDTH 1000 0
SWIDTH1 1000 0
BBX 11 12 1 -1
BITMAP
0800
4440
2080
FFE0
1100
2480
C460
7FC0
0400
FFE0
0400
0400
ENDCHAR
STARTCHAR uni4E3F
ENCODING 20031
SWIDTH 1000 0
SWIDTH1 1000 0
BBX 4 12 3 -1
BITMAP
10
10
10
10
10
10
20
20
20
40
40
80
ENDCHAR
STARTCHAR uni4E40
ENCODING 20032
SWIDTH 1000 0
SWIDTH1 1000 0
BBX 11 11 1 -1
BITMAP
2000
2000
5000
9000
1000
0800
0800
0400
0200
0100
00E0
ENDCHAR
STARTCHAR uni4E41
ENCODING 20033
SWIDTH 1000 0
SWIDTH1 1000 0
BBX 9 11 2 -1
BITMAP
F800
0800
0800
0800
0800
0800
0800
0400
0400
0200
0180
ENDCHAR
STARTCHAR uni4E42
ENCODING 20034
SWIDTH 1000 0
SWIDTH1 1000 0
BBX 11 11 1 -1
BITMAP
0040
4040
4080
2080
1100
0A00
0400
0A00
1100
2080
C060
ENDCHAR
STARTCHAR uni4E43
ENCODING 20035
SWIDTH 1000 0
SWIDTH1 1000 0
BBX 11 11 1 -1
BITMAP
7FC0
1040
1080
1080
1100
11E0
1020
2020
2020
4020
81C0
ENDCHAR
STARTCHAR uni4E44
ENCODING 20036
SWIDTH 1000 0
SWIDTH1 1000 0
BBX 9 12 2 -1
BITMAP
0080
0080
0100
2100
1200
0A00
0400
8A00
9100
A080
C080
8000
ENDCHAR
STARTCHAR uni4E45
ENCODING 20037
SWIDTH 1000 0
SWIDTH1 1000 0
BBX 11 12 1 -1
BITMAP
2000
2000
3F80
2080
4100
4100
8200
0400
0A00
1100
2080
C060
ENDCHAR
STARTCHAR uni4E46
ENCODING 20038
SWIDTH 1000 0
SWIDTH1 1000 0
BBX 11 12 1 -1
BITMAP
1040
1040
2080
2080
4100
7F00
0200
0400
0A00
1100
2080
C060
ENDCHAR
STARTCHAR uni4E47
ENCODING 20039
SWIDTH 1000 0
SWIDTH1 1000 0
BBX 11 12 1 -1
BITMAP
03C0
7C00
0400
0400
0400
07E0
FC00
0400
0400
0420
0420
03E0
ENDCHAR
STARTCHAR uni4E48
ENCODING 20040
SWIDTH 1000 0
SWIDTH1 1000 0
BBX 11 12 1 -1
BITMAP
0400
0400
0880
0880
1100
2100
4200
8400
0880
1040
3FE0
0020
ENDCHAR
STARTCHAR uni4E49
ENCODING 20041
SWIDTH 1000 0
SWIDTH1 1000 0
BBX 11 12 1 -1
BITMAP
0800
0440
4440
4080
2080
1100
0A00
0400
0A00
1100
2080
C060
ENDCHAR
STARTCHAR uni4E4A
ENCODING 20042
SWIDTH 1000 0
SWIDTH1 1000 0
BBX 11 9 1 1
BITMAP
00E0
0700
F800
0000
0040
4040
2080
1080
1100
ENDCHAR
STARTCHAR uni4E4B
ENCODING 20043
SWIDTH 1000 0
SWIDTH1 1000 0
BBX 10 12 2 -1
BITMAP
1000
0800
0000
FF80
0100
0200
0400
0800
1000
2000
5000
8FC0
ENDCHAR
STARTCHAR uni4E4C
ENCODING 20044
SWIDTH 1000 0
SWIDTH1 1000 0
BBX 11 12 1 -1
BITMAP
0800
3F80
2080
2080
2180
2000
3FE0
0020
0020
FFA0
0020
01C0
ENDCHAR
STARTCHAR uni4E4D
ENCODING 20045
SWIDTH 1000 0
SWIDTH1 1000 0
BBX 11 12 1 -1
BITMAP
2000
2000
3FE0
4800
4800
8FC0
0800
0800
0FE0
0800
0800
0800
ENDCHAR
STARTCHAR uni4E4E
ENCODING 20046
SWIDTH 1000 0
SWIDTH1 1000 0
BBX 11 12 1 -1
BITMAP
03C0
7C00
0400
4440
2480
0400
FFE0
0400
0400
0400
0400
1C00
ENDCHAR
STARTCHAR uni4E4F
ENCODING 20047
SWIDTH 1000 0
SWIDTH1 1000 0
BBX 11 12 1 -1
BITMAP
03E0
FC00
0000
0800
0400
FFC0
0080
0300
0C00
1000
6000
9FE0
ENDCHAR
STARTCHAR uni4E50
ENCODING 20048
SWIDTH 1000 0
SWIDTH1 1000 0
BBX 11 12 1 -1
BITMAP
0380
7C00
4000
4400
4400
7FC0
0400
2480
2440
4420
8420
1C00
ENDCHAR
STARTCHAR uni4E51
ENCODING 20049
SWIDTH 1000 0
SWIDTH1 1000 0
BBX 11 12 1 -1
BITMAP
03E0
FC00
0400
1420
2640
4680
8500
1500
2480
4440
8420
0400
ENDCHAR
STARTCHAR uni4E52
ENCODING 20050
SWIDTH 1000 0
SWIDTH1 1000 0
BBX 11 12 1 -1
BITMAP
0180
3E00
2000
2000
3FC0
2100
2100
2100
FFE0
1000
2000
4000
ENDCHAR
STARTCHAR uni4E53
ENCODING 20051
SWIDTH 1000 0
SWIDTH1 1000 0
BBX 11 12 1 -1
BITMAP
0180
3E00
2000
2000
3FC0
2100
2100
2100
FFE0
0100
0080
0040
ENDCHAR
STARTCHAR uni4E54
ENCODING 20052
SWIDTH 1000 0
SWIDTH1 1000 0
BBX 11 12 1 -1
BITMAP
0380
7C00
0400
FFE0
0A00
1100
2080
D160
1100
1100
2100
4100
ENDCHAR
STARTCHAR uni4E55
ENCODING 20053
SWIDTH 1000 0
SWIDTH1 1000 0
BBX 11 12 1 -1
BITMAP
01C0
7E00
4200
5FC0
4200
7FE0
4200
5FC0
5240
5240
52C0
8200
ENDCHAR
STARTCHAR uni4E56
ENCODING 20054
SWIDTH 1000 0
SWIDTH1 1000 0
BBX 11 12 1 -1
BITMAP
0380
3C00
0400
FFE0
1500
1540
F580
1520
3520
D4E0
0400
0400
ENDCHAR
STARTCHAR uni4E57
ENCODING 20055
SWIDTH 1000 0
SWIDTH1 1000 0
BBX 11 12 1 -1
BITMAP
0380
7C00
0400
7FC0
2480
FFE0
2480
7FC0
1500
2480
C460
0400
ENDCHAR
STARTCHAR uni4E58
ENCODING 20056
SWIDTH 1000 0
SWIDTH1 1000 0
BBX 11 12 1 -1
BITMAP
03C0
7C00
0400
FFE0
1500
F540
1580
3520
CEE0
1500
2480
C460
ENDCHAR
STARTCHAR uni4E59
ENCODING 20057
SWIDTH 1000 0
SWIDTH1 1000 0
BBX 10 11 1 -1
BITMAP
FF80
0100
0200
0400
0800
1000
2000
4040
4040
4040
3FC0
ENDCHAR
STARTCHAR uni4E5A
ENCODING 20058
SWIDTH 1000 0
SWIDTH1 1000 0
BBX 10 11 2 0
BITMAP
8000
8000
8000
8000
8000
8000
8000
8040
8040
8040
7FC0
ENDCHAR
STARTCHAR uni4E5B
ENCODING 20059
SWIDTH 1000 0
SWIDTH1 1000 0
BBX 11 3 1 6
BITMAP
FFE0
0020
0040
ENDCHAR
STARTCHAR uni4E5C
ENCODING 20060
SWIDTH 1000 0
SWIDTH1 1000 0
BBX 11 11 1 -1
BITMAP
2000
2080
2380
2C80
3080
E080
2080
2700
2020
2020
1FE0
ENDCHAR
STARTCHAR uni4E5D
ENCODING 20061
SWIDTH 1000 0
SWIDTH1 1000 0
BBX 11 12 1 -1
BITMAP
1000
1000
1000
FF00
1100
1100
1100
1100
2100
2120
4120
80E0
ENDCHAR
STARTCHAR uni4E5E
ENCODING 20062
SWIDTH 1000 0
SWIDTH1 1000 0
BBX 10 12 1 -1
BITMAP
2000
2000
3FC0
4000
4000
BF80
0300
0C00
1000
2040
2040
1FC0
ENDCHAR
STARTCHAR uni4E5F
ENCODING 20063
SWIDTH 1000 0
SWIDTH1 1000 0
BBX 11 12 1 -1
BITMAP
0400
2400
24C0
2740
3C40
E440
2440
24C0
2400
2020
2020
1FE0
ENDCHAR
STARTCHAR uni4E60
ENCODING 20064
SWIDTH 1000 0
SWIDTH1 1000 0
BBX 10 11 1 -1
BITMAP
7FC0
0040
2040
1040
0840
0140
0640
1840
E040
0040
0380
ENDCHAR
STARTCHAR uni4E61
ENCODING 20065
SWIDTH 1000 0
SWIDTH1 1000 0
BBX 11 12 1 -1
BITMAP
0800
1000
2080
4100
7E00
0C20
3020
7FC0
0080
0300
0C00
F000
ENDCHAR
STARTCHAR uni4E62
ENCODING 20066
SWIDTH 1000 0
SWIDTH1 1000 0
BBX 11 12 1 -1
BITMAP
2200
2200
2200
AA00
AA00
AA00
AA00
AA00
AA00
BA20
CA20
01E0
ENDCHAR
STARTCHAR uni4E63
ENCODING 20067
SWIDTH 1000 0
SWIDTH1 1000 0
BBX 11 12 1 -1
BITMAP
2100
2100
4100
4900
8900
F100
1100
2100
4900
FD20
0520
00E0
ENDCHAR
STARTCHAR uni4E64
ENCODING 20068
SWIDTH 1000 0
SWIDTH1 1000 0
BBX 11 11 1 -1
BITMAP
FFE0
0A00
0900
0880
0800
7FC0
0180
0E00
3020
4020
3FE0
ENDCHAR
STARTCHAR uni4E65
ENCODING 20069
SWIDTH 1000 0
SWIDTH1 1000 0
BBX 11 12 1 -1
BITMAP
03E0
FC00
0000
2080
1100
0000
7FC0
0180
0E00
3020
4020
3FE0
ENDCHAR
STARTCHAR uni4E66
ENCODING 20070
SWIDTH 1000 0
SWIDTH1 1000 0
BBX 11 12 1 -1
BITMAP
0880
0840
7F80
0880
0880
0880
FFE0
0820
0820
0820
08C0
0800
ENDCHAR
STARTCHAR uni4E67
ENCODING 20071
SWIDTH 1000 0
SWIDTH1 1000 0
BBX 11 12 1 -1
BITMAP
1100
0900
4100
2100
01E0
FF00
0100
7F80
0300
3C20
4020
3FE0
ENDCHAR
STARTCHAR uni4E68
ENCODING 20072
SWIDTH 1000 0
SWIDTH1 1000 0
BBX 11 12 1 -1
BITMAP
2100
2100
4100
8900
FD00
0500
F900
8900
8900
8920
F920
88E0
ENDCHAR
STARTCHAR uni4E69
ENCODING 20073
SWIDTH 1000 0
SWIDTH1 1000 0
BBX 11 12 1 -1
BITMAP
2100
2100
2100
3D00
2100
2100
FD00
8500
8500
8520
FD20
84E0
ENDCHAR
STARTCHAR uni4E6A
ENCODING 20074
SWIDTH 1000 0
SWIDTH1 1000 0
BBX 11 12 1 -1
BITMAP
07C0
F540
1540
1540
27C0
2540
4540
4540
87C0
8000
8020
7FE0
ENDCHAR
STARTCHAR uni4E6B
ENCODING 20075
SWIDTH 1000 0
SWIDTH1 1000 0
BBX 11 12 1 -1
BITMAP
2000
FDE0
2520
2520
4520
99E0
0000
7F80
0300
3C20
4020
3FE0
ENDCHAR
STARTCHAR uni4E6C
ENCODING 20076
SWIDTH 1000 0
SWIDTH1 1000 0
BBX 11 12 1 -1
BITMAP
7FE0
4000
7FC0
4040
7FC0
4000
7FE0
0000
FF80
1E00
6020
3FE0
ENDCHAR
STARTCHAR uni4E6D
ENCODING 20077
SWIDTH 1000 0
SWIDTH1 1000 0
BBX 11 12 1 -1
BITMAP
FFE0
1000
3FC0
6040
A040
3FC0
0000
7F80
0300
3C20
4020
3FE0
ENDCHAR
STARTCHAR uni4E6E
ENCODING 20078
SWIDTH 1000 0
SWIDTH1 1000 0
BBX 11 12 1 -1
BITMAP
3000
C3E0
8A20
BA20
CA60
1200
2200
7F80
0300
3C20
4020
3FE0
ENDCHAR
STARTCHAR uni4E6F
ENCODING 20079
SWIDTH 1000 0
SWIDTH1 1000 0
BBX 11 12 1 -1
BITMAP
03C0
7C00
2480
1500
FFE0
0400
0C00
7F80
0300
3C20
4020
3FE0
ENDCHAR
STARTCHAR uni4E70
ENCODING 20080
SWIDTH 1000 0
SWIDTH1 1000 0
BBX 11 11 1 -1
BITMAP
7FC0
0040
1200
0A00
2200
1200
FFE0
0400
0980
3040
C020
ENDCHAR
STARTCHAR uni4E71
ENCODING 20081
SWIDTH 1000 0
SWIDTH1 1000 0
BBX 11 12 1 -1
BITMAP
0D00
7100
1100
1100
FF00
1100
1100
7D00
4500
4520
7D20
44E0
ENDCHAR
STARTCHAR uni4E72
ENCODING 20082
SWIDTH 1000 0
SWIDTH1 1000 0
BBX 11 12 1 -1
BITMAP
0800
8FE0
5220
0240
0500
4880
9060
7F80
0300
3C20
4020
3FE0
ENDCHAR
STARTCHAR uni4E73
ENCODING 20083
SWIDTH 1000 0
SWIDTH1 1000 0
BBX 11 12 1 -1
BITMAP
0E80
F080
2280
9480
4080
FC80
0880
1080
1E80
F0A0
10A0
3060
ENDCHAR
STARTCHAR uni4E74
ENCODING 20084
SWIDTH 1000 0
SWIDTH1 1000 0
BBX 11 12 1 -1
BITMAP
20C0
F700
2400
F7E0
2480
6880
0000
7F80
0300
3C20
4020
3FE0
ENDCHAR
STARTCHAR uni4E75
ENCODING 20085
SWIDTH 1000 0
SWIDTH1 1000 0
BBX 11 12 1 -1
BITMAP
2100
1100
7D00
0100
4500
2900
FF00
1100
7D00
1120
1120
10E0
ENDCHAR
STARTCHAR uni4E76
ENCODING 20086
SWIDTH 1000 0
SWIDTH1 1000 0
BBX 11 12 1 -1
BITMAP
0440
FFE0
0400
7FC0
4440
7FC0
4440
4440
FF80
1E00
6020
3FE0
ENDCHAR
STARTCHAR uni4E77
ENCODING 20087
SWIDTH 1000 0
SWIDTH1 1000 0
BBX 11 12 1 -1
BITMAP
2100
9540
4520
0900
41C0
9E00
0000
7F80
0300
3C20
4020
3FE0
ENDCHAR
STARTCHAR uni4E78
ENCODING 20088
SWIDTH 1000 0
SWIDTH1 1000 0
BBX 11 12 1 -1
BITMAP
23C0
2240
AB40
BA40
EFE0
AA40
AB40
BA40
A3E0
8040
80A0
7FE0
ENDCHAR
STARTCHAR uni4E79
ENCODING 20089
SWIDTH 1000 0
SWIDTH1 1000 0
BBX 11 12 1 -1
BITMAP
1100
7D00
1100
7D00
4500
7D00
4500
7D00
1100
FF20
1120
10E0
ENDCHAR
STARTCHAR uni4E7A
ENCODING 20090
SWIDTH 1000 0
SWIDTH1 1000 0
BBX 11 12 1 -1
BITMAP
0860
7380
4200
7BE0
4A40
7A40
8440
7F80
0300
3C20
4020
3FE0
ENDCHAR
STARTCHAR uni4E7B
ENCODING 20091
SWIDTH 1000 0
SWIDTH1 1000 0
BBX 11 12 1 -1
BITMAP
2080
F940
4220
7880
4840
4900
9880
7F80
0300
3C20
4020
3FE0
ENDCHAR
STARTCHAR uni4E7C
ENCODING 20092
SWIDTH 1000 0
SWIDTH1 1000 0
BBX 11 12 1 -1
BITMAP
4200
2FE0
8100
47C0
2100
CFE0
0000
7F80
0300
3C20
4020
3FE0
ENDCHAR
STARTCHAR uni4E7D
ENCODING 20093
SWIDTH 1000 0
SWIDTH1 1000 0
BBX 11 12 1 -1
BITMAP
0840
3E80
0900
FFE0
1080
3F80
D080
7F80
0300
3C20
4020
3FE0
ENDCHAR
STARTCHAR uni4E7E
ENCODING 20094
SWIDTH 1000 0
SWIDTH1 1000 0
BBX 11 12 1 -1
BITMAP
2100
F900
23E0
FC00
8800
FBC0
8840
F880
2100
FA20
2220
21E0
ENDCHAR
STARTCHAR uni4E7F
ENCODING 20095
SWIDTH 1000 0
SWIDTH1 1000 0
BBX 11 12 1 -1
BITMAP
0E80
F080
2280
9480
5080
2480
7880
1280
FE80
10A0
54A0
B260
ENDCHAR
STARTCHAR uni4E80
ENCODING 20096
SWIDTH 1000 0
SWIDTH1 1000 0
BBX 11 12 1 -1
BITMAP
3E00
4200
FF80
4880
7F80
4880
FFC0
8840
FFC0
8840
F820
07E0
ENDCHAR
STARTCHAR uni4E81
ENCODING 20097
SWIDTH 1000 0
SWIDTH1 1000 0
BBX 11 12 1 -1
BITMAP
1080
FE80
10E0
7D00
5400
7DE0
0020
7C40
1080
FF20
1120
10E0
ENDCHAR
STARTCHAR uni4E82
ENCODING 20098
SWIDTH 1000 0
SWIDTH1 1000 0
BBX 11 12 1 -1
BITMAP
0D00
F100
5500
FD00
2900
1100
FD00
A500
F500
D520
A520
D4E0
ENDCHAR
STARTCHAR uni4E83
ENCODING 20099
SWIDTH 1000 0
SWIDTH1 1000 0
BBX 11 12 1 -1
BITMAP
9280
5480
FE80
5480
9280
4480
6E80
A480
B480
5EA0
44A0
8460
ENDCHAR
STARTCHAR uni4E84
ENCODING 20100
SWIDTH 1000 0
SWIDTH1 1000 0
BBX 11 12 1 -1
BITMAP
1080
FE80
1080
7C80
0080
FE80
8280
7C80
4480
7CA0
28A0
FE60
ENDCHAR
STARTCHAR uni4E85
ENCODING 20101
SWIDTH 1000 0
SWIDTH1 1000 0
BBX 3 12 8 -1
BITMAP
20
20
20
20
20
20
20
20
20
20
20
E0
ENDCHAR
STARTCHAR uni4E86
ENCODING 20102
SWIDTH 1000 0
SWIDTH1 1000 0
BBX 9 11 2 -1
BITMAP
FF80
0080
0100
0200
0400
0400
0400
0400
0400
0400
1C00
ENDCHAR
STARTCHAR uni4E87
ENCODING 20103
SWIDTH 1000 0
SWIDTH1 1000 0
BBX 11 12 1 -1
BITMAP
2000
2000
3FE0
4420
8420
0440
0400
0400
0400
0400
0400
1C00
ENDCHAR
STARTCHAR uni4E88
ENCODING 20104
SWIDTH 1000 0
SWIDTH1 1000 0
BBX 11 12 1 -1
BITMAP
7FC0
0080
1900
0600
0100
FFE0
0420
0440
0480
0400
0400
1C00
ENDCHAR
STARTCHAR uni4E89
ENCODING 20105
SWIDTH 1000 0
SWIDTH1 1000 0
BBX 11 12 1 -1
BITMAP
1000
3F00
4100
8200
7FC0
0440
FFE0
0440
7FC0
0440
0400
1C00
ENDCHAR
STARTCHAR uni4E8A
ENCODING 20106
SWIDTH 1000 0
SWIDTH1 1000 0
BBX 11 12 1 -1
BITMAP
0400
FFE0
2480
1500
7FC0
0440
FFE0
0440
7FC0
0400
0400
1C00
ENDCHAR
STARTCHAR uni4E8B
ENCODING 20107
SWIDTH 1000 0
SWIDTH1 1000 0
BBX 11 12 1 -1
BITMAP
0400
FFE0
2480
3F80
0400
7FC0
0440
FFE0
0440
7FC0
0400
0C00
ENDCHAR
STARTCHAR uni4E8C
ENCODING 20108
SWIDTH 1000 0
SWIDTH1 1000 0
BBX 11 9 1 0
BITMAP
7FC0
0000
0000
0000
0000
0000
0000
0000
FFE0
ENDCHAR
STARTCHAR uni4E8D
ENCODING 20109
SWIDTH 1000 0
SWIDTH1 1000 0
BBX 11 11 1 -1
BITMAP
7FC0
0000
0000
0000
FFE0
0400
0400
0400
0400
0400
1C00
ENDCHAR
STARTCHAR uni4E8E
ENCODING 20110
SWIDTH 1000 0
SWIDTH1 1000 0
BBX 11 12 1 -1
BITMAP
7FC0
0400
0400
0400
0400
FFE0
0400
0400
0400
0400
0400
1C00
ENDCHAR
STARTCHAR uni4E8F
ENCODING 20111
SWIDTH 1000 0
SWIDTH1 1000 0
BBX 11 11 1 -1
BITMAP
7FC0
0000
0000
FFE0
1000
2000
3FC0
0040
0040
0040
0180
ENDCHAR
STARTCHAR uni4E90
ENCODING 20112
SWIDTH 1000 0
SWIDTH1 1000 0
BBX 11 11 1 -1
BITMAP
7FC0
0800
0800
FFE0
1000
2000
3FC0
0040
0040
0040
0180
ENDCHAR
STARTCHAR uni4E91
ENCODING 20113
SWIDTH 1000 0
SWIDTH1 1000 0
BBX 11 11 1 -1
BITMAP
3F80
0000
0000
0000
FFE0
0400
0800
1100
2080
7FC0
0040
ENDCHAR
STARTCHAR uni4E92
ENCODING 20114
SWIDTH 1000 0
SWIDTH1 1000 0
BBX 11 11 1 -1
BITMAP
FFE0
2000
2000
3F80
2080
4080
4080
7F00
0100
0100
FFE0
ENDCHAR
STARTCHAR uni4E93
ENCODING 20115
SWIDTH 1000 0
SWIDTH1 1000 0
BBX 11 12 1 -1
BITMAP
7FC0
0000
0000
0000
FFE0
2080
2080
2080
2080
4080
4080
8080
ENDCHAR
STARTCHAR uni4E94
ENCODING 20116
SWIDTH 1000 0
SWIDTH1 1000 0
BBX 11 11 1 -1
BITMAP
FFC0
0800
0800
0800
7F80
1080
1080
1080
2080
2080
FFE0
ENDCHAR
STARTCHAR uni4E95
ENCODING 20117
SWIDTH 1000 0
SWIDTH1 1000 0
BBX 11 12 1 -1
BITMAP
1100
1100
1100
7FC0
1100
1100
1100
FFE0
1100
1100
2100
4100
ENDCHAR
STARTCHAR uni4E96
ENCODING 20118
SWIDTH 1000 0
SWIDTH1 1000 0
BBX 11 11 1 -1
BITMAP
3F80
0000
0000
FFE0
0000
0000
0000
3F80
0000
0000
FFE0
ENDCHAR
STARTCHAR uni4E97
ENCODING 20119
SWIDTH 1000 0
SWIDTH1 1000 0
BBX 11 12 1 -1
BITMAP
0400
4440
4440
4440
7FC0
0000
0000
7FC0
0000
0000
0000
FFE0
ENDCHAR
STARTCHAR uni4E98
ENCODING 20120
SWIDTH 1000 0
SWIDTH1 1000 0
BBX 11 11 1 -1
BITMAP
FFE0
0000
7FC0
4040
4040
7FC0
4040
4040
7FC0
0000
FFE0
ENDCHAR
STARTCHAR uni4E99
ENCODING 20121
SWIDTH 1000 0
SWIDTH1 1000 0
BBX 11 11 1 -1
BITMAP
FFE0
2000
2000
3F80
2080
4880
4480
5100
0900
0100
FFE0
ENDCHAR
STARTCHAR uni4E9A
ENCODING 20122
SWIDTH 1000 0
SWIDTH1 1000 0
BBX 11 11 1 -1
BITMAP
7FC0
1100
1100
1100
9120
5140
3180
1100
1100
1100
FFE0
ENDCHAR
STARTCHAR uni4E9B
ENCODING 20123
SWIDTH 1000 0
SWIDTH1 1000 0
BBX 11 12 1 -1
BITMAP
1100
5120
5D40
5180
5120
5D20
E0E0
0000
3F80
0000
0000
FFE0
ENDCHAR
STARTCHAR uni4E9C
ENCODING 20124
SWIDTH 1000 0
SWIDTH1 1000 0
BBX 10 11 2 -1
BITMAP
FFC0
1200
1200
FFC0
9240
9240
9240
FFC0
1200
1200
FFC0
ENDCHAR
STARTCHAR uni4E9D
ENCODING 20125
SWIDTH 1000 0
SWIDTH1 1000 0
BBX 11 12 1 -1
BITMAP
1000
2080
7FC0
2080
4100
9240
FBE0
0820
0000
7FC0
0000
FFE0
ENDCHAR
STARTCHAR uni4E9E
ENCODING 20126
SWIDTH 1000 0
SWIDTH1 1000 0
BBX 11 11 1 -1
BITMAP
FFE0
1100
1100
71C0
4040
4040
4040
71C0
1100
1100
FFE0
ENDCHAR
STARTCHAR uni4E9F
ENCODING 20127
SWIDTH 1000 0
SWIDTH1 1000 0
BBX 11 12 1 -1
BITMAP
7F80
0100
0200
F5E0
9420
9540
9480
F540
0620
0C00
0000
FFE0
ENDCHAR
STARTCHAR uni4EA0
ENCODING 20128
SWIDTH 1000 0
SWIDTH1 1000 0
BBX 11 3 1 8
BITMAP
0800
0400
FFE0
ENDCHAR
STARTCHAR uni4EA1
ENCODING 20129
SWIDTH 1000 0
SWIDTH1 1000 0
BBX 11 12 1 -1
BITMAP
0800
0400
0000
FFE0
2000
2000
2000
2000
2000
2000
2000
3FE0
ENDCHAR
STARTCHAR uni4EA2
ENCODING 20130
SWIDTH 1000 0
SWIDTH1 1000 0
BBX 11 12 1 -1
BITMAP
0800
0400
FFE0
0000
0000
3F00
2100
2100
2100
2120
4120
80E0
ENDCHAR
STARTCHAR uni4EA3
ENCODING 20131
SWIDTH 1000 0
SWIDTH1 1000 0
BBX 11 12 1 -1
BITMAP
0800
0400
0000
FFE0
1080
1080
1080
1080
2080
2080
4080
8080
ENDCHAR
STARTCHAR uni4EA4
ENCODING 20132
SWIDTH 1000 0
SWIDTH1 1000 0
BBX 11 12 1 -1
BITMAP
0800
0400
FFE0
0000
1100
2080
5140
0A00
0400
0A00
3180
C060
ENDCHAR
STARTCHAR uni4EA5
ENCODING 20133
SWIDTH 1000 0
SWIDTH1 1000 0
BBX 11 12 1 -1
BITMAP
0800
0400
FFE0
1000
2100
7E00
0480
1900
6200
0500
1880
E040
ENDCHAR
STARTCHAR uni4EA6
ENCODING 20134
SWIDTH 1000 0
SWIDTH1 1000 0
BBX 11 12 1 -1
BITMAP
0800
0400
FFE0
1100
1100
1100
5140
5120
9120
1100
2100
4300
ENDCHAR
STARTCHAR uni4EA7
ENCODING 20135
SWIDTH 1000 0
SWIDTH1 1000 0
BBX 11 12 1 -1
BITMAP
0800
0400
7FE0
0000
1080
0900
7FE0
4000
4000
4000
4000
8000
ENDCHAR
STARTCHAR uni4EA8
ENCODING 20136
SWIDTH 1000 0
SWIDTH1 1000 0
BBX 11 12 1 -1
BITMAP
0400
FFE0
0000
3F80
2080
3F80
0000
7FC0
0180
0600
0400
1C00
ENDCHAR
STARTCHAR uni4EA9
ENCODING 20137
SWIDTH 1000 0
SWIDTH1 1000 0
BBX 11 12 1 -1
BITMAP
0800
0400
FFE0
0000
7FC0
4440
4440
7FC0
4440
4440
7FC0
4040
ENDCHAR
STARTCHAR uni4EAA
ENCODING 20138
SWIDTH 1000 0
SWIDTH1 1000 0
BBX 11 12 1 -1
BITMAP
0400
FFE0
1100
5140
9120
2300
0000
7F80
0080
0080
0040
0020
ENDCHAR
STARTCHAR uni4EAB
ENCODING 20139
SWIDTH 1000 0
SWIDTH1 1000 0
BBX 11 12 1 -1
BITMAP
0400
FFE0
0000
7FC0
4040
7FC0
0000
7F80
0100
FFE0
0200
0E00
ENDCHAR
STARTCHAR uni4EAC
ENCODING 20140
SWIDTH 1000 0
SWIDTH1 1000 0
BBX 11 12 1 -1
BITMAP
0800
0400
FFE0
0000
7FC0
4040
4040
7FC0
0400
2480
4440
8C20
ENDCHAR
STARTCHAR uni4EAD
ENCODING 20141
SWIDTH 1000 0
SWIDTH1 1000 0
BBX 11 12 1 -1
BITMAP
0400
FFE0
0000
3F80
2080
3F80
0000
FFE0
8020
7FC0
0400
1C00
ENDCHAR
STARTCHAR uni4EAE
ENCODING 20142
SWIDTH 1000 0
SWIDTH1 1000 0
BBX 11 12 1 -1
BITMAP
0400
FFE0
0000
3F80
2080
3F80
0000
FFE0
8020
3F00
2120
C0E0
ENDCHAR
STARTCHAR uni4EAF
ENCODING 20143
SWIDTH 1000 0
SWIDTH1 1000 0
BBX 11 12 1 -1
BITMAP
0400
FFE0
0000
3F80
2080
3F80
0000
7FC0
4040
7FC0
4040
7FC0
ENDCHAR
STARTCHAR uni4EB0
ENCODING 20144
SWIDTH 1000 0
SWIDTH1 1000 0
BBX 11 12 1 -1
BITMAP
0400
FFE0
0000
7FC0
4040
7FC0
4040
7FC0
0400
2480
4440
8C20
ENDCHAR
STARTCHAR uni4EB1
ENCODING 20145
SWIDTH 1000 0
SWIDTH1 1000 0
BBX 11 12 1 -1
BITMAP
0400
FFE0
1000
17C0
2440
6440
A7C0
2440
2440
27C0
2000
2FE0
ENDCHAR
STARTCHAR uni4EB2
ENCODING 20146
SWIDTH 1000 0
SWIDTH1 1000 0
BBX 11 12 1 -1
BITMAP
0400
7FC0
2080
1100
FFE0
0400
0400
7FC0
0400
2480
4440
8C20
ENDCHAR
STARTCHAR uni4EB3
ENCODING 20147
SWIDTH 1000 0
SWIDTH1 1000 0
BBX 11 12 1 -1
BITMAP
0400
FFE0
0000
3F80
2080
FFE0
8020
0700
7800
0F80
F820
07E0
ENDCHAR
STARTCHAR uni4EB4
ENCODING 20148
SWIDTH 1000 0
SWIDTH1 1000 0
BBX 11 12 1 -1
BITMAP
0400
FFE0
2080
FFE0
8420
3F80
0400
FFE0
1000
FF00
2120
C0E0
ENDCHAR
STARTCHAR uni4EB5
ENCODING 20149
SWIDTH 1000 0
SWIDTH1 1000 0
BBX 11 12 1 -1
BITMAP
0400
FFE0
2200
F780
2280
F6A0
2560
6C20
0A00
3140
D480
1860
ENDCHAR
STARTCHAR uni4EB6
ENCODING 20150
SWIDTH 1000 0
SWIDTH1 1000 0
BBX 11 12 1 -1
BITMAP
0400
FFE0
0000
7FC0
5140
5F40
4040
7FC0
2080
3F80
2080
FFE0
ENDCHAR
STARTCHAR uni4EB7
ENCODING 20151
SWIDTH 1000 0
SWIDTH1 1000 0
BBX 11 12 1 -1
BITMAP
0200
7FE0
1080
7FE0
4900
5FC0
4940
7FE0
4940
5FC0
5980
A940
ENDCHAR
STARTCHAR uni4EB8
ENCODING 20152
SWIDTH 1000 0
SWIDTH1 1000 0
BBX 11 12 1 -1
BITMAP
1220
FD40
03E0
7AA0
4BE0
7AA0
02A0
7BE0
0880
FFE0
1080
3080
ENDCHAR
STARTCHAR uni4EB9
ENCODING 20153
SWIDTH 1000 0
SWIDTH1 1000 0
BBX 11 12 1 -1
BITMAP
0400
FFE0
0000
2EC0
4A40
6EC0
4A40
FFE0
A0A0
3F80
2080
FFE0
ENDCHAR
STARTCHAR uni4EBA
ENCODING 20154
SWIDTH 1000 0
SWIDTH1 1000 0
BBX 11 12 1 -1
BITMAP
0400
0400
0400
0400
0400
0A00
0A00
1100
1100
2080
4040
8020
ENDCHAR
STARTCHAR uni4EBB
ENCODING 20155
SWIDTH 1000 0
SWIDTH1 1000 0
BBX 4 12 1 -1
BITMAP
10
10
20
20
60
A0
20
20
20
20
20
20
ENDCHAR
STARTCHAR uni4EBC
ENCODING 20156
SWIDTH 1000 0
SWIDTH1 1000 0
BBX 11 12 1 -1
BITMAP
0400
0400
0400
0400
0A00
0A00
1100
2080
C060
0000
0000
FFE0
ENDCHAR
STARTCHAR uni4EBD
ENCODING 20157
SWIDTH 1000 0
SWIDTH1 1000 0
BBX 11 12 1 -1
BITMAP
0400
0400
0400
0A00
0A00
1100
2080
C060
0800
0400
0200
0200
ENDCHAR
STARTCHAR uni4EBE
ENCODING 20158
SWIDTH 1000 0
SWIDTH1 1000 0
BBX 11 12 1 -1
BITMAP
0400
0400
0400
8400
8A00
8A00
9100
9100
A080
C040
8000
FFE0
ENDCHAR
STARTCHAR uni4EBF
ENCODING 20159
SWIDTH 1000 0
SWIDTH1 1000 0
BBX 11 12 1 -1
BITMAP
1000
1FC0
2040
2080
6100
A200
2400
2400
2820
2820
2820
27E0
ENDCHAR
STARTCHAR uni4EC0
ENCODING 20160
SWIDTH 1000 0
SWIDTH1 1000 0
BBX 11 12 1 -1
BITMAP
1100
1100
2100
2100
6100
AFE0
2100
2100
2100
2100
2100
2100
ENDCHAR
STARTCHAR uni4EC1
ENCODING 20161
SWIDTH 1000 0
SWIDTH1 1000 0
BBX 11 12 1 -1
BITMAP
1000
1000
2000
2FC0
6000
A000
2000
2000
2000
2000
3FE0
2000
ENDCHAR
STARTCHAR uni4EC2
ENCODING 20162
SWIDTH 1000 0
SWIDTH1 1000 0
BBX 11 12 1 -1
BITMAP
1200
1200
2200
2FE0
6220
A220
2220
2220
2420
2420
2820
31C0
ENDCHAR
STARTCHAR uni4EC3
ENCODING 20163
SWIDTH 1000 0
SWIDTH1 1000 0
BBX 11 12 1 -1
BITMAP
1000
17E0
2080
2080
6080
A080
2080
2080
2080
2080
2080
2380
ENDCHAR
STARTCHAR uni4EC4
ENCODING 20164
SWIDTH 1000 0
SWIDTH1 1000 0
BBX 11 11 1 -1
BITMAP
7FE0
4200
4200
4200
4200
4500
4500
4880
4880
5040
A020
ENDCHAR
STARTCHAR uni4EC5
ENCODING 20165
SWIDTH 1000 0
SWIDTH1 1000 0
BBX 11 12 1 -1
BITMAP
1000
1FE0
2420
2420
6420
A440
2240
2280
2100
2280
2440
2820
ENDCHAR
STARTCHAR uni4EC6
ENCODING 20166
SWIDTH 1000 0
SWIDTH1 1000 0
BBX 11 12 1 -1
BITMAP
1100
1100
2100
2100
6180
A140
2120
2120
2100
2100
2100
2100
ENDCHAR
STARTCHAR uni4EC7
ENCODING 20167
SWIDTH 1000 0
SWIDTH1 1000 0
BBX 11 12 1 -1
BITMAP
2400
2400
4400
5F80
C480
4480
4480
4480
4480
48A0
48A0
5060
ENDCHAR
STARTCHAR uni4EC8
ENCODING 20168
SWIDTH 1000 0
SWIDTH1 1000 0
BBX 11 12 1 -1
BITMAP
1080
1480
2480
2480
6480
A480
2480
2480
2480
2840
2840
3020
ENDCHAR
STARTCHAR uni4EC9
ENCODING 20169
SWIDTH 1000 0
SWIDTH1 1000 0
BBX 11 12 1 -1
BITMAP
1000
1780
2480
2480
6480
A480
2480
2480
2480
24A0
28A0
3060
ENDCHAR
STARTCHAR uni4ECA
ENCODING 20170
SWIDTH 1000 0
SWIDTH1 1000 0
BBX 11 12 1 -1
BITMAP
0400
0A00
1100
2080
C860
0400
0000
7F80
0080
0100
0200
0400
ENDCHAR
STARTCHAR uni4ECB
ENCODING 20171
SWIDTH 1000 0
SWIDTH1 1000 0
BBX 11 12 1 -1
BITMAP
0400
0400
0A00
1100
2080
C060
1100
1100
1100
2100
2100
4100
ENDCHAR
STARTCHAR uni4ECC
ENCODING 20172
SWIDTH 1000 0
SWIDTH1 1000 0
BBX 11 12 1 -1
BITMAP
0400
0400
0A00
0900
1080
2040
C440
0400
0A00
1100
2080
C060
ENDCHAR
STARTCHAR uni4ECD
ENCODING 20173
SWIDTH 1000 0
SWIDTH1 1000 0
BBX 11 12 1 -1
BITMAP
2000
2FC0
4440
4440
C480
4480
44E0
4420
4420
4820
4820
50C0
ENDCHAR
STARTCHAR uni4ECE
ENCODING 20174
SWIDTH 1000 0
SWIDTH1 1000 0
BBX 11 12 1 -1
BITMAP
1100
1100
1100
1100
1100
2900
2A80
2A80
2A80
4440
4440
8820
ENDCHAR
STARTCHAR uni4ECF
ENCODING 20175
SWIDTH 1000 0
SWIDTH1 1000 0
BBX 11 12 1 -1
BITMAP
1100
1100
2100
2100
6200
A200
2200
2400
2440
2820
2FE0
2020
ENDCHAR
STARTCHAR uni4ED0
ENCODING 20176
SWIDTH 1000 0
SWIDTH1 1000 0
BBX 11 12 1 -1
BITMAP
0400
0400
0A00
1100
2080
C460
0400
0400
FFE0
0400
0400
0400
ENDCHAR
STARTCHAR uni4ED1
ENCODING 20177
SWIDTH 1000 0
SWIDTH1 1000 0
BBX 11 12 1 -1
BITMAP
0400
0A00
1100
2080
C060
2000
2180
2600
3800
2040
2040
1FC0
ENDCHAR
STARTCHAR uni4ED2
ENCODING 20178
SWIDTH 1000 0
SWIDTH1 1000 0
BBX 11 12 1 -1
BITMAP
0400
0400
0A00
1100
2080
C060
0C00
0300
0080
1800
0600
0100
ENDCHAR
STARTCHAR uni4ED3
ENCODING 20179
SWIDTH 1000 0
SWIDTH1 1000 0
BBX 11 12 1 -1
BITMAP
0400
0A00
1100
2080
C060
3F00
2100
2100
2100
2640
2040
1FC0
ENDCHAR
STARTCHAR uni4ED4
ENCODING 20180
SWIDTH 1000 0
SWIDTH1 1000 0
BBX 11 12 1 -1
BITMAP
1000
17C0
2040
2080
6100
A100
2FE0
2100
2100
2100
2100
2300
ENDCHAR
STARTCHAR uni4ED5
ENCODING 20181
SWIDTH 1000 0
SWIDTH1 1000 0
BBX 11 12 1 -1
BITMAP
1100
1100
2100
2100
6FE0
A100
2100
2100
2100
2100
27C0
2000
ENDCHAR
STARTCHAR uni4ED6
ENCODING 20182
SWIDTH 1000 0
SWIDTH1 1000 0
BBX 11 12 1 -1
BITMAP
1100
1100
2560
25A0
6720
AD20
2520
2560
2500
2420
2420
23E0
ENDCHAR
STARTCHAR uni4ED7
ENCODING 20183
SWIDTH 1000 0
SWIDTH1 1000 0
BBX 11 12 1 -1
BITMAP
1080
1080
2080
2FE0
6080
A880
2480
2500
2200
2500
2880
3060
ENDCHAR
STARTCHAR uni4ED8
ENCODING 20184
SWIDTH 1000 0
SWIDTH1 1000 0
BBX 11 12 1 -1
BITMAP
1040
1040
2040
2FE0
6040
A040
2440
2240
2240
2040
2040
21C0
ENDCHAR
STARTCHAR uni4ED9
ENCODING 20185
SWIDTH 1000 0
SWIDTH1 1000 0
BBX 11 12 1 -1
BITMAP
1100
1100
2100
2920
6920
A920
2920
2920
2920
2920
2FE0
2020
ENDCHAR
STARTCHAR uni4EDA
ENCODING 20186
SWIDTH 1000 0
SWIDTH1 1000 0
BBX 11 12 1 -1
BITMAP
0400
0A00
1100
2080
C460
0400
4440
4440
4440
4440
7FC0
0040
ENDCHAR
STARTCHAR uni4EDB
ENCODING 20187
SWIDTH 1000 0
SWIDTH1 1000 0
BBX 11 12 1 -1
BITMAP
10C0
1700
2100
2100
6100
A1E0
2F00
2100
2100
2120
2120
20E0
ENDCHAR
STARTCHAR uni4EDC
ENCODING 20188
SWIDTH 1000 0
SWIDTH1 1000 0
BBX 11 12 1 -1
BITMAP
1000
17C0
2100
2100
6100
A100
2100
2100
2100
2100
2100
2FE0
ENDCHAR
STARTCHAR uni4EDD
ENCODING 20189
SWIDTH 1000 0
SWIDTH1 1000 0
BBX 11 12 1 -1
BITMAP
0400
0A00
1100
2080
C060
0000
7FC0
0400
0400
0400
0400
FFE0
ENDCHAR
STARTCHAR uni4EDE
ENCODING 20190
SWIDTH 1000 0
SWIDTH1 1000 0
BBX 11 12 1 -1
BITMAP
1000
17E0
2120
2120
6520
A520
2520
2920
2220
2220
2420
28C0
ENDCHAR
STARTCHAR uni4EDF
ENCODING 20191
SWIDTH 1000 0
SWIDTH1 1000 0
BBX 11 12 1 -1
BITMAP
10C0
1700
2100
2100
6100
AFE0
2100
2100
2100
2100
2100
2100
ENDCHAR
STARTCHAR uni4EE0
ENCODING 20192
SWIDTH 1000 0
SWIDTH1 1000 0
BBX 11 12 1 -1
BITMAP
1000
17C0
2100
2100
6100
A100
2FE0
2100
2100
2100
2100
2100
ENDCHAR
STARTCHAR uni4EE1
ENCODING 20193
SWIDTH 1000 0
SWIDTH1 1000 0
BBX 11 12 1 -1
BITMAP
1400
1400
27E0
2800
7000
AFC0
2040
2180
2600
2820
2820
27E0
ENDCHAR
STARTCHAR uni4EE2
ENCODING 20194
SWIDTH 1000 0
SWIDTH1 1000 0
BBX 11 12 1 -1
BITMAP
1200
1200
23E0
2420
6820
A220
2120
2120
2020
2020
2020
20C0
ENDCHAR
STARTCHAR uni4EE3
ENCODING 20195
SWIDTH 1000 0
SWIDTH1 1000 0
BBX 11 12 1 -1
BITMAP
1280
1240
2200
22E0
6F00
A200
2200
2200
2120
20A0
2060
2020
ENDCHAR
STARTCHAR uni4EE4
ENCODING 20196
SWIDTH 1000 0
SWIDTH1 1000 0
BBX 11 12 1 -1
BITMAP
0400
0A00
1100
2080
C860
0400
7F80
0080
0100
3200
0C00
0300
ENDCHAR
STARTCHAR uni4EE5
ENCODING 20197
SWIDTH 1000 0
SWIDTH1 1000 0
BBX 10 12 2 -1
BITMAP
0100
9100
8900
8900
8100
8100
9100
A200
C200
8500
1880
6040
ENDCHAR
STARTCHAR uni4EE6
ENCODING 20198
SWIDTH 1000 0
SWIDTH1 1000 0
BBX 11 12 1 -1
BITMAP
1100
1100
2100
2100
6540
A540
2520
2520
2920
2100
2100
2700
ENDCHAR
STARTCHAR uni4EE7
ENCODING 20199
SWIDTH 1000 0
SWIDTH1 1000 0
BBX 11 12 1 -1
BITMAP
0800
0800
0FC0
0800
0800
FFE0
0000
0400
0400
0A00
3180
C060
ENDCHAR
STARTCHAR uni4EE8
ENCODING 20200
SWIDTH 1000 0
SWIDTH1 1000 0
BBX 11 12 1 -1
BITMAP
2000
2FC0
4000
4000
C000
4000
4FC0
4000
4000
4000
4000
5FE0
ENDCHAR
STARTCHAR uni4EE9
ENCODING 20201
SWIDTH 1000 0
SWIDTH1 1000 0
BBX 11 12 1 -1
BITMAP
1100
1100
2100
2100
61E0
A100
2100
2100
2100
2100
2100
2FE0
ENDCHAR
STARTCHAR uni4EEA
ENCODING 20202
SWIDTH 1000 0
SWIDTH1 1000 0
BBX 11 12 1 -1
BITMAP
1200
1100
2120
2820
6820
A440
2440
2280
2100
2280
2440
2820
ENDCHAR
STARTCHAR uni4EEB
ENCODING 20203
SWIDTH 1000 0
SWIDTH1 1000 0
BBX 11 12 1 -1
BITMAP
1100
1100
2200
2240
6440
A880
2080
2100
2200
2440
2FE0
2020
ENDCHAR
STARTCHAR uni4EEC
ENCODING 20204
SWIDTH 1000 0
SWIDTH1 1000 0
BBX 11 12 1 -1
BITMAP
2800
25E0
4820
4820
C820
4820
4820
4820
4820
4820
4820
4860
ENDCHAR
STARTCHAR uni4EED
ENCODING 20205
SWIDTH 1000 0
SWIDTH1 1000 0
BBX 11 12 1 -1
BITMAP
1000
1FC0
2440
2440
7440
AC40
2640
25C0
2860
2840
3040
2180
ENDCHAR
STARTCHAR uni4EEE
ENCODING 20206
SWIDTH 1000 0
SWIDTH1 1000 0
BBX 11 12 1 -1
BITMAP
20E0
2F00
4800
4800
CFE0
4A20
4A20
4940
4940
4880
4940
5620
ENDCHAR
STARTCHAR uni4EEF
ENCODING 20207
SWIDTH 1000 0
SWIDTH1 1000 0
BBX 11 12 1 -1
BITMAP
1100
1100
2140
2520
6520
A520
2900
2120
2040
2080
2300
2C00
ENDCHAR
STARTCHAR uni4EF0
ENCODING 20208
SWIDTH 1000 0
SWIDTH1 1000 0
BBX 11 12 1 -1
BITMAP
1200
1400
29E0
2920
6920
A920
2920
2B20
2D20
2960
2100
2100
ENDCHAR
STARTCHAR uni4EF1
ENCODING 20209
SWIDTH 1000 0
SWIDTH1 1000 0
BBX 11 12 1 -1
BITMAP
1200
1200
2500
2880
7460
A200
2000
2FC0
2040
2080
2100
2200
ENDCHAR
STARTCHAR uni4EF2
ENCODING 20210
SWIDTH 1000 0
SWIDTH1 1000 0
BBX 11 12 1 -1
BITMAP
1100
1100
2100
2FE0
6920
A920
2920
2FE0
2920
2100
2100
2100
ENDCHAR
STARTCHAR uni4EF3
ENCODING 20211
SWIDTH 1000 0
SWIDTH1 1000 0
BBX 11 12 1 -1
BITMAP
2900
2900
4920
4920
CF40
4980
4900
4900
4900
4B20
4D20
48E0
ENDCHAR
STARTCHAR uni4EF4
ENCODING 20212
SWIDTH 1000 0
SWIDTH1 1000 0
BBX 11 12 1 -1
BITMAP
1000
17E0
2420
2420
67E0
A420
2420
27E0
2420
2420
2420
28E0
ENDCHAR
STARTCHAR uni4EF5
ENCODING 20213
SWIDTH 1000 0
SWIDTH1 1000 0
BBX 11 12 1 -1
BITMAP
1400
1400
27C0
2900
6100
A100
2100
2FE0
2100
2100
2100
2100
ENDCHAR
STARTCHAR uni4EF6
ENCODING 20214
SWIDTH 1000 0
SWIDTH1 1000 0
BBX 11 12 1 -1
BITMAP
2100
2900
4900
4FE0
D100
4100
4100
5FE0
4100
4100
4100
4100
ENDCHAR
STARTCHAR uni4EF7
ENCODING 20215
SWIDTH 1000 0
SWIDTH1 1000 0
BBX 11 12 1 -1
BITMAP
1100
1100
2280
2440
6820
A440
2440
2440
2440
2440
2440
2840
ENDCHAR
STARTCHAR uni4EF8
ENCODING 20216
SWIDTH 1000 0
SWIDTH1 1000 0
BBX 11 12 1 -1
BITMAP
10C0
1700
2100
2100
6100
AFE0
2100
2100
2280
2280
2440
2820
ENDCHAR
STARTCHAR uni4EF9
ENCODING 20217
SWIDTH 1000 0
SWIDTH1 1000 0
BBX 11 12 1 -1
BITMAP
1100
1100
2FE0
2100
6100
A7C0
2100
2100
2FE0
2100
2100
2100
ENDCHAR
STARTCHAR uni4EFA
ENCODING 20218
SWIDTH 1000 0
SWIDTH1 1000 0
BBX 11 12 1 -1
BITMAP
0400
0A00
1100
2080
C060
3F80
2000
2000
3F80
2000
2000
3FC0
ENDCHAR
STARTCHAR uni4EFB
ENCODING 20219
SWIDTH 1000 0
SWIDTH1 1000 0
BBX 11 12 1 -1
BITMAP
1000
10C0
2700
2100
6100
A100
2FE0
2100
2100
2100
2100
27C0
ENDCHAR
STARTCHAR uni4EFC
ENCODING 20220
SWIDTH 1000 0
SWIDTH1 1000 0
BBX 11 12 1 -1
BITMAP
1000
1FE0
2100
2100
6100
A100
2FE0
2100
2100
2100
2100
2FE0
ENDCHAR
STARTCHAR uni4EFD
ENCODING 20221
SWIDTH 1000 0
SWIDTH1 1000 0
BBX 11 12 1 -1
BITMAP
2480
2480
4840
4840
D020
4FC0
4440
4440
4440
4840
4840
5180
ENDCHAR
STARTCHAR uni4EFE
ENCODING 20222
SWIDTH 1000 0
SWIDTH1 1000 0
BBX 11 12 1 -1
BITMAP
1000
1FE0
2200
2200
63C0
A240
2440
2440
2780
2080
2080
2FE0
ENDCHAR
STARTCHAR uni4EFF
ENCODING 20223
SWIDTH 1000 0
SWIDTH1 1000 0
BBX 11 12 1 -1
BITMAP
1200
1100
2FE0
2200
6200
A3E0
2220
2220
2220
2420
2420
28C0
ENDCHAR
STARTCHAR uni4F00
ENCODING 20224
SWIDTH 1000 0
SWIDTH1 1000 0
BBX 11 12 1 -1
BITMAP
1480
1480
2480
2840
6840
B220
2200
2400
2480
2840
2FC0
2040
ENDCHAR
STARTCHAR uni4F01
ENCODING 20225
SWIDTH 1000 0
SWIDTH1 1000 0
BBX 11 12 1 -1
BITMAP
0400
0A00
1100
2080
C460
0400
2400
27C0
2400
2400
2400
FFE0
ENDCHAR
STARTCHAR uni4F02
ENCODING 20226
SWIDTH 1000 0
SWIDTH1 1000 0
BBX 11 12 1 -1
BITMAP
1100
1100
2FE0
2100
6100
AFE0
2920
2920
2920
2960
2100
2100
ENDCHAR
STARTCHAR uni4F03
ENCODING 20227
SWIDTH 1000 0
SWIDTH1 1000 0
BBX 11 12 1 -1
BITMAP
1000
17C0
2040
2280
6100
AFE0
2120
2100
2100
2100
2100
2700
ENDCHAR
STARTCHAR uni4F04
ENCODING 20228
SWIDTH 1000 0
SWIDTH1 1000 0
BBX 11 12 1 -1
BITMAP
1000
1FE0
2120
2120
6FE0
A900
2900
2FE0
2120
2120
2160
2100
ENDCHAR
STARTCHAR uni4F05
ENCODING 20229
SWIDTH 1000 0
SWIDTH1 1000 0
BBX 11 12 1 -1
BITMAP
1100
1100
2FE0
2100
6920
A920
2920
2FE0
2100
2120
2120
20E0
ENDCHAR
STARTCHAR uni4F06
ENCODING 20230
SWIDTH 1000 0
SWIDTH1 1000 0
BBX 11 12 1 -1
BITMAP
2400
2400
47E0
4AA0
CAA0
52A0
44A0
4520
4920
5220
4420
48C0
ENDCHAR
STARTCHAR uni4F07
ENCODING 20231
SWIDTH 1000 0
SWIDTH1 1000 0
BBX 11 12 1 -1
BITMAP
1780
1480
2480
2480
6860
A000
2FC0
2440
2280
2100
2280
2C60
ENDCHAR
STARTCHAR uni4F08
ENCODING 20232
SWIDTH 1000 0
SWIDTH1 1000 0
BBX 11 12 1 -1
BITMAP
1100
1080
2080
2000
6240
AA20
2A20
2A20
2A00
3240
2240
21C0
ENDCHAR
STARTCHAR uni4F09
ENCODING 20233
SWIDTH 1000 0
SWIDTH1 1000 0
BBX 11 12 1 -1
BITMAP
1200
1100
2FE0
2000
6000
A780
2480
2480
2480
24A0
28A0
3060
ENDCHAR
STARTCHAR uni4F0A
ENCODING 20234
SWIDTH 1000 0
SWIDTH1 1000 0
BBX 11 12 1 -1
BITMAP
2000
2FC0
4240
4240
DFE0
4240
4240
4FC0
4240
4200
4400
4800
ENDCHAR
STARTCHAR uni4F0B
ENCODING 20235
SWIDTH 1000 0
SWIDTH1 1000 0
BBX 11 12 1 -1
BITMAP
2000
2FC0
4440
4440
C480
44E0
4420
4620
4540
4880
4940
5220
ENDCHAR
STARTCHAR uni4F0C
ENCODING 20236
SWIDTH 1000 0
SWIDTH1 1000 0
BBX 11 12 1 -1
BITMAP
2000
2FE0
4800
4BC0
CA40
4A40
4A40
4AC0
4A00
4A20
4A20
51E0
ENDCHAR
STARTCHAR uni4F0D
ENCODING 20237
SWIDTH 1000 0
SWIDTH1 1000 0
BBX 11 12 1 -1
BITMAP
2000
2FC0
4200
4200
C200
4FC0
4240
4240
4440
4440
4440
5FE0
ENDCHAR
STARTCHAR uni4F0E
ENCODING 20238
SWIDTH 1000 0
SWIDTH1 1000 0
BBX 11 12 1 -1
BITMAP
1100
1100
2FE0
2100
6100
AFC0
2440
2440
2280
2100
2280
2C60
ENDCHAR
STARTCHAR uni4F0F
ENCODING 20239
SWIDTH 1000 0
SWIDTH1 1000 0
BBX 11 12 1 -1
BITMAP
1100
1140
2120
2100
6FE0
A100
2280
2280
2280
2440
2440
2820
ENDCHAR
STARTCHAR uni4F10
ENCODING 20240
SWIDTH 1000 0
SWIDTH1 1000 0
BBX 11 12 1 -1
BITMAP
1280
1240
2200
23E0
6E00
A240
2240
2280
2120
22A0
2460
2820
ENDCHAR
STARTCHAR uni4F11
ENCODING 20241
SWIDTH 1000 0
SWIDTH1 1000 0
BBX 11 12 1 -1
BITMAP
1100
1100
2100
2FE0
6100
A380
2380
2540
2540
2920
2100
2100
ENDCHAR
STARTCHAR uni4F12
ENCODING 20242
SWIDTH 1000 0
SWIDTH1 1000 0
BBX 11 12 1 -1
BITMAP
10C0
1700
2400
2400
67E0
A480
2480
2480
2480
2480
2480
2880
ENDCHAR
STARTCHAR uni4F13
ENCODING 20243
SWIDTH 1000 0
SWIDTH1 1000 0
BBX 11 12 1 -1
BITMAP
1000
17E0
2080
2080
6100
A140
2320
2520
2920
2100
2100
2100
ENDCHAR
STARTCHAR uni4F14
ENCODING 20244
SWIDTH 1000 0
SWIDTH1 1000 0
BBX 11 12 1 -1
BITMAP
2000
2FE0
4820
4000
C780
4480
4480
4480
4480
44A0
48A0
5060
ENDCHAR
STARTCHAR uni4F15
ENCODING 20245
SWIDTH 1000 0
SWIDTH1 1000 0
BBX 11 12 1 -1
BITMAP
1100
1100
2100
27C0
6100
A100
2FE0
2100
2280
2280
2440
2820
ENDCHAR
STARTCHAR uni4F16
ENCODING 20246
SWIDTH 1000 0
SWIDTH1 1000 0
BBX 11 12 1 -1
BITMAP
2400
2400
4400
5FE0
C400
47C0
4A40
4A40
5280
5100
6280
4C60
ENDCHAR
STARTCHAR uni4F17
ENCODING 20247
SWIDTH 1000 0
SWIDTH1 1000 0
BBX 11 12 1 -1
BITMAP
0400
0400
0A00
1100
2080
C060
1100
1100
1100
2A80
4440
8820
ENDCHAR
STARTCHAR uni4F18
ENCODING 20248
SWIDTH 1000 0
SWIDTH1 1000 0
BBX 11 12 1 -1
BITMAP
2480
2440
4400
5FE0
C500
4500
4500
4500
4900
4920
5120
60E0
ENDCHAR
STARTCHAR uni4F19
ENCODING 20249
SWIDTH 1000 0
SWIDTH1 1000 0
BBX 11 12 1 -1
BITMAP
1100
1100
2520
2520
6540
A900
2100
2280
2280
2440
2440
2820
ENDCHAR
STARTCHAR uni4F1A
ENCODING 20250
SWIDTH 1000 0
SWIDTH1 1000 0
BBX 11 12 1 -1
BITMAP
0400
0A00
1100
2080
DF60
0000
0000
FFE0
1000
2080
7FC0
0040
ENDCHAR
STARTCHAR uni4F1B
ENCODING 20251
SWIDTH 1000 0
SWIDTH1 1000 0
BBX 11 12 1 -1
BITMAP
2000
2FE0
4800
4A40
C940
4940
4880
4880
4940
4A40
4800
4FE0
ENDCHAR
STARTCHAR uni4F1C
ENCODING 20252
SWIDTH 1000 0
SWIDTH1 1000 0
BBX 11 12 1 -1
BITMAP
2400
2400
5F80
4480
C480
48A0
5260
4200
7FE0
4200
4200
4200
ENDCHAR
STARTCHAR uni4F1D
ENCODING 20253
SWIDTH 1000 0
SWIDTH1 1000 0
BBX 11 12 1 -1
BITMAP
1000
17C0
2000
2000
6000
AFE0
2100
2200
2200
2440
2FE0
2020
ENDCHAR
STARTCHAR uni4F1E
ENCODING 20254
SWIDTH 1000 0
SWIDTH1 1000 0
BBX 11 12 1 -1
BITMAP
0400
0A00
1100
2080
C460
0400
2480
1500
FFE0
0400
0400
0400
ENDCHAR
STARTCHAR uni4F1F
ENCODING 20255
SWIDTH 1000 0
SWIDTH1 1000 0
BBX 11 12 1 -1
BITMAP
2200
2200
5FE0
4200
CFC0
4200
5FE0
4220
4220
4220
42C0
4200
ENDCHAR
STARTCHAR uni4F20
ENCODING 20256
SWIDTH 1000 0
SWIDTH1 1000 0
BBX 11 12 1 -1
BITMAP
1100
1100
2FC0
2200
6200
BFE0
2400
27C0
2040
2680
2180
2040
ENDCHAR
STARTCHAR uni4F21
ENCODING 20257
SWIDTH 1000 0
SWIDTH1 1000 0
BBX 11 12 1 -1
BITMAP
1100
1100
2FE0
2200
6300
A500
27C0
2100
2100
2FE0
2100
2100
ENDCHAR
STARTCHAR uni4F22
ENCODING 20258
SWIDTH 1000 0
SWIDTH1 1000 0
BBX 11 12 1 -1
BITMAP
1000
17E0
2040
2240
6440
A7E0
20C0
2140
2240
2440
2840
20C0
ENDCHAR
STARTCHAR uni4F23
ENCODING 20259
SWIDTH 1000 0
SWIDTH1 1000 0
BBX 11 12 1 -1
BITMAP
1000
17C0
2440
2540
6540
A540
2540
2540
2280
2280
24A0
2860
ENDCHAR
STARTCHAR uni4F24
ENCODING 20260
SWIDTH 1000 0
SWIDTH1 1000 0
BBX 11 12 1 -1
BITMAP
1200
1200
23E0
2400
6900
A100
27E0
2120
2220
2220
2420
28C0
ENDCHAR
STARTCHAR uni4F25
ENCODING 20261
SWIDTH 1000 0
SWIDTH1 1000 0
BBX 11 12 1 -1
BITMAP
1400
1440
2580
2600
6400
BFE0
2480
2480
2440
2540
2620
2400
ENDCHAR
STARTCHAR uni4F26
ENCODING 20262
SWIDTH 1000 0
SWIDTH1 1000 0
BBX 11 12 1 -1
BITMAP
1100
1100
2280
2440
6820
A400
2440
2580
2600
2420
2420
23E0
ENDCHAR
STARTCHAR uni4F27
ENCODING 20263
SWIDTH 1000 0
SWIDTH1 1000 0
BBX 11 12 1 -1
BITMAP
2200
2200
4500
4880
D060
4F80
4880
4880
4B00
4820
4820
47E0
ENDCHAR
STARTCHAR uni4F28
ENCODING 20264
SWIDTH 1000 0
SWIDTH1 1000 0
BBX 11 12 1 -1
BITMAP
1200
1200
23E0
2420
6A20
A120
2060
20A0
2120
2620
2020
20C0
ENDCHAR
STARTCHAR uni4F29
ENCODING 20265
SWIDTH 1000 0
SWIDTH1 1000 0
BBX 11 12 1 -1
BITMAP
2400
2200
5FE0
4880
C880
4880
4500
4500
4200
4500
4880
5060
ENDCHAR
STARTCHAR uni4F2A
ENCODING 20266
SWIDTH 1000 0
SWIDTH1 1000 0
BBX 11 12 1 -1
BITMAP
1100
1900
2500
2FE0
6120
A220
2320
22A0
24A0
2420
2820
31C0
ENDCHAR
STARTCHAR uni4F2B
ENCODING 20267
SWIDTH 1000 0
SWIDTH1 1000 0
BBX 11 12 1 -1
BITMAP
1200
1100
2000
2FE0
6820
A820
2000
2000
2000
2000
2FE0
2000
ENDCHAR
STARTCHAR uni4F2C
ENCODING 20268
SWIDTH 1000 0
SWIDTH1 1000 0
BBX 11 12 1 -1
BITMAP
1000
17C0
2440
2440
6440
A7C0
2500
2500
2480
2480
2840
3020
ENDCHAR
STARTCHAR uni4F2D
ENCODING 20269
SWIDTH 1000 0
SWIDTH1 1000 0
BBX 11 12 1 -1
BITMAP
1200
1100
2FE0
2100
6200
A440
2F80
2100
2200
2440
2FE0
2020
ENDCHAR
STARTCHAR uni4F2E
ENCODING 20270
SWIDTH 1000 0
SWIDTH1 1000 0
BBX 11 12 1 -1
BITMAP
2400
2400
45E0
5EA0
CAA0
4AA0
4AA0
4AA0
4A40
4440
4AA0
5120
ENDCHAR
STARTCHAR uni4F2F
ENCODING 20271
SWIDTH 1000 0
SWIDTH1 1000 0
BBX 11 12 1 -1
BITMAP
1080
1100
27E0
2420
6420
A420
27E0
2420
2420
2420
27E0
2420
ENDCHAR
STARTCHAR uni4F30
ENCODING 20272
SWIDTH 1000 0
SWIDTH1 1000 0
BBX 11 12 1 -1
BITMAP
2200
2200
4200
7FE0
C200
4200
5FC0
5040
5040
5040
5FC0
5040
ENDCHAR
STARTCHAR uni4F31
ENCODING 20273
SWIDTH 1000 0
SWIDTH1 1000 0
BBX 11 12 1 -1
BITMAP
1100
1100
2280
2440
6920
A100
2540
2520
2520
2920
2100
2300
ENDCHAR
STARTCHAR uni4F32
ENCODING 20274
SWIDTH 1000 0
SWIDTH1 1000 0
BBX 11 12 1 -1
BITMAP
2000
2FE0
4820
4820
CFE0
4800
4A40
4A80
4B00
4A20
5220
61E0
ENDCHAR
STARTCHAR uni4F33
ENCODING 20275
SWIDTH 1000 0
SWIDTH1 1000 0
BBX 11 12 1 -1
BITMAP
1140
1540
2540
2540
6FE0
A540
2540
2540
25C0
2400
2400
27E0
ENDCHAR
STARTCHAR uni4F34
ENCODING 20276
SWIDTH 1000 0
SWIDTH1 1000 0
BBX 11 12 1 -1
BITMAP
1100
1920
2540
2100
67C0
A100
2100
2FE0
2100
2100
2100
2100
ENDCHAR
STARTCHAR uni4F35
ENCODING 20277
SWIDTH 1000 0
SWIDTH1 1000 0
BBX 11 12 1 -1
BITMAP
1000
1FE0
2AA0
2AA0
6AA0
AAA0
2AA0
2AE0
2C20
2820
2FE0
2820
ENDCHAR
STARTCHAR uni4F36
ENCODING 20278
SWIDTH 1000 0
SWIDTH1 1000 0
BBX 11 12 1 -1
BITMAP
1200
1200
2500
2880
7260
A100
2FC0
2040
2080
2500
2200
2100
ENDCHAR
STARTCHAR uni4F37
ENCODING 20279
SWIDTH 1000 0
SWIDTH1 1000 0
BBX 11 12 1 -1
BITMAP
1100
1100
2FE0
2920
6920
A920
2FE0
2920
2920
2920
2FE0
2820
ENDCHAR
STARTCHAR uni4F38
ENCODING 20280
SWIDTH 1000 0
SWIDTH1 1000 0
BBX 11 12 1 -1
BITMAP
1100
1100
2FE0
2920
6920
AFE0
2920
2920
2FE0
2920
2100
2100
ENDCHAR
STARTCHAR uni4F39
ENCODING 20281
SWIDTH 1000 0
SWIDTH1 1000 0
BBX 11 12 1 -1
BITMAP
1000
17C0
2440
2440
67C0
A440
2440
27C0
2440
2440
2440
2FE0
ENDCHAR
STARTCHAR uni4F3A
ENCODING 20282
SWIDTH 1000 0
SWIDTH1 1000 0
BBX 11 12 1 -1
BITMAP
2000
2FE0
4020
5FA0
C020
4FA0
48A0
48A0
4FA0
4820
4020
41C0
ENDCHAR
STARTCHAR uni4F3B
ENCODING 20283
SWIDTH 1000 0
SWIDTH1 1000 0
BBX 11 12 1 -1
BITMAP
1000
17C0
2100
2920
6520
A540
2100
2FE0
2100
2100
2100
2100
ENDCHAR
STARTCHAR uni4F3C
ENCODING 20284
SWIDTH 1000 0
SWIDTH1 1000 0
BBX 11 12 1 -1
BITMAP
2040
2A40
4940
4940
C840
4880
4880
4A80
4D40
4940
4220
4420
ENDCHAR
STARTCHAR uni4F3D
ENCODING 20285
SWIDTH 1000 0
SWIDTH1 1000 0
BBX 11 12 1 -1
BITMAP
2800
2800
48E0
5EA0
CAA0
4AA0
4AA0
4AA0
4AA0
4AA0
52E0
66A0
ENDCHAR
STARTCHAR uni4F3E
ENCODING 20286
SWIDTH 1000 0
SWIDTH1 1000 0
BBX 11 12 1 -1
BITMAP
1000
17E0
2080
2100
6100
A340
2520
2920
2100
2100
2000
27E0
ENDCHAR
STARTCHAR uni4F3F
ENCODING 20287
SWIDTH 1000 0
SWIDTH1 1000 0
BBX 11 12 1 -1
BITMAP
1000
17C0
2440
2440
6440
A440
2440
27C0
2000
2280
2440
2820
ENDCHAR
STARTCHAR uni4F40
ENCODING 20288
SWIDTH 1000 0
SWIDTH1 1000 0
BBX 11 12 1 -1
BITMAP
1000
17C0
2440
2440
67C0
A400
2400
27E0
2420
2420
27E0
2420
ENDCHAR
STARTCHAR uni4F41
ENCODING 20289
SWIDTH 1000 0
SWIDTH1 1000 0
BBX 11 12 1 -1
BITMAP
1100
1100
2200
2440
6FE0
A020
27C0
2440
2440
2440
27C0
2440
ENDCHAR
STARTCHAR uni4F42
ENCODING 20290
SWIDTH 1000 0
SWIDTH1 1000 0
BBX 11 12 1 -1
BITMAP
2000
2FE0
4100
4100
C100
4900
49E0
4900
4900
4900
4900
5FE0
ENDCHAR
STARTCHAR uni4F43
ENCODING 20291
SWIDTH 1000 0
SWIDTH1 1000 0
BBX 11 12 1 -1
BITMAP
1000
1FE0
2920
2920
6920
AFE0
2920
2920
2920
2920
2FE0
2820
ENDCHAR
STARTCHAR uni4F44
ENCODING 20292
SWIDTH 1000 0
SWIDTH1 1000 0
BBX 11 12 1 -1
BITMAP
1440
1440
2FE0
2440
6440
A440
27C0
2440
2440
2440
27C0
2440
ENDCHAR
STARTCHAR uni4F45
ENCODING 20293
SWIDTH 1000 0
SWIDTH1 1000 0
BBX 11 12 1 -1
BITMAP
1100
1100
27C0
2100
6100
AFE0
2100
2380
2540
2920
2100
2100
ENDCHAR
STARTCHAR uni4F46
ENCODING 20294
SWIDTH 1000 0
SWIDTH1 1000 0
BBX 11 12 1 -1
BITMAP
2000
2FC0
4840
4840
CFC0
4840
4840
4840
4FC0
4000
4000
5FE0
ENDCHAR
STARTCHAR uni4F47
ENCODING 20295
SWIDTH 1000 0
SWIDTH1 1000 0
BBX 11 12 1 -1
BITMAP
2200
2100
5FE0
5020
C000
5FE0
4100
4100
4100
4100
4100
4700
ENDCHAR
STARTCHAR uni4F48
ENCODING 20296
SWIDTH 1000 0
SWIDTH1 1000 0
BBX 11 12 1 -1
BITMAP
1100
1100
2FE0
2200
6500
AFE0
3520
2520
2520
2520
2560
2100
ENDCHAR
STARTCHAR uni4F49
ENCODING 20297
SWIDTH 1000 0
SWIDTH1 1000 0
BBX 11 12 1 -1
BITMAP
1100
1100
2100
27C0
6100
A100
2FE0
2100
2200
2440
2FE0
2020
ENDCHAR
STARTCHAR uni4F4A
ENCODING 20298
SWIDTH 1000 0
SWIDTH1 1000 0
BBX 11 12 1 -1
BITMAP
1100
1100
2FE0
2920
6900
AFC0
2A40
2A40
2A80
2900
2A80
3460
ENDCHAR
STARTCHAR uni4F4B
ENCODING 20299
SWIDTH 1000 0
SWIDTH1 1000 0
BBX 11 12 1 -1
BITMAP
1000
17E0
2220
2220
6420
A8C0
2000
27E0
2420
2420
27E0
2420
ENDCHAR
STARTCHAR uni4F4C
ENCODING 20300
SWIDTH 1000 0
SWIDTH1 1000 0
BBX 11 12 1 -1
BITMAP
1280
1280
2280
2AA0
6AC0
AB80
2A80
2A80
2A80
2AA0
2BA0
3C60
ENDCHAR
STARTCHAR uni4F4D
ENCODING 20301
SWIDTH 1000 0
SWIDTH1 1000 0
BBX 11 12 1 -1
BITMAP
2200
2100
4000
5FE0
C000
4840
4840
4440
4480
4480
4100
5FE0
ENDCHAR
STARTCHAR uni4F4E
ENCODING 20302
SWIDTH 1000 0
SWIDTH1 1000 0
BBX 11 12 1 -1
BITMAP
10C0
1F00
2900
2900
6900
AFE0
2900
2900
2AA0
2CA0
2A60
2120
ENDCHAR
STARTCHAR uni4F4F
ENCODING 20303
SWIDTH 1000 0
SWIDTH1 1000 0
BBX 11 12 1 -1
BITMAP
1200
1100
2000
2FE0
6100
A100
2100
27C0
2100
2100
2100
2FE0
ENDCHAR
STARTCHAR uni4F50
ENCODING 20304
SWIDTH 1000 0
SWIDTH1 1000 0
BBX 11 12 1 -1
BITMAP
1200
1200
2FE0
2200
6400
A400
27C0
2900
2900
3100
2100
2FE0
ENDCHAR
STARTCHAR uni4F51
ENCODING 20305
SWIDTH 1000 0
SWIDTH1 1000 0
BBX 11 12 1 -1
BITMAP
1100
1100
2FE0
2100
6200
A200
27E0
2C20
3420
2420
27E0
2420
ENDCHAR
STARTCHAR uni4F52
ENCODING 20306
SWIDTH 1000 0
SWIDTH1 1000 0
BBX 11 12 1 -1
BITMAP
1100
1100
27C0
2540
6540
A540
2540
2FE0
2100
2280
2440
2820
ENDCHAR
STARTCHAR uni4F53
ENCODING 20307
SWIDTH 1000 0
SWIDTH1 1000 0
BBX 11 12 1 -1
BITMAP
2200
2200
4200
5FC0
C200
4700
4A80
5240
6220
4F80
4200
4200
ENDCHAR
STARTCHAR uni4F54
ENCODING 20308
SWIDTH 1000 0
SWIDTH1 1000 0
BBX 11 12 1 -1
BITMAP
1100
1100
2100
21E0
6100
A100
2FE0
2820
2820
2820
2FE0
2820
ENDCHAR
STARTCHAR uni4F55
ENCODING 20309
SWIDTH 1000 0
SWIDTH1 1000 0
BBX 11 12 1 -1
BITMAP
2000
2FE0
4040
4040
CF40
4940
4940
4940
4F40
4840
4040
41C0
ENDCHAR
STARTCHAR uni4F56
ENCODING 20310
SWIDTH 1000 0
SWIDTH1 1000 0
BBX 11 12 1 -1
BITMAP
2200
2100
4140
4040
CA40
4AA0
4AA0
5320
4200
4640
4A40
51C0
ENDCHAR
STARTCHAR uni4F57
ENCODING 20311
SWIDTH 1000 0
SWIDTH1 1000 0
BBX 11 12 1 -1
BITMAP
1200
1100
2FE0
2820
6000
A440
2480
2500
2600
2420
2420
23E0
ENDCHAR
STARTCHAR uni4F58
ENCODING 20312
SWIDTH 1000 0
SWIDTH1 1000 0
BBX 11 12 1 -1
BITMAP
0400
0A00
3180
C060
1F00
0000
0000
7FC0
0400
2480
4440
8C20
ENDCHAR
STARTCHAR uni4F59
ENCODING 20313
SWIDTH 1000 0
SWIDTH1 1000 0
BBX 11 12 1 -1
BITMAP
0400
0A00
1100
2080
DF60
0400
0400
7FC0
0400
2480
4440
8C20
ENDCHAR
STARTCHAR uni4F5A
ENCODING 20314
SWIDTH 1000 0
SWIDTH1 1000 0
BBX 11 12 1 -1
BITMAP
1100
1100
2500
27C0
6900
A100
2FE0
2100
2280
2280
2440
2820
ENDCHAR
STARTCHAR uni4F5B
ENCODING 20315
SWIDTH 1000 0
SWIDTH1 1000 0
BBX 11 12 1 -1
BITMAP
2500
3FC0
4540
4540
DFC0
5500
5500
5FE0
4520
4520
49C0
5100
ENDCHAR
STARTCHAR uni4F5C
ENCODING 20316
SWIDTH 1000 0
SWIDTH1 1000 0
BBX 11 12 1 -1
BITMAP
1400
1400
27E0
2A00
6200
A3C0
2200
2200
23E0
2200
2200
2200
ENDCHAR
STARTCHAR uni4F5D
ENCODING 20317
SWIDTH 1000 0
SWIDTH1 1000 0
BBX 11 12 1 -1
BITMAP
1400
1400
2FE0
2820
7020
AFA0
28A0
28A0
2FA0
2820
2020
20C0
ENDCHAR
STARTCHAR uni4F5E
ENCODING 20318
SWIDTH 1000 0
SWIDTH1 1000 0
BBX 11 12 1 -1
BITMAP
2000
2FC0
4000
5FE0
C200
4200
5FE0
4480
4C80
4300
4480
5840
ENDCHAR
STARTCHAR uni4F5F
ENCODING 20319
SWIDTH 1000 0
SWIDTH1 1000 0
BBX 11 12 1 -1
BITMAP
1200
13C0
2440
2A80
6100
A280
2C60
2300
2080
2600
2180
2040
ENDCHAR
STARTCHAR uni4F60
ENCODING 20320
SWIDTH 1000 0
SWIDTH1 1000 0
BBX 11 12 1 -1
BITMAP
1400
1400
27E0
2420
6940
A100
2540
2520
2520
2920
2100
2300
ENDCHAR
STARTCHAR uni4F61
ENCODING 20321
SWIDTH 1000 0
SWIDTH1 1000 0
BBX 11 12 1 -1
BITMAP
2200
2200
4500
4880
D040
6220
4200
5240
5240
5240
5FC0
4040
ENDCHAR
STARTCHAR uni4F62
ENCODING 20322
SWIDTH 1000 0
SWIDTH1 1000 0
BBX 11 12 1 -1
BITMAP
1000
17E0
2400
2400
67E0
A420
2420
2420
27E0
2400
2400
27E0
ENDCHAR
STARTCHAR uni4F63
ENCODING 20323
SWIDTH 1000 0
SWIDTH1 1000 0
BBX 11 12 1 -1
BITMAP
2000
2FE0
4920
4920
CFE0
4920
4920
4FE0
4920
4920
4920
50E0
ENDCHAR
STARTCHAR uni4F64
ENCODING 20324
SWIDTH 1000 0
SWIDTH1 1000 0
BBX 11 12 1 -1
BITMAP
2000
2FC0
4400
4400
C780
4480
4480
4A80
4880
48A0
4AA0
4C60
ENDCHAR
STARTCHAR uni4F65
ENCODING 20325
SWIDTH 1000 0
SWIDTH1 1000 0
BBX 11 12 1 -1
BITMAP
0400
0A00
1100
2080
DF60
0000
0880
4480
2500
2100
0200
FFE0
ENDCHAR
STARTCHAR uni4F66
ENCODING 20326
SWIDTH 1000 0
SWIDTH1 1000 0
BBX 11 12 1 -1
BITMAP
1000
1FE0
2200
2200
6400
A7C0
2C40
3440
2440
2440
27C0
2440
ENDCHAR
STARTCHAR uni4F67
ENCODING 20327
SWIDTH 1000 0
SWIDTH1 1000 0
BBX 11 12 1 -1
BITMAP
1200
1200
23C0
2200
6200
BFE0
2200
2300
2280
2240
2200
2200
ENDCHAR
STARTCHAR uni4F68
ENCODING 20328
SWIDTH 1000 0
SWIDTH1 1000 0
BBX 11 12 1 -1
BITMAP
1200
1200
27E0
2820
67A0
A4A0
24A0
27A0
2460
2400
2420
23E0
ENDCHAR
STARTCHAR uni4F69
ENCODING 20329
SWIDTH 1000 0
SWIDTH1 1000 0
BBX 11 12 1 -1
BITMAP
2000
3FC0
5040
5F40
D440
5F40
5540
5540
5540
5740
5460
6420
ENDCHAR
STARTCHAR uni4F6A
ENCODING 20330
SWIDTH 1000 0
SWIDTH1 1000 0
BBX 11 12 1 -1
BITMAP
1000
1FE0
2820
2820
6BA0
AAA0
2AA0
2BA0
2820
2820
2FE0
2820
ENDCHAR
STARTCHAR uni4F6B
ENCODING 20331
SWIDTH 1000 0
SWIDTH1 1000 0
BBX 11 12 1 -1
BITMAP
2400
27C0
4840
5480
C300
5CE0
4000
4FC0
4840
4840
4FC0
4840
ENDCHAR
STARTCHAR uni4F6C
ENCODING 20332
SWIDTH 1000 0
SWIDTH1 1000 0
BBX 11 12 1 -1
BITMAP
1200
1220
2FA0
2240
6280
BFE0
2200
2440
2D80
3600
2420
23E0
ENDCHAR
STARTCHAR uni4F6D
ENCODING 20333
SWIDTH 1000 0
SWIDTH1 1000 0
BBX 11 12 1 -1
BITMAP
2400
27C0
4840
5480
C300
5CE0
4100
4FC0
4100
5100
5FE0
4100
ENDCHAR
STARTCHAR uni4F6E
ENCODING 20334
SWIDTH 1000 0
SWIDTH1 1000 0
BBX 11 12 1 -1
BITMAP
1100
1100
2280
2440
6820
A7C0
2000
27C0
2440
2440
27C0
2440
ENDCHAR
STARTCHAR uni4F6F
ENCODING 20335
SWIDTH 1000 0
SWIDTH1 1000 0
BBX 11 12 1 -1
BITMAP
1440
1280
2FE0
2100
6100
A7C0
2100
2100
2FE0
2100
2100
2100
ENDCHAR
STARTCHAR uni4F70
ENCODING 20336
SWIDTH 1000 0
SWIDTH1 1000 0
BBX 11 12 1 -1
BITMAP
1000
1FE0
2100
2200
6FE0
A820
2820
2FE0
2820
2820
2FE0
2820
ENDCHAR
STARTCHAR uni4F71
ENCODING 20337
SWIDTH 1000 0
SWIDTH1 1000 0
BBX 11 12 1 -1
BITMAP
0400
0A00
3180
C060
3F80
0000
FFE0
0400
2400
27C0
2400
FFE0
ENDCHAR
STARTCHAR uni4F72
ENCODING 20338
SWIDTH 1000 0
SWIDTH1 1000 0
BBX 11 12 1 -1
BITMAP
1100
1100
23E0
2420
6A40
A180
2200
27E0
2A20
2220
23E0
2220
ENDCHAR
STARTCHAR uni4F73
ENCODING 20339
SWIDTH 1000 0
SWIDTH1 1000 0
BBX 11 12 1 -1
BITMAP
1100
1100
27C0
2100
6100
AFE0
2000
2100
27C0
2100
2100
2FE0
ENDCHAR
STARTCHAR uni4F74
ENCODING 20340
SWIDTH 1000 0
SWIDTH1 1000 0
BBX 11 12 1 -1
BITMAP
1000
1FE0
2440
2440
67C0
A440
27C0
2440
2460
2FC0
2040
2040
ENDCHAR
STARTCHAR uni4F75
ENCODING 20341
SWIDTH 1000 0
SWIDTH1 1000 0
BBX 11 12 1 -1
BITMAP
2840
2480
4000
4FC0
C480
4480
4480
5FE0
4480
4480
4480
4880
ENDCHAR
STARTCHAR uni4F76
ENCODING 20342
SWIDTH 1000 0
SWIDTH1 1000 0
BBX 11 12 1 -1
BITMAP
2200
2200
5FE0
4200
C200
5FC0
4000
5FC0
5040
5040
5FC0
5040
ENDCHAR
STARTCHAR uni4F77
ENCODING 20343
SWIDTH 1000 0
SWIDTH1 1000 0
BBX 11 12 1 -1
BITMAP
17C0
1440
2440
27C0
6440
A440
27C0
2520
2540
2480
2640
2420
ENDCHAR
STARTCHAR uni4F78
ENCODING 20344
SWIDTH 1000 0
SWIDTH1 1000 0
BBX 11 12 1 -1
BITMAP
21C0
3E00
4200
4200
DFE0
4200
4200
5FC0
5040
5040
5FC0
5040
ENDCHAR
STARTCHAR uni4F79
ENCODING 20345
SWIDTH 1000 0
SWIDTH1 1000 0
BBX 11 12 1 -1
BITMAP
2400
27C0
4840
5080
CFE0
4800
4BC0
4A40
4AC0
4A00
4A20
51E0
ENDCHAR
STARTCHAR uni4F7A
ENCODING 20346
SWIDTH 1000 0
SWIDTH1 1000 0
BBX 11 12 1 -1
BITMAP
1100
1100
2280
2440
6820
A7C0
2100
2100
27C0
2100
2100
2FE0
ENDCHAR
STARTCHAR uni4F7B
ENCODING 20347
SWIDTH 1000 0
SWIDTH1 1000 0
BBX 11 12 1 -1
BITMAP
2480
2480
4480
54A0
CCC0
4480
4CC0
54A0
4480
48A0
48A0
5060
ENDCHAR
STARTCHAR uni4F7C
ENCODING 20348
SWIDTH 1000 0
SWIDTH1 1000 0
BBX 11 12 1 -1
BITMAP
2200
2100
5FE0
4000
C480
4840
54A0
4480
4480
4300
4480
5860
ENDCHAR
STARTCHAR uni4F7D
ENCODING 20349
SWIDTH 1000 0
SWIDTH1 1000 0
BBX 11 12 1 -1
BITMAP
1200
1200
23E0
3420
6840
A100
2100
2900
3280
2280
2440
2820
ENDCHAR
STARTCHAR uni4F7E
ENCODING 20350
SWIDTH 1000 0
SWIDTH1 1000 0
BBX 11 12 1 -1
BITMAP
2480
2480
4840
5020
CFC0
4840
4FC0
4840
4FC0
4840
4840
48C0
ENDCHAR
STARTCHAR uni4F7F
ENCODING 20351
SWIDTH 1000 0
SWIDTH1 1000 0
BBX 11 12 1 -1
BITMAP
1100
1100
2FE0
2100
6FE0
A920
2FE0
2900
2500
2200
2580
2860
ENDCHAR
STARTCHAR uni4F80
ENCODING 20352
SWIDTH 1000 0
SWIDTH1 1000 0
BBX 11 12 1 -1
BITMAP
2020
3F20
4AA0
4AA0
CAA0
5FA0
4AA0
4AA0
4AA0
4A20
4A20
5260
ENDCHAR
STARTCHAR uni4F81
ENCODING 20353
SWIDTH 1000 0
SWIDTH1 1000 0
BBX 11 12 1 -1
BITMAP
1100
1500
2500
27C0
6900
A100
2FE0
2280
2280
2280
24A0
2860
ENDCHAR
STARTCHAR uni4F82
ENCODING 20354
SWIDTH 1000 0
SWIDTH1 1000 0
BBX 11 12 1 -1
BITMAP
1200
1100
2FE0
2800
68C0
AF00
2900
29E0
2F00
2920
2920
30E0
ENDCHAR
STARTCHAR uni4F83
ENCODING 20355
SWIDTH 1000 0
SWIDTH1 1000 0
BBX 11 12 1 -1
BITMAP
2000
2FC0
4840
4840
CFC0
4000
4A80
4A80
4A80
4A80
52A0
6260
ENDCHAR
STARTCHAR uni4F84
ENCODING 20356
SWIDTH 1000 0
SWIDTH1 1000 0
BBX 11 12 1 -1
BITMAP
1000
17E0
2100
2200
6440
A7E0
2120
2100
27C0
2100
2100
2FE0
ENDCHAR
STARTCHAR uni4F85
ENCODING 20357
SWIDTH 1000 0
SWIDTH1 1000 0
BBX 11 12 1 -1
BITMAP
1200
1100
2FE0
2200
6440
AF80
2120
2240
2C80
2180
2240
2C20
ENDCHAR
STARTCHAR uni4F86
ENCODING 20358
SWIDTH 1000 0
SWIDTH1 1000 0
BBX 11 12 1 -1
BITMAP
0400
0400
7FC0
2480
2480
5540
8E20
0E00
1500
2480
C460
0400
ENDCHAR
STARTCHAR uni4F87
ENCODING 20359
SWIDTH 1000 0
SWIDTH1 1000 0
BBX 11 12 1 -1
BITMAP
1100
1FE0
2100
2FE0
6120
AFE0
2900
2FE0
2120
2160
2280
2C60
ENDCHAR
STARTCHAR uni4F88
ENCODING 20360
SWIDTH 1000 0
SWIDTH1 1000 0
BBX 11 12 1 -1
BITMAP
1200
13C0
2440
2A80
6100
A280
25E0
2220
2540
2080
2300
2C00
ENDCHAR
STARTCHAR uni4F89
ENCODING 20361
SWIDTH 1000 0
SWIDTH1 1000 0
BBX 11 12 1 -1
BITMAP
1100
1FE0
2280
2440
6BA0
A000
2FE0
2400
27C0
2040
2040
2180
ENDCHAR
STARTCHAR uni4F8A
ENCODING 20362
SWIDTH 1000 0
SWIDTH1 1000 0
BBX 11 12 1 -1
BITMAP
2200
2200
5240
4A80
C200
5FE0
4500
4500
4500
4920
5120
60E0
ENDCHAR
STARTCHAR uni4F8B
ENCODING 20363
SWIDTH 1000 0
SWIDTH1 1000 0
BBX 11 12 1 -1
BITMAP
2020
3E20
48A0
48A0
CEA0
52A0
52A0
6AA0
44A0
4420
4820
50E0
ENDCHAR
STARTCHAR uni4F8C
ENCODING 20364
SWIDTH 1000 0
SWIDTH1 1000 0
BBX 11 12 1 -1
BITMAP
0400
0A00
3180
C460
3F80
0100
7FC0
0000
FFE0
1000
2080
7FC0
ENDCHAR
STARTCHAR uni4F8D
ENCODING 20365
SWIDTH 1000 0
SWIDTH1 1000 0
BBX 11 12 1 -1
BITMAP
1100
1100
27C0
2100
6FE0
A080
2FE0
2080
2480
2280
2080
2380
ENDCHAR
STARTCHAR uni4F8E
ENCODING 20366
SWIDTH 1000 0
SWIDTH1 1000 0
BBX 11 12 1 -1
BITMAP
1100
1100
2920
2540
6100
AFE0
2100
2380
2540
2920
2100
2100
ENDCHAR
STARTCHAR uni4F8F
ENCODING 20367
SWIDTH 1000 0
SWIDTH1 1000 0
BBX 11 12 1 -1
BITMAP
1100
1500
27C0
2900
6100
AFE0
2100
2380
2540
2920
2100
2100
ENDCHAR
STARTCHAR uni4F90
ENCODING 20368
SWIDTH 1000 0
SWIDTH1 1000 0
BBX 11 12 1 -1
BITMAP
2200
2200
4400
5FC0
D540
5540
5540
5540
5540
5540
5540
7FE0
ENDCHAR
STARTCHAR uni4F91
ENCODING 20369
SWIDTH 1000 0
SWIDTH1 1000 0
BBX 11 12 1 -1
BITMAP
2200
2200
5FE0
4400
CFC0
5840
6FC0
4840
4FC0
4840
4840
48C0
ENDCHAR
STARTCHAR uni4F92
ENCODING 20370
SWIDTH 1000 0
SWIDTH1 1000 0
BBX 11 12 1 -1
BITMAP
1200
1100
2FE0
2820
6100
A100
2FE0
2240
2640
2180
2240
2C20
ENDCHAR
STARTCHAR uni4F93
ENCODING 20371
SWIDTH 1000 0
SWIDTH1 1000 0
BBX 11 12 1 -1
BITMAP
1100
17C0
2140
2FE0
6140
A7C0
2100
27C0
2100
2FE0
2100
2100
ENDCHAR
STARTCHAR uni4F94
ENCODING 20372
SWIDTH 1000 0
SWIDTH1 1000 0
BBX 11 12 1 -1
BITMAP
1100
1200
2440
27E0
6120
A500
27C0
2900
2100
2FE0
2100
2100
ENDCHAR
STARTCHAR uni4F95
ENCODING 20373
SWIDTH 1000 0
SWIDTH1 1000 0
BBX 11 12 1 -1
BITMAP
1000
1FE0
2100
2200
6FE0
AAA0
2AA0
2AA0
2AA0
2AA0
2AA0
2860
ENDCHAR
STARTCHAR uni4F96
ENCODING 20374
SWIDTH 1000 0
SWIDTH1 1000 0
BBX 11 12 1 -1
BITMAP
0400
0A00
3180
C060
3F80
0000
7FC0
4A40
7FC0
4A40
4A40
40C0
ENDCHAR
STARTCHAR uni4F97
ENCODING 20375
SWIDTH 1000 0
SWIDTH1 1000 0
BBX 11 12 1 -1
BITMAP
1000
1FE0
2820
2BA0
6820
ABA0
2AA0
2AA0
2BA0
2820
2820
2860
ENDCHAR
STARTCHAR uni4F98
ENCODING 20376
SWIDTH 1000 0
SWIDTH1 1000 0
BBX 11 12 1 -1
BITMAP
1200
1100
2FE0
2820
60C0
A700
2100
21E0
2F00
2120
2120
20E0
ENDCHAR
STARTCHAR uni4F99
ENCODING 20377
SWIDTH 1000 0
SWIDTH1 1000 0
BBX 11 12 1 -1
BITMAP
10A0
1080
2FE0
2080
6080
AE80
2480
2480
2480
26A0
2C60
2020
ENDCHAR
STARTCHAR uni4F9A
ENCODING 20378
SWIDTH 1000 0
SWIDTH1 1000 0
BBX 11 12 1 -1
BITMAP
2800
2FE0
5020
6FA0
C8A0
48A0
4FA0
48A0
48A0
4FA0
4820
40C0
ENDCHAR
STARTCHAR uni4F9B
ENCODING 20379
SWIDTH 1000 0
SWIDTH1 1000 0
BBX 11 12 1 -1
BITMAP
2880
2880
4880
5FC0
C880
4880
4880
7FE0
4000
4880
5040
6020
ENDCHAR
STARTCHAR uni4F9C
ENCODING 20380
SWIDTH 1000 0
SWIDTH1 1000 0
BBX 11 12 1 -1
BITMAP
2100
2200
4FC0
4840
CA40
4940
5FE0
4840
4A40
4940
4840
51C0
ENDCHAR
STARTCHAR uni4F9D
ENCODING 20381
SWIDTH 1000 0
SWIDTH1 1000 0
BBX 11 12 1 -1
BITMAP
1200
1100
2FE0
2100
6200
A520
2D40
3480
2480
2440
2620
2400
ENDCHAR
STARTCHAR uni4F9E
ENCODING 20382
SWIDTH 1000 0
SWIDTH1 1000 0
BBX 11 12 1 -1
BITMAP
2400
2400
44E0
5EA0
CAA0
4AA0
4AA0
52A0
4AA0
44E0
4AA0
5200
ENDCHAR
STARTCHAR uni4F9F
ENCODING 20383
SWIDTH 1000 0
SWIDTH1 1000 0
BBX 11 12 1 -1
BITMAP
1200
1200
2FE0
2400
65C0
AC40
3480
27E0
2480
2480
2480
2580
ENDCHAR
STARTCHAR uni4FA0
ENCODING 20384
SWIDTH 1000 0
SWIDTH1 1000 0
BBX 11 12 1 -1
BITMAP
1100
1100
2FE0
2100
6920
A540
2100
2FE0
2100
2280
2440
2820
ENDCHAR
STARTCHAR uni4FA1
ENCODING 20385
SWIDTH 1000 0
SWIDTH1 1000 0
BBX 11 12 1 -1
BITMAP
1000
1FE0
2280
2280
6FE0
AAA0
2AA0
2AA0
2AA0
2AA0
2FE0
2820
ENDCHAR
STARTCHAR uni4FA2
ENCODING 20386
SWIDTH 1000 0
SWIDTH1 1000 0
BBX 11 12 1 -1
BITMAP
3FE0
2200
5FC0
5240
D240
5FC0
5240
5240
7FE0
5040
5040
50C0
ENDCHAR
STARTCHAR uni4FA3
ENCODING 20387
SWIDTH 1000 0
SWIDTH1 1000 0
BBX 11 12 1 -1
BITMAP
17C0
1440
2440
2440
67C0
A000
2FE0
2820
2820
2820
2FE0
2820
ENDCHAR
STARTCHAR uni4FA4
ENCODING 20388
SWIDTH 1000 0
SWIDTH1 1000 0
BBX 11 12 1 -1
BITMAP
1200
1220
2F40
2280
7FE0
A200
27C0
2C00
37C0
2040
2040
2180
ENDCHAR
STARTCHAR uni4FA5
ENCODING 20389
SWIDTH 1000 0
SWIDTH1 1000 0
BBX 11 12 1 -1
BITMAP
2200
23E0
5E40
4280
C120
4EE0
4000
5FE0
4480
4480
48A0
5060
ENDCHAR
STARTCHAR uni4FA6
ENCODING 20390
SWIDTH 1000 0
SWIDTH1 1000 0
BBX 11 12 1 -1
BITMAP
2200
2200
43E0
4200
DFC0
5040
5240
5240
5240
4500
4880
5040
ENDCHAR
STARTCHAR uni4FA7
ENCODING 20391
SWIDTH 1000 0
SWIDTH1 1000 0
BBX 11 12 1 -1
BITMAP
2020
3E20
52A0
52A0
D2A0
52A0
5AA0
5AA0
48A0
4820
5420
6260
ENDCHAR
STARTCHAR uni4FA8
ENCODING 20392
SWIDTH 1000 0
SWIDTH1 1000 0
BBX 11 12 1 -1
BITMAP
10C0
1700
2100
2FE0
6280
A440
2820
2440
2440
2440
2440
2840
ENDCHAR
STARTCHAR uni4FA9
ENCODING 20393
SWIDTH 1000 0
SWIDTH1 1000 0
BBX 11 12 1 -1
BITMAP
1100
1280
2440
2820
67C0
A000
2000
2FE0
2200
2440
2FE0
2020
ENDCHAR
STARTCHAR uni4FAA
ENCODING 20394
SWIDTH 1000 0
SWIDTH1 1000 0
BBX 11 12 1 -1
BITMAP
2200
2100
5FE0
4480
C300
4480
5860
4480
4480
4480
4880
5080
ENDCHAR
STARTCHAR uni4FAB
ENCODING 20395
SWIDTH 1000 0
SWIDTH1 1000 0
BBX 11 12 1 -1
BITMAP
2200
2100
7FE0
4800
C800
4FC0
4200
5FE0
4480
4C80
4300
5CC0
ENDCHAR
STARTCHAR uni4FAC
ENCODING 20396
SWIDTH 1000 0
SWIDTH1 1000 0
BBX 11 12 1 -1
BITMAP
2100
2100
5FE0
5220
C200
4520
4D40
5480
6480
4440
4620
4400
ENDCHAR
STARTCHAR uni4FAD
ENCODING 20397
SWIDTH 1000 0
SWIDTH1 1000 0
BBX 11 12 1 -1
BITMAP
2000
2FC0
4840
4840
CFC0
4900
4880
5240
6120
4400
4200
4100
ENDCHAR
STARTCHAR uni4FAE
ENCODING 20398
SWIDTH 1000 0
SWIDTH1 1000 0
BBX 11 12 1 -1
BITMAP
2800
2FE0
5000
6FC0
C840
4A40
7FE0
5040
5240
5FE0
4040
4180
ENDCHAR
STARTCHAR uni4FAF
ENCODING 20399
SWIDTH 1000 0
SWIDTH1 1000 0
BBX 11 12 1 -1
BITMAP
1000
1780
2080
2FE0
6400
A7C0
2900
2100
2FE0
2280
2440
2820
ENDCHAR
STARTCHAR uni4FB0
ENCODING 20400
SWIDTH 1000 0
SWIDTH1 1000 0
BBX 11 12 1 -1
BITMAP
1000
17C0
2240
2FE0
6240
AFC0
2400
2FC0
3440
2440
27C0
2440
ENDCHAR
STARTCHAR uni4FB1
ENCODING 20401
SWIDTH 1000 0
SWIDTH1 1000 0
BBX 11 12 1 -1
BITMAP
17C0
1440
2440
27C0
6000
AFE0
2100
2100
27C0
2100
2100
2FE0
ENDCHAR
STARTCHAR uni4FB2
ENCODING 20402
SWIDTH 1000 0
SWIDTH1 1000 0
BBX 11 12 1 -1
BITMAP
2000
2FE0
4800
4BC0
C800
4FE0
4A80
4AA0
4AC0
4A80
4B40
5220
ENDCHAR
STARTCHAR uni4FB3
ENCODING 20403
SWIDTH 1000 0
SWIDTH1 1000 0
BBX 11 12 1 -1
BITMAP
1100
1100
2540
2540
6540
ABA0
2100
2100
27C0
2100
2100
2FE0
ENDCHAR
STARTCHAR uni4FB4
ENCODING 20404
SWIDTH 1000 0
SWIDTH1 1000 0
BBX 11 12 1 -1
BITMAP
0400
0A00
3180
C060
1F00
0040
7D40
1540
7D40
2540
2640
F8C0
ENDCHAR
STARTCHAR uni4FB5
ENCODING 20405
SWIDTH 1000 0
SWIDTH1 1000 0
BBX 11 12 1 -1
BITMAP
2FC0
2040
47C0
4040
CFC0
4000
5FE0
5020
4FC0
4440
4380
5C60
ENDCHAR
STARTCHAR uni4FB6
ENCODING 20406
SWIDTH 1000 0
SWIDTH1 1000 0
BBX 11 12 1 -1
BITMAP
1000
17C0
2440
2440
67C0
A100
2200
2FE0
2820
2820
2FE0
2820
ENDCHAR
STARTCHAR uni4FB7
ENCODING 20407
SWIDTH 1000 0
SWIDTH1 1000 0
BBX 11 12 1 -1
BITMAP
2FC0
2840
4FC0
4800
CFE0
4820
4BA0
4AA0
4AA0
4BA0
4820
50C0
ENDCHAR
STARTCHAR uni4FB8
ENCODING 20408
SWIDTH 1000 0
SWIDTH1 1000 0
BBX 11 12 1 -1
BITMAP
1000
1FE0
2000
27C0
6440
A440
27C0
2000
2440
2280
2000
2FE0
ENDCHAR
STARTCHAR uni4FB9
ENCODING 20409
SWIDTH 1000 0
SWIDTH1 1000 0
BBX 11 12 1 -1
BITMAP
2040
2D80
4480
4480
C880
49C0
4C80
4480
4480
55C0
4800
57E0
ENDCHAR
STARTCHAR uni4FBA
ENCODING 20410
SWIDTH 1000 0
SWIDTH1 1000 0
BBX 11 12 1 -1
BITMAP
1100
1920
2FE0
2100
6280
A440
2920
2080
27C0
2040
2080
2100
ENDCHAR
STARTCHAR uni4FBB
ENCODING 20411
SWIDTH 1000 0
SWIDTH1 1000 0
BBX 11 12 1 -1
BITMAP
2840
2480
4000
4FC0
C840
4840
4FC0
4480
4480
4480
48A0
5060
ENDCHAR
STARTCHAR uni4FBC
ENCODING 20412
SWIDTH 1000 0
SWIDTH1 1000 0
BBX 11 12 1 -1
BITMAP
1100
1FE0
2100
2FE0
6820
A7C0
2080
2100
2FE0
2100
2100
2300
ENDCHAR
STARTCHAR uni4FBD
ENCODING 20413
SWIDTH 1000 0
SWIDTH1 1000 0
BBX 11 12 1 -1
BITMAP
1000
1FE0
2920
2FE0
6920
AFE0
2200
2FE0
2220
2420
2420
28C0
ENDCHAR
STARTCHAR uni4FBE
ENCODING 20414
SWIDTH 1000 0
SWIDTH1 1000 0
BBX 11 12 1 -1
BITMAP
2200
2FA0
4240
5FE0
C100
4FC0
4440
4980
57E0
4100
4100
4300
ENDCHAR
STARTCHAR uni4FBF
ENCODING 20415
SWIDTH 1000 0
SWIDTH1 1000 0
BBX 11 12 1 -1
BITMAP
1000
1FE0
2100
2FE0
6920
AFE0
2920
2FE0
2500
2200
2500
28E0
ENDCHAR
STARTCHAR uni4FC0
ENCODING 20416
SWIDTH 1000 0
SWIDTH1 1000 0
BBX 11 12 1 -1
BITMAP
10E0
1F00
2220
2940
6400
A100
2FE0
2240
2640
2180
2240
2C20
ENDCHAR
STARTCHAR uni4FC1
ENCODING 20417
SWIDTH 1000 0
SWIDTH1 1000 0
BBX 11 12 1 -1
BITMAP
13C0
1240
2A40
2BC0
6800
AFC0
2240
2240
2FE0
2280
2440
2820
ENDCHAR
STARTCHAR uni4FC2
ENCODING 20418
SWIDTH 1000 0
SWIDTH1 1000 0
BBX 11 12 1 -1
BITMAP
10C0
1700
2100
2240
6780
A100
2240
2FE0
2120
2540
2920
2300
ENDCHAR
STARTCHAR uni4FC3
ENCODING 20419
SWIDTH 1000 0
SWIDTH1 1000 0
BBX 11 12 1 -1
BITMAP
2FE0
2820
4820
4820
CFE0
4100
4900
49E0
4900
4900
5500
63E0
ENDCHAR
STARTCHAR uni4FC4
ENCODING 20420
SWIDTH 1000 0
SWIDTH1 1000 0
BBX 11 12 1 -1
BITMAP
1280
1CC0
24A0
2480
7FE0
A480
26A0
3CC0
2480
25A0
2660
2C20
ENDCHAR
STARTCHAR uni4FC5
ENCODING 20421
SWIDTH 1000 0
SWIDTH1 1000 0
BBX 11 12 1 -1
BITMAP
2280
2240
4200
5FE0
C200
5320
4B40
4680
4A80
5240
4220
4600
ENDCHAR
STARTCHAR uni4FC6
ENCODING 20422
SWIDTH 1000 0
SWIDTH1 1000 0
BBX 11 12 1 -1
BITMAP
1100
1280
2440
2820
67C0
A100
2FE0
2100
2540
2520
2920
2300
ENDCHAR
STARTCHAR uni4FC7
ENCODING 20423
SWIDTH 1000 0
SWIDTH1 1000 0
BBX 11 12 1 -1
BITMAP
2400
37E0
4880
5480
C480
4480
4FE0
5480
4480
4480
4480
5BE0
ENDCHAR
STARTCHAR uni4FC8
ENCODING 20424
SWIDTH 1000 0
SWIDTH1 1000 0
BBX 11 12 1 -1
BITMAP
2100
2900
4FC0
5100
C100
5FE0
4000
4FC0
4840
4840
4FC0
4840
ENDCHAR
STARTCHAR uni4FC9
ENCODING 20425
SWIDTH 1000 0
SWIDTH1 1000 0
BBX 11 12 1 -1
BITMAP
2FC0
2200
4FC0
4440
C440
5FE0
4000
4FC0
4840
4840
4FC0
4840
ENDCHAR
STARTCHAR uni4FCA
ENCODING 20426
SWIDTH 1000 0
SWIDTH1 1000 0
BBX 11 12 1 -1
BITMAP
1200
1440
2FE0
2020
6440
AA20
23C0
2440
2A80
2100
2280
2C60
ENDCHAR
STARTCHAR uni4FCB
ENCODING 20427
SWIDTH 1000 0
SWIDTH1 1000 0
BBX 11 12 1 -1
BITMAP
17C0
1440
27C0
2000
6FE0
A920
2920
2FE0
2800
2820
2820
27E0
ENDCHAR
STARTCHAR uni4FCC
ENCODING 20428
SWIDTH 1000 0
SWIDTH1 1000 0
BBX 11 12 1 -1
BITMAP
1140
1120
2FE0
2100
6FE0
A920
2FE0
2920
2FE0
2920
2920
2860
ENDCHAR
STARTCHAR uni4FCD
ENCODING 20429
SWIDTH 1000 0
SWIDTH1 1000 0
BBX 11 12 1 -1
BITMAP
1200
1100
2FC0
2840
6FC0
A840
2FC0
2920
2940
2880
2A40
2C20
ENDCHAR
STARTCHAR uni4FCE
ENCODING 20430
SWIDTH 1000 0
SWIDTH1 1000 0
BBX 11 12 1 -1
BITMAP
2000
27C0
2440
5440
4FC0
8440
2440
27C0
5440
4C40
8440
0FE0
ENDCHAR
STARTCHAR uni4FCF
ENCODING 20431
SWIDTH 1000 0
SWIDTH1 1000 0
BBX 11 12 1 -1
BITMAP
2100
2920
4540
4100
CFE0
4820
4FE0
4820
4FE0
4820
4820
4860
ENDCHAR
STARTCHAR uni4FD0
ENCODING 20432
SWIDTH 1000 0
SWIDTH1 1000 0
BBX 11 12 1 -1
BITMAP
2220
2C20
44A0
44A0
DFA0
44A0
44A0
4EA0
55A0
4420
4420
4460
ENDCHAR
STARTCHAR uni4FD1
ENCODING 20433
SWIDTH 1000 0
SWIDTH1 1000 0
BBX 11 12 1 -1
BITMAP
17C0
1040
2280
2100
6FE0
A920
2FE0
2920
2FE0
2920
2920
2860
ENDCHAR
STARTCHAR uni4FD2
ENCODING 20434
SWIDTH 1000 0
SWIDTH1 1000 0
BBX 11 12 1 -1
BITMAP
1200
1100
2FE0
2820
6000
A7C0
2000
2FE0
2280
2280
24A0
2860
ENDCHAR
STARTCHAR uni4FD3
ENCODING 20435
SWIDTH 1000 0
SWIDTH1 1000 0
BBX 11 12 1 -1
BITMAP
1000
1FE0
2000
2540
6A80
A540
2000
27C0
2100
2100
2100
2FE0
ENDCHAR
STARTCHAR uni4FD4
ENCODING 20436
SWIDTH 1000 0
SWIDTH1 1000 0
BBX 11 12 1 -1
BITMAP
2000
2FC0
4840
4FC0
C840
4FC0
4840
4FC0
4480
4480
48A0
5060
ENDCHAR
STARTCHAR uni4FD5
ENCODING 20437
SWIDTH 1000 0
SWIDTH1 1000 0
BBX 11 12 1 -1
BITMAP
1200
1100
2FE0
2820
6100
A100
2FE0
2100
2380
2540
2920
2100
ENDCHAR
STARTCHAR uni4FD6
ENCODING 20438
SWIDTH 1000 0
SWIDTH1 1000 0
BBX 11 12 1 -1
BITMAP
2000
3FE0
4200
4680
CA40
5220
4000
4FC0
4840
4840
4FC0
4840
ENDCHAR
STARTCHAR uni4FD7
ENCODING 20439
SWIDTH 1000 0
SWIDTH1 1000 0
BBX 11 12 1 -1
BITMAP
1280
1440
2920
2100
6280
A440
2820
27C0
2440
2440
27C0
2440
ENDCHAR
STARTCHAR uni4FD8
ENCODING 20440
SWIDTH 1000 0
SWIDTH1 1000 0
BBX 11 12 1 -1
BITMAP
10E0
1F00
2220
2940
6400
AFC0
2080
2100
2FE0
2100
2100
2300
ENDCHAR
STARTCHAR uni4FD9
ENCODING 20441
SWIDTH 1000 0
SWIDTH1 1000 0
BBX 11 12 1 -1
BITMAP
2840
2780
4840
4200
DFE0
4400
4900
5FE0
4920
4920
4960
4100
ENDCHAR
STARTCHAR uni4FDA
ENCODING 20442
SWIDTH 1000 0
SWIDTH1 1000 0
BBX 11 12 1 -1
BITMAP
2FE0
2920
4920
4FE0
C920
4920
4FE0
4100
4FE0
4100
4100
5FE0
ENDCHAR
STARTCHAR uni4FDB
ENCODING 20443
SWIDTH 1000 0
SWIDTH1 1000 0
BBX 11 12 1 -1
BITMAP
2400
27C0
4840
5080
CFE0
4920
4920
4FE0
4280
4280
44A0
4860
ENDCHAR
STARTCHAR uni4FDC
ENCODING 20444
SWIDTH 1000 0
SWIDTH1 1000 0
BBX 11 12 1 -1
BITMAP
2200
3FC0
5240
5FC0
D240
5FC0
4000
5FE0
4800
4FC0
4040
4180
ENDCHAR
STARTCHAR uni4FDD
ENCODING 20445
SWIDTH 1000 0
SWIDTH1 1000 0
BBX 11 12 1 -1
BITMAP
1000
17C0
2440
2440
67C0
A100
2FE0
2100
2380
2540
2920
2100
ENDCHAR
STARTCHAR uni4FDE
ENCODING 20446
SWIDTH 1000 0
SWIDTH1 1000 0
BBX 11 12 1 -1
BITMAP
0400
0A00
3180
DF60
0000
7C40
4540
7D40
4540
7D40
4440
4CC0
ENDCHAR
STARTCHAR uni4FDF
ENCODING 20447
SWIDTH 1000 0
SWIDTH1 1000 0
BBX 11 12 1 -1
BITMAP
1100
1200
2440
2FE0
6420
A7C0
2900
2100
2FE0
2280
2440
2820
ENDCHAR
STARTCHAR uni4FE0
ENCODING 20448
SWIDTH 1000 0
SWIDTH1 1000 0
BBX 11 12 1 -1
BITMAP
1100
1100
2FE0
2100
6540
A540
2540
2BA0
2100
2280
2440
2820
ENDCHAR
STARTCHAR uni4FE1
ENCODING 20449
SWIDTH 1000 0
SWIDTH1 1000 0
BBX 11 12 1 -1
BITMAP
2200
2100
5FE0
4000
CFC0
4000
4FC0
4000
4FC0
4840
4FC0
4840
ENDCHAR
STARTCHAR uni4FE2
ENCODING 20450
SWIDTH 1000 0
SWIDTH1 1000 0
BBX 11 12 1 -1
BITMAP
1200
13C0
2440
2C80
6300
A480
3960
2600
2080
2700
20C0
2F00
ENDCHAR
STARTCHAR uni4FE3
ENCODING 20451
SWIDTH 1000 0
SWIDTH1 1000 0
BBX 11 12 1 -1
BITMAP
2F80
2880
4880
4F80
C000
5FC0
4200
7FE0
4200
4500
4880
5060
ENDCHAR
STARTCHAR uni4FE4
ENCODING 20452
SWIDTH 1000 0
SWIDTH1 1000 0
BBX 11 12 1 -1
BITMAP
2880
2500
5FC0
4240
DFC0
5200
5FE0
4620
4A20
52C0
6200
4200
ENDCHAR
STARTCHAR uni4FE5
ENCODING 20453
SWIDTH 1000 0
SWIDTH1 1000 0
BBX 11 12 1 -1
BITMAP
2200
3FC0
4200
5FC0
D240
5FC0
5240
5FC0
4200
5FE0
4200
4200
ENDCHAR
STARTCHAR uni4FE6
ENCODING 20454
SWIDTH 1000 0
SWIDTH1 1000 0
BBX 11 12 1 -1
BITMAP
2200
3FE0
4200
4FC0
C400
5FE0
4440
4FE0
4A40
5140
5040
60C0
ENDCHAR
STARTCHAR uni4FE7
ENCODING 20455
SWIDTH 1000 0
SWIDTH1 1000 0
BBX 11 12 1 -1
BITMAP
2200
2200
7FE0
4200
C200
5FC0
4200
4100
4440
5420
54A0
6380
ENDCHAR
STARTCHAR uni4FE8
ENCODING 20456
SWIDTH 1000 0
SWIDTH1 1000 0
BBX 11 12 1 -1
BITMAP
2000
3FE0
4480
54A0
CCC0
4480
5FE0
5000
5000
5000
5000
6000
ENDCHAR
STARTCHAR uni4FE9
ENCODING 20457
SWIDTH 1000 0
SWIDTH1 1000 0
BBX 11 12 1 -1
BITMAP
2000
3FE0
4500
4500
DFC0
5540
5540
5540
5AC0
5040
5040
50C0
ENDCHAR
STARTCHAR uni4FEA
ENCODING 20458
SWIDTH 1000 0
SWIDTH1 1000 0
BBX 11 12 1 -1
BITMAP
1000
1FE0
2000
2EE0
6AA0
AAA0
2AA0
2EE0
2AA0
2AA0
2AA0
2AA0
ENDCHAR
STARTCHAR uni4FEB
ENCODING 20459
SWIDTH 1000 0
SWIDTH1 1000 0
BBX 11 12 1 -1
BITMAP
1100
1100
2FE0
2100
6540
A380
2FE0
2100
2380
2540
2920
2100
ENDCHAR
STARTCHAR uni4FEC
ENCODING 20460
SWIDTH 1000 0
SWIDTH1 1000 0
BBX 11 12 1 -1
BITMAP
1240
1C40
2440
2440
7F40
A480
2E80
2D80
34A0
2520
25E0
2420
ENDCHAR
STARTCHAR uni4FED
ENCODING 20461
SWIDTH 1000 0
SWIDTH1 1000 0
BBX 11 12 1 -1
BITMAP
1100
1100
2280
2440
6820
A7C0
2000
2240
2940
2540
2480
2FE0
ENDCHAR
STARTCHAR uni4FEE
ENCODING 20462
SWIDTH 1000 0
SWIDTH1 1000 0
BBX 11 12 1 -1
BITMAP
2200
23C0
4440
5380
DC60
5080
5100
5640
5180
5620
40C0
4F00
ENDCHAR
STARTCHAR uni4FEF
ENCODING 20463
SWIDTH 1000 0
SWIDTH1 1000 0
BBX 11 12 1 -1
BITMAP
2200
2100
5FE0
5000
D240
5440
5DE0
5440
5540
54C0
5440
64C0
ENDCHAR
STARTCHAR uni4FF0
ENCODING 20464
SWIDTH 1000 0
SWIDTH1 1000 0
BBX 11 12 1 -1
BITMAP
2200
2C00
44E0
44A0
DEA0
44A0
4EA0
4DA0
54A0
44E0
44A0
4400
ENDCHAR
STARTCHAR uni4FF1
ENCODING 20465
SWIDTH 1000 0
SWIDTH1 1000 0
BBX 11 12 1 -1
BITMAP
2FC0
2840
4FC0
4840
CFC0
4840
4FC0
4840
5FE0
4000
4480
4840
ENDCHAR
STARTCHAR uni4FF2
ENCODING 20466
SWIDTH 1000 0
SWIDTH1 1000 0
BBX 11 12 1 -1
BITMAP
2880
2480
5E80
41E0
D4A0
62A0
44A0
54A0
48A0
54A0
6520
4260
ENDCHAR
STARTCHAR uni4FF3
ENCODING 20467
SWIDTH 1000 0
SWIDTH1 1000 0
BBX 11 12 1 -1
BITMAP
2480
2480
5CE0
4480
C480
5CE0
4480
4480
5CE0
4480
4480
4480
ENDCHAR
STARTCHAR uni4FF4
ENCODING 20468
SWIDTH 1000 0
SWIDTH1 1000 0
BBX 11 12 1 -1
BITMAP
1280
13E0
2E80
2120
62A0
AC60
2280
23E0
2E80
2120
22A0
2C60
ENDCHAR
STARTCHAR uni4FF5
ENCODING 20469
SWIDTH 1000 0
SWIDTH1 1000 0
BBX 11 12 1 -1
BITMAP
1100
1100
2FE0
2100
67C0
A100
2FE0
2280
26A0
2A40
2340
2220
ENDCHAR
STARTCHAR uni4FF6
ENCODING 20470
SWIDTH 1000 0
SWIDTH1 1000 0
BBX 11 12 1 -1
BITMAP
2800
2BC0
4D40
4940
DF40
4140
4940
4940
5C80
6A80
4940
5A20
ENDCHAR
STARTCHAR uni4FF7
ENCODING 20471
SWIDTH 1000 0
SWIDTH1 1000 0
BBX 11 12 1 -1
BITMAP
2000
3DE0
5520
55A0
DD60
5520
55E0
5D00
5500
5520
5520
6CE0
ENDCHAR
STARTCHAR uni4FF8
ENCODING 20472
SWIDTH 1000 0
SWIDTH1 1000 0
BBX 11 12 1 -1
BITMAP
2200
3FE0
4200
5FC0
C400
7FE0
4880
5240
6FA0
4200
5FC0
4200
ENDCHAR
STARTCHAR uni4FF9
ENCODING 20473
SWIDTH 1000 0
SWIDTH1 1000 0
BBX 11 12 1 -1
BITMAP
1000
1FE0
2280
2280
6EE0
A820
2820
2820
2EE0
2280
2280
2FE0
ENDCHAR
STARTCHAR uni4FFA
ENCODING 20474
SWIDTH 1000 0
SWIDTH1 1000 0
BBX 11 12 1 -1
BITMAP
2200
3FC0
4500
4880
D260
6F80
4A80
4F80
4A80
4FA0
4A20
41E0
ENDCHAR
STARTCHAR uni4FFB
ENCODING 20475
SWIDTH 1000 0
SWIDTH1 1000 0
BBX 11 12 1 -1
BITMAP
1200
13C0
2440
2380
6C60
A000
27C0
2540
27C0
2540
27C0
2440
ENDCHAR
STARTCHAR uni4FFC
ENCODING 20476
SWIDTH 1000 0
SWIDTH1 1000 0
BBX 11 12 1 -1
BITMAP
1200
1FE0
2840
2FE0
6020
AFC0
2840
2FC0
2840
2FC0
2840
28C0
ENDCHAR
STARTCHAR uni4FFD
ENCODING 20477
SWIDTH 1000 0
SWIDTH1 1000 0
BBX 11 12 1 -1
BITMAP
2280
3C80
50E0
5120
DE20
5480
5480
5480
5480
5540
6540
4220
ENDCHAR
STARTCHAR uni4FFE
ENCODING 20478
SWIDTH 1000 0
SWIDTH1 1000 0
BBX 11 12 1 -1
BITMAP
1200
1400
2FC0
2940
6FC0
AA40
2FC0
2400
2900
3FE0
2100
2100
ENDCHAR
STARTCHAR uni4FFF
ENCODING 20479
SWIDTH 1000 0
SWIDTH1 1000 0
BBX 11 12 1 -1
BITMAP
1100
11C0
2100
2FE0
6920
A9C0
2F20
28E0
2B80
2A80
2AA0
3460
ENDCHAR
STARTCHAR uni5000
ENCODING 20480
SWIDTH 1000 0
SWIDTH1 1000 0
BBX 11 12 1 -1
BITMAP
17C0
1400
2780
2400
6780
A400
3FE0
2900
2940
2880
2A40
2C20
ENDCHAR
STARTCHAR uni5001
ENCODING 20481
SWIDTH 1000 0
SWIDTH1 1000 0
BBX 11 12 1 -1
BITMAP
2800
28E0
4EA0
54A0
C4A0
44A0
5FA0
44A0
44A0
4AE0
4AA0
5000
ENDCHAR
STARTCHAR uni5002
ENCODING 20482
SWIDTH 1000 0
SWIDTH1 1000 0
BBX 10 12 1 -1
BITMAP
2440
2880
4000
5DC0
C880
4880
4880
7DC0
4880
4880
4880
5080
ENDCHAR
STARTCHAR uni5003
ENCODING 20483
SWIDTH 1000 0
SWIDTH1 1000 0
BBX 11 12 1 -1
BITMAP
2880
2E80
52C0
4AA0
C480
4BE0
5000
4FC0
4840
4840
4FC0
4840
ENDCHAR
STARTCHAR uni5004
ENCODING 20484
SWIDTH 1000 0
SWIDTH1 1000 0
BBX 11 12 1 -1
BITMAP
2840
2780
4A40
5FE0
C400
4FC0
5840
6FC0
4840
4FC0
4840
48C0
ENDCHAR
STARTCHAR uni5005
ENCODING 20485
SWIDTH 1000 0
SWIDTH1 1000 0
BBX 11 12 1 -1
BITMAP
1200
1100
2FE0
2440
6440
AAA0
2000
2100
2FE0
2100
2100
2100
ENDCHAR
STARTCHAR uni5006
ENCODING 20486
SWIDTH 1000 0
SWIDTH1 1000 0
BBX 11 12 1 -1
BITMAP
1000
1FE0
2100
2100
6FE0
A920
2DA0
2B60
2DA0
2920
2920
2960
ENDCHAR
STARTCHAR uni5007
ENCODING 20487
SWIDTH 1000 0
SWIDTH1 1000 0
BBX 11 12 1 -1
BITMAP
2200
3FE0
5020
4800
CEE0
52A0
52A0
6AE0
4480
44A0
48A0
5060
ENDCHAR
STARTCHAR uni5008
ENCODING 20488
SWIDTH 1000 0
SWIDTH1 1000 0
BBX 11 12 1 -1
BITMAP
1100
1100
2FE0
2100
6540
A540
2BA0
2100
2380
2540
2920
2100
ENDCHAR
STARTCHAR uni5009
ENCODING 20489
SWIDTH 1000 0
SWIDTH1 1000 0
BBX 11 12 1 -1
BITMAP
0400
1B00
E4E0
3F80
2080
3F80
2080
3F80
2000
5FC0
5040
9FC0
ENDCHAR
STARTCHAR uni500A
ENCODING 20490
SWIDTH 1000 0
SWIDTH1 1000 0
BBX 11 12 1 -1
BITMAP
1280
1280
2440
2920
6200
A440
27E0
2220
2940
2A20
32A0
2180
ENDCHAR
STARTCHAR uni500B
ENCODING 20491
SWIDTH 1000 0
SWIDTH1 1000 0
BBX 11 12 1 -1
BITMAP
1000
1FE0
2920
2920
6BA0
A920
2BA0
2AA0
2BA0
2820
2FE0
2820
ENDCHAR
STARTCHAR uni500C
ENCODING 20492
SWIDTH 1000 0
SWIDTH1 1000 0
BBX 11 12 1 -1
BITMAP
2200
2100
5FE0
5020
CFC0
4840
4FC0
4800
4FE0
4820
4FE0
4820
ENDCHAR
STARTCHAR uni500D
ENCODING 20493
SWIDTH 1000 0
SWIDTH1 1000 0
BBX 11 12 1 -1
BITMAP
2100
2FC0
4000
4840
C480
5FE0
4000
4FC0
4840
4840
4FC0
4840
ENDCHAR
STARTCHAR uni500E
ENCODING 20494
SWIDTH 1000 0
SWIDTH1 1000 0
BBX 11 12 1 -1
BITMAP
2500
2500
5FC0
5540
D540
5FC0
5540
5540
7FE0
4000
4880
5040
ENDCHAR
STARTCHAR uni500F
ENCODING 20495
SWIDTH 1000 0
SWIDTH1 1000 0
BBX 11 12 1 -1
BITMAP
2200
23C0
4440
5380
DC60
5100
5140
57E0
5100
5280
4440
4820
ENDCHAR
STARTCHAR uni5010
ENCODING 20496
SWIDTH 1000 0
SWIDTH1 1000 0
BBX 11 12 1 -1
BITMAP
2200
23C0
4440
5380
DC60
5100
5520
5540
5900
5280
4440
4820
ENDCHAR
STARTCHAR uni5011
ENCODING 20497
SWIDTH 1000 0
SWIDTH1 1000 0
BBX 11 12 1 -1
BITMAP
2EE0
2AA0
4AA0
4EE0
CAA0
4AA0
4EE0
4820
4820
4820
4820
4860
ENDCHAR
STARTCHAR uni5012
ENCODING 20498
SWIDTH 1000 0
SWIDTH1 1000 0
BBX 11 12 1 -1
BITMAP
2020
3E20
48A0
52A0
DEA0
4AA0
48A0
5EA0
48A0
4E20
5820
4060
ENDCHAR
STARTCHAR uni5013
ENCODING 20499
SWIDTH 1000 0
SWIDTH1 1000 0
BBX 11 12 1 -1
BITMAP
1100
1520
2540
2900
62C0
AC20
2100
2520
2940
2280
2440
2820
ENDCHAR
STARTCHAR uni5014
ENCODING 20500
SWIDTH 1000 0
SWIDTH1 1000 0
BBX 11 12 1 -1
BITMAP
2000
3FE0
5020
5FE0
D100
5540
5540
57C0
5100
5920
6920
4FE0
ENDCHAR
STARTCHAR uni5015
ENCODING 20501
SWIDTH 1000 0
SWIDTH1 1000 0
BBX 11 12 1 -1
BITMAP
2180
2E00
4200
5FC0
CA80
4A80
7FE0
4A80
4A80
5FC0
4200
4F80
ENDCHAR
STARTCHAR uni5016
ENCODING 20502
SWIDTH 1000 0
SWIDTH1 1000 0
BBX 11 12 1 -1
BITMAP
1100
17C0
2100
2FE0
6440
A280
27C0
2100
2FE0
2100
2100
2100
ENDCHAR
ENDFONT
